%TF.GenerationSoftware,KiCad,Pcbnew,9.0.3*%
%TF.CreationDate,2025-09-28T13:54:29+02:00*%
%TF.ProjectId,PlantBreakoutBoard,506c616e-7442-4726-9561-6b6f7574426f,rev?*%
%TF.SameCoordinates,Original*%
%TF.FileFunction,Legend,Top*%
%TF.FilePolarity,Positive*%
%FSLAX46Y46*%
G04 Gerber Fmt 4.6, Leading zero omitted, Abs format (unit mm)*
G04 Created by KiCad (PCBNEW 9.0.3) date 2025-09-28 13:54:29*
%MOMM*%
%LPD*%
G01*
G04 APERTURE LIST*
%ADD10C,0.150000*%
%ADD11C,0.600000*%
%ADD12C,0.120000*%
G04 APERTURE END LIST*
D10*
X172436779Y-97869819D02*
X172436779Y-96869819D01*
X172436779Y-96869819D02*
X172770112Y-97584104D01*
X172770112Y-97584104D02*
X173103445Y-96869819D01*
X173103445Y-96869819D02*
X173103445Y-97869819D01*
X173722493Y-97869819D02*
X173627255Y-97822200D01*
X173627255Y-97822200D02*
X173579636Y-97774580D01*
X173579636Y-97774580D02*
X173532017Y-97679342D01*
X173532017Y-97679342D02*
X173532017Y-97393628D01*
X173532017Y-97393628D02*
X173579636Y-97298390D01*
X173579636Y-97298390D02*
X173627255Y-97250771D01*
X173627255Y-97250771D02*
X173722493Y-97203152D01*
X173722493Y-97203152D02*
X173865350Y-97203152D01*
X173865350Y-97203152D02*
X173960588Y-97250771D01*
X173960588Y-97250771D02*
X174008207Y-97298390D01*
X174008207Y-97298390D02*
X174055826Y-97393628D01*
X174055826Y-97393628D02*
X174055826Y-97679342D01*
X174055826Y-97679342D02*
X174008207Y-97774580D01*
X174008207Y-97774580D02*
X173960588Y-97822200D01*
X173960588Y-97822200D02*
X173865350Y-97869819D01*
X173865350Y-97869819D02*
X173722493Y-97869819D01*
X174484398Y-97869819D02*
X174484398Y-97203152D01*
X174484398Y-96869819D02*
X174436779Y-96917438D01*
X174436779Y-96917438D02*
X174484398Y-96965057D01*
X174484398Y-96965057D02*
X174532017Y-96917438D01*
X174532017Y-96917438D02*
X174484398Y-96869819D01*
X174484398Y-96869819D02*
X174484398Y-96965057D01*
X174912969Y-97822200D02*
X175008207Y-97869819D01*
X175008207Y-97869819D02*
X175198683Y-97869819D01*
X175198683Y-97869819D02*
X175293921Y-97822200D01*
X175293921Y-97822200D02*
X175341540Y-97726961D01*
X175341540Y-97726961D02*
X175341540Y-97679342D01*
X175341540Y-97679342D02*
X175293921Y-97584104D01*
X175293921Y-97584104D02*
X175198683Y-97536485D01*
X175198683Y-97536485D02*
X175055826Y-97536485D01*
X175055826Y-97536485D02*
X174960588Y-97488866D01*
X174960588Y-97488866D02*
X174912969Y-97393628D01*
X174912969Y-97393628D02*
X174912969Y-97346009D01*
X174912969Y-97346009D02*
X174960588Y-97250771D01*
X174960588Y-97250771D02*
X175055826Y-97203152D01*
X175055826Y-97203152D02*
X175198683Y-97203152D01*
X175198683Y-97203152D02*
X175293921Y-97250771D01*
X175627255Y-97203152D02*
X176008207Y-97203152D01*
X175770112Y-96869819D02*
X175770112Y-97726961D01*
X175770112Y-97726961D02*
X175817731Y-97822200D01*
X175817731Y-97822200D02*
X175912969Y-97869819D01*
X175912969Y-97869819D02*
X176008207Y-97869819D01*
X176246303Y-96869819D02*
X176865350Y-96869819D01*
X176865350Y-96869819D02*
X176532017Y-97250771D01*
X176532017Y-97250771D02*
X176674874Y-97250771D01*
X176674874Y-97250771D02*
X176770112Y-97298390D01*
X176770112Y-97298390D02*
X176817731Y-97346009D01*
X176817731Y-97346009D02*
X176865350Y-97441247D01*
X176865350Y-97441247D02*
X176865350Y-97679342D01*
X176865350Y-97679342D02*
X176817731Y-97774580D01*
X176817731Y-97774580D02*
X176770112Y-97822200D01*
X176770112Y-97822200D02*
X176674874Y-97869819D01*
X176674874Y-97869819D02*
X176389160Y-97869819D01*
X176389160Y-97869819D02*
X176293922Y-97822200D01*
X176293922Y-97822200D02*
X176246303Y-97774580D01*
X172336779Y-111769819D02*
X172336779Y-110769819D01*
X172336779Y-110769819D02*
X172670112Y-111484104D01*
X172670112Y-111484104D02*
X173003445Y-110769819D01*
X173003445Y-110769819D02*
X173003445Y-111769819D01*
X173622493Y-111769819D02*
X173527255Y-111722200D01*
X173527255Y-111722200D02*
X173479636Y-111674580D01*
X173479636Y-111674580D02*
X173432017Y-111579342D01*
X173432017Y-111579342D02*
X173432017Y-111293628D01*
X173432017Y-111293628D02*
X173479636Y-111198390D01*
X173479636Y-111198390D02*
X173527255Y-111150771D01*
X173527255Y-111150771D02*
X173622493Y-111103152D01*
X173622493Y-111103152D02*
X173765350Y-111103152D01*
X173765350Y-111103152D02*
X173860588Y-111150771D01*
X173860588Y-111150771D02*
X173908207Y-111198390D01*
X173908207Y-111198390D02*
X173955826Y-111293628D01*
X173955826Y-111293628D02*
X173955826Y-111579342D01*
X173955826Y-111579342D02*
X173908207Y-111674580D01*
X173908207Y-111674580D02*
X173860588Y-111722200D01*
X173860588Y-111722200D02*
X173765350Y-111769819D01*
X173765350Y-111769819D02*
X173622493Y-111769819D01*
X174384398Y-111769819D02*
X174384398Y-111103152D01*
X174384398Y-110769819D02*
X174336779Y-110817438D01*
X174336779Y-110817438D02*
X174384398Y-110865057D01*
X174384398Y-110865057D02*
X174432017Y-110817438D01*
X174432017Y-110817438D02*
X174384398Y-110769819D01*
X174384398Y-110769819D02*
X174384398Y-110865057D01*
X174812969Y-111722200D02*
X174908207Y-111769819D01*
X174908207Y-111769819D02*
X175098683Y-111769819D01*
X175098683Y-111769819D02*
X175193921Y-111722200D01*
X175193921Y-111722200D02*
X175241540Y-111626961D01*
X175241540Y-111626961D02*
X175241540Y-111579342D01*
X175241540Y-111579342D02*
X175193921Y-111484104D01*
X175193921Y-111484104D02*
X175098683Y-111436485D01*
X175098683Y-111436485D02*
X174955826Y-111436485D01*
X174955826Y-111436485D02*
X174860588Y-111388866D01*
X174860588Y-111388866D02*
X174812969Y-111293628D01*
X174812969Y-111293628D02*
X174812969Y-111246009D01*
X174812969Y-111246009D02*
X174860588Y-111150771D01*
X174860588Y-111150771D02*
X174955826Y-111103152D01*
X174955826Y-111103152D02*
X175098683Y-111103152D01*
X175098683Y-111103152D02*
X175193921Y-111150771D01*
X175527255Y-111103152D02*
X175908207Y-111103152D01*
X175670112Y-110769819D02*
X175670112Y-111626961D01*
X175670112Y-111626961D02*
X175717731Y-111722200D01*
X175717731Y-111722200D02*
X175812969Y-111769819D01*
X175812969Y-111769819D02*
X175908207Y-111769819D01*
X176765350Y-111769819D02*
X176193922Y-111769819D01*
X176479636Y-111769819D02*
X176479636Y-110769819D01*
X176479636Y-110769819D02*
X176384398Y-110912676D01*
X176384398Y-110912676D02*
X176289160Y-111007914D01*
X176289160Y-111007914D02*
X176193922Y-111055533D01*
X172436779Y-90869819D02*
X172436779Y-89869819D01*
X172436779Y-89869819D02*
X172770112Y-90584104D01*
X172770112Y-90584104D02*
X173103445Y-89869819D01*
X173103445Y-89869819D02*
X173103445Y-90869819D01*
X173722493Y-90869819D02*
X173627255Y-90822200D01*
X173627255Y-90822200D02*
X173579636Y-90774580D01*
X173579636Y-90774580D02*
X173532017Y-90679342D01*
X173532017Y-90679342D02*
X173532017Y-90393628D01*
X173532017Y-90393628D02*
X173579636Y-90298390D01*
X173579636Y-90298390D02*
X173627255Y-90250771D01*
X173627255Y-90250771D02*
X173722493Y-90203152D01*
X173722493Y-90203152D02*
X173865350Y-90203152D01*
X173865350Y-90203152D02*
X173960588Y-90250771D01*
X173960588Y-90250771D02*
X174008207Y-90298390D01*
X174008207Y-90298390D02*
X174055826Y-90393628D01*
X174055826Y-90393628D02*
X174055826Y-90679342D01*
X174055826Y-90679342D02*
X174008207Y-90774580D01*
X174008207Y-90774580D02*
X173960588Y-90822200D01*
X173960588Y-90822200D02*
X173865350Y-90869819D01*
X173865350Y-90869819D02*
X173722493Y-90869819D01*
X174484398Y-90869819D02*
X174484398Y-90203152D01*
X174484398Y-89869819D02*
X174436779Y-89917438D01*
X174436779Y-89917438D02*
X174484398Y-89965057D01*
X174484398Y-89965057D02*
X174532017Y-89917438D01*
X174532017Y-89917438D02*
X174484398Y-89869819D01*
X174484398Y-89869819D02*
X174484398Y-89965057D01*
X174912969Y-90822200D02*
X175008207Y-90869819D01*
X175008207Y-90869819D02*
X175198683Y-90869819D01*
X175198683Y-90869819D02*
X175293921Y-90822200D01*
X175293921Y-90822200D02*
X175341540Y-90726961D01*
X175341540Y-90726961D02*
X175341540Y-90679342D01*
X175341540Y-90679342D02*
X175293921Y-90584104D01*
X175293921Y-90584104D02*
X175198683Y-90536485D01*
X175198683Y-90536485D02*
X175055826Y-90536485D01*
X175055826Y-90536485D02*
X174960588Y-90488866D01*
X174960588Y-90488866D02*
X174912969Y-90393628D01*
X174912969Y-90393628D02*
X174912969Y-90346009D01*
X174912969Y-90346009D02*
X174960588Y-90250771D01*
X174960588Y-90250771D02*
X175055826Y-90203152D01*
X175055826Y-90203152D02*
X175198683Y-90203152D01*
X175198683Y-90203152D02*
X175293921Y-90250771D01*
X175627255Y-90203152D02*
X176008207Y-90203152D01*
X175770112Y-89869819D02*
X175770112Y-90726961D01*
X175770112Y-90726961D02*
X175817731Y-90822200D01*
X175817731Y-90822200D02*
X175912969Y-90869819D01*
X175912969Y-90869819D02*
X176008207Y-90869819D01*
X176770112Y-90203152D02*
X176770112Y-90869819D01*
X176532017Y-89822200D02*
X176293922Y-90536485D01*
X176293922Y-90536485D02*
X176912969Y-90536485D01*
X64336779Y-40969819D02*
X64336779Y-39969819D01*
X64336779Y-39969819D02*
X64717731Y-39969819D01*
X64717731Y-39969819D02*
X64812969Y-40017438D01*
X64812969Y-40017438D02*
X64860588Y-40065057D01*
X64860588Y-40065057D02*
X64908207Y-40160295D01*
X64908207Y-40160295D02*
X64908207Y-40303152D01*
X64908207Y-40303152D02*
X64860588Y-40398390D01*
X64860588Y-40398390D02*
X64812969Y-40446009D01*
X64812969Y-40446009D02*
X64717731Y-40493628D01*
X64717731Y-40493628D02*
X64336779Y-40493628D01*
X65765350Y-40303152D02*
X65765350Y-40969819D01*
X65336779Y-40303152D02*
X65336779Y-40826961D01*
X65336779Y-40826961D02*
X65384398Y-40922200D01*
X65384398Y-40922200D02*
X65479636Y-40969819D01*
X65479636Y-40969819D02*
X65622493Y-40969819D01*
X65622493Y-40969819D02*
X65717731Y-40922200D01*
X65717731Y-40922200D02*
X65765350Y-40874580D01*
X66241541Y-40969819D02*
X66241541Y-40303152D01*
X66241541Y-40398390D02*
X66289160Y-40350771D01*
X66289160Y-40350771D02*
X66384398Y-40303152D01*
X66384398Y-40303152D02*
X66527255Y-40303152D01*
X66527255Y-40303152D02*
X66622493Y-40350771D01*
X66622493Y-40350771D02*
X66670112Y-40446009D01*
X66670112Y-40446009D02*
X66670112Y-40969819D01*
X66670112Y-40446009D02*
X66717731Y-40350771D01*
X66717731Y-40350771D02*
X66812969Y-40303152D01*
X66812969Y-40303152D02*
X66955826Y-40303152D01*
X66955826Y-40303152D02*
X67051065Y-40350771D01*
X67051065Y-40350771D02*
X67098684Y-40446009D01*
X67098684Y-40446009D02*
X67098684Y-40969819D01*
X67574874Y-40303152D02*
X67574874Y-41303152D01*
X67574874Y-40350771D02*
X67670112Y-40303152D01*
X67670112Y-40303152D02*
X67860588Y-40303152D01*
X67860588Y-40303152D02*
X67955826Y-40350771D01*
X67955826Y-40350771D02*
X68003445Y-40398390D01*
X68003445Y-40398390D02*
X68051064Y-40493628D01*
X68051064Y-40493628D02*
X68051064Y-40779342D01*
X68051064Y-40779342D02*
X68003445Y-40874580D01*
X68003445Y-40874580D02*
X67955826Y-40922200D01*
X67955826Y-40922200D02*
X67860588Y-40969819D01*
X67860588Y-40969819D02*
X67670112Y-40969819D01*
X67670112Y-40969819D02*
X67574874Y-40922200D01*
X69098684Y-39969819D02*
X69432017Y-40969819D01*
X69432017Y-40969819D02*
X69765350Y-39969819D01*
X70241541Y-40969819D02*
X70146303Y-40922200D01*
X70146303Y-40922200D02*
X70098684Y-40874580D01*
X70098684Y-40874580D02*
X70051065Y-40779342D01*
X70051065Y-40779342D02*
X70051065Y-40493628D01*
X70051065Y-40493628D02*
X70098684Y-40398390D01*
X70098684Y-40398390D02*
X70146303Y-40350771D01*
X70146303Y-40350771D02*
X70241541Y-40303152D01*
X70241541Y-40303152D02*
X70384398Y-40303152D01*
X70384398Y-40303152D02*
X70479636Y-40350771D01*
X70479636Y-40350771D02*
X70527255Y-40398390D01*
X70527255Y-40398390D02*
X70574874Y-40493628D01*
X70574874Y-40493628D02*
X70574874Y-40779342D01*
X70574874Y-40779342D02*
X70527255Y-40874580D01*
X70527255Y-40874580D02*
X70479636Y-40922200D01*
X70479636Y-40922200D02*
X70384398Y-40969819D01*
X70384398Y-40969819D02*
X70241541Y-40969819D01*
X71146303Y-40969819D02*
X71051065Y-40922200D01*
X71051065Y-40922200D02*
X71003446Y-40826961D01*
X71003446Y-40826961D02*
X71003446Y-39969819D01*
X71384399Y-40303152D02*
X71765351Y-40303152D01*
X71527256Y-39969819D02*
X71527256Y-40826961D01*
X71527256Y-40826961D02*
X71574875Y-40922200D01*
X71574875Y-40922200D02*
X71670113Y-40969819D01*
X71670113Y-40969819D02*
X71765351Y-40969819D01*
X72527256Y-40969819D02*
X72527256Y-40446009D01*
X72527256Y-40446009D02*
X72479637Y-40350771D01*
X72479637Y-40350771D02*
X72384399Y-40303152D01*
X72384399Y-40303152D02*
X72193923Y-40303152D01*
X72193923Y-40303152D02*
X72098685Y-40350771D01*
X72527256Y-40922200D02*
X72432018Y-40969819D01*
X72432018Y-40969819D02*
X72193923Y-40969819D01*
X72193923Y-40969819D02*
X72098685Y-40922200D01*
X72098685Y-40922200D02*
X72051066Y-40826961D01*
X72051066Y-40826961D02*
X72051066Y-40731723D01*
X72051066Y-40731723D02*
X72098685Y-40636485D01*
X72098685Y-40636485D02*
X72193923Y-40588866D01*
X72193923Y-40588866D02*
X72432018Y-40588866D01*
X72432018Y-40588866D02*
X72527256Y-40541247D01*
X73432018Y-40303152D02*
X73432018Y-41112676D01*
X73432018Y-41112676D02*
X73384399Y-41207914D01*
X73384399Y-41207914D02*
X73336780Y-41255533D01*
X73336780Y-41255533D02*
X73241542Y-41303152D01*
X73241542Y-41303152D02*
X73098685Y-41303152D01*
X73098685Y-41303152D02*
X73003447Y-41255533D01*
X73432018Y-40922200D02*
X73336780Y-40969819D01*
X73336780Y-40969819D02*
X73146304Y-40969819D01*
X73146304Y-40969819D02*
X73051066Y-40922200D01*
X73051066Y-40922200D02*
X73003447Y-40874580D01*
X73003447Y-40874580D02*
X72955828Y-40779342D01*
X72955828Y-40779342D02*
X72955828Y-40493628D01*
X72955828Y-40493628D02*
X73003447Y-40398390D01*
X73003447Y-40398390D02*
X73051066Y-40350771D01*
X73051066Y-40350771D02*
X73146304Y-40303152D01*
X73146304Y-40303152D02*
X73336780Y-40303152D01*
X73336780Y-40303152D02*
X73432018Y-40350771D01*
X74289161Y-40922200D02*
X74193923Y-40969819D01*
X74193923Y-40969819D02*
X74003447Y-40969819D01*
X74003447Y-40969819D02*
X73908209Y-40922200D01*
X73908209Y-40922200D02*
X73860590Y-40826961D01*
X73860590Y-40826961D02*
X73860590Y-40446009D01*
X73860590Y-40446009D02*
X73908209Y-40350771D01*
X73908209Y-40350771D02*
X74003447Y-40303152D01*
X74003447Y-40303152D02*
X74193923Y-40303152D01*
X74193923Y-40303152D02*
X74289161Y-40350771D01*
X74289161Y-40350771D02*
X74336780Y-40446009D01*
X74336780Y-40446009D02*
X74336780Y-40541247D01*
X74336780Y-40541247D02*
X73860590Y-40636485D01*
X180741541Y-68569819D02*
X180979636Y-69569819D01*
X180979636Y-69569819D02*
X181170112Y-68855533D01*
X181170112Y-68855533D02*
X181360588Y-69569819D01*
X181360588Y-69569819D02*
X181598684Y-68569819D01*
X182408207Y-69569819D02*
X182408207Y-69046009D01*
X182408207Y-69046009D02*
X182360588Y-68950771D01*
X182360588Y-68950771D02*
X182265350Y-68903152D01*
X182265350Y-68903152D02*
X182074874Y-68903152D01*
X182074874Y-68903152D02*
X181979636Y-68950771D01*
X182408207Y-69522200D02*
X182312969Y-69569819D01*
X182312969Y-69569819D02*
X182074874Y-69569819D01*
X182074874Y-69569819D02*
X181979636Y-69522200D01*
X181979636Y-69522200D02*
X181932017Y-69426961D01*
X181932017Y-69426961D02*
X181932017Y-69331723D01*
X181932017Y-69331723D02*
X181979636Y-69236485D01*
X181979636Y-69236485D02*
X182074874Y-69188866D01*
X182074874Y-69188866D02*
X182312969Y-69188866D01*
X182312969Y-69188866D02*
X182408207Y-69141247D01*
X182741541Y-68903152D02*
X183122493Y-68903152D01*
X182884398Y-68569819D02*
X182884398Y-69426961D01*
X182884398Y-69426961D02*
X182932017Y-69522200D01*
X182932017Y-69522200D02*
X183027255Y-69569819D01*
X183027255Y-69569819D02*
X183122493Y-69569819D01*
X183836779Y-69522200D02*
X183741541Y-69569819D01*
X183741541Y-69569819D02*
X183551065Y-69569819D01*
X183551065Y-69569819D02*
X183455827Y-69522200D01*
X183455827Y-69522200D02*
X183408208Y-69426961D01*
X183408208Y-69426961D02*
X183408208Y-69046009D01*
X183408208Y-69046009D02*
X183455827Y-68950771D01*
X183455827Y-68950771D02*
X183551065Y-68903152D01*
X183551065Y-68903152D02*
X183741541Y-68903152D01*
X183741541Y-68903152D02*
X183836779Y-68950771D01*
X183836779Y-68950771D02*
X183884398Y-69046009D01*
X183884398Y-69046009D02*
X183884398Y-69141247D01*
X183884398Y-69141247D02*
X183408208Y-69236485D01*
X184312970Y-69569819D02*
X184312970Y-68903152D01*
X184312970Y-69093628D02*
X184360589Y-68998390D01*
X184360589Y-68998390D02*
X184408208Y-68950771D01*
X184408208Y-68950771D02*
X184503446Y-68903152D01*
X184503446Y-68903152D02*
X184598684Y-68903152D01*
X186170113Y-69569819D02*
X185693923Y-69569819D01*
X185693923Y-69569819D02*
X185693923Y-68569819D01*
X186884399Y-69522200D02*
X186789161Y-69569819D01*
X186789161Y-69569819D02*
X186598685Y-69569819D01*
X186598685Y-69569819D02*
X186503447Y-69522200D01*
X186503447Y-69522200D02*
X186455828Y-69426961D01*
X186455828Y-69426961D02*
X186455828Y-69046009D01*
X186455828Y-69046009D02*
X186503447Y-68950771D01*
X186503447Y-68950771D02*
X186598685Y-68903152D01*
X186598685Y-68903152D02*
X186789161Y-68903152D01*
X186789161Y-68903152D02*
X186884399Y-68950771D01*
X186884399Y-68950771D02*
X186932018Y-69046009D01*
X186932018Y-69046009D02*
X186932018Y-69141247D01*
X186932018Y-69141247D02*
X186455828Y-69236485D01*
X187265352Y-68903152D02*
X187503447Y-69569819D01*
X187503447Y-69569819D02*
X187741542Y-68903152D01*
X188503447Y-69522200D02*
X188408209Y-69569819D01*
X188408209Y-69569819D02*
X188217733Y-69569819D01*
X188217733Y-69569819D02*
X188122495Y-69522200D01*
X188122495Y-69522200D02*
X188074876Y-69426961D01*
X188074876Y-69426961D02*
X188074876Y-69046009D01*
X188074876Y-69046009D02*
X188122495Y-68950771D01*
X188122495Y-68950771D02*
X188217733Y-68903152D01*
X188217733Y-68903152D02*
X188408209Y-68903152D01*
X188408209Y-68903152D02*
X188503447Y-68950771D01*
X188503447Y-68950771D02*
X188551066Y-69046009D01*
X188551066Y-69046009D02*
X188551066Y-69141247D01*
X188551066Y-69141247D02*
X188074876Y-69236485D01*
X189122495Y-69569819D02*
X189027257Y-69522200D01*
X189027257Y-69522200D02*
X188979638Y-69426961D01*
X188979638Y-69426961D02*
X188979638Y-68569819D01*
X172336779Y-104869819D02*
X172336779Y-103869819D01*
X172336779Y-103869819D02*
X172670112Y-104584104D01*
X172670112Y-104584104D02*
X173003445Y-103869819D01*
X173003445Y-103869819D02*
X173003445Y-104869819D01*
X173622493Y-104869819D02*
X173527255Y-104822200D01*
X173527255Y-104822200D02*
X173479636Y-104774580D01*
X173479636Y-104774580D02*
X173432017Y-104679342D01*
X173432017Y-104679342D02*
X173432017Y-104393628D01*
X173432017Y-104393628D02*
X173479636Y-104298390D01*
X173479636Y-104298390D02*
X173527255Y-104250771D01*
X173527255Y-104250771D02*
X173622493Y-104203152D01*
X173622493Y-104203152D02*
X173765350Y-104203152D01*
X173765350Y-104203152D02*
X173860588Y-104250771D01*
X173860588Y-104250771D02*
X173908207Y-104298390D01*
X173908207Y-104298390D02*
X173955826Y-104393628D01*
X173955826Y-104393628D02*
X173955826Y-104679342D01*
X173955826Y-104679342D02*
X173908207Y-104774580D01*
X173908207Y-104774580D02*
X173860588Y-104822200D01*
X173860588Y-104822200D02*
X173765350Y-104869819D01*
X173765350Y-104869819D02*
X173622493Y-104869819D01*
X174384398Y-104869819D02*
X174384398Y-104203152D01*
X174384398Y-103869819D02*
X174336779Y-103917438D01*
X174336779Y-103917438D02*
X174384398Y-103965057D01*
X174384398Y-103965057D02*
X174432017Y-103917438D01*
X174432017Y-103917438D02*
X174384398Y-103869819D01*
X174384398Y-103869819D02*
X174384398Y-103965057D01*
X174812969Y-104822200D02*
X174908207Y-104869819D01*
X174908207Y-104869819D02*
X175098683Y-104869819D01*
X175098683Y-104869819D02*
X175193921Y-104822200D01*
X175193921Y-104822200D02*
X175241540Y-104726961D01*
X175241540Y-104726961D02*
X175241540Y-104679342D01*
X175241540Y-104679342D02*
X175193921Y-104584104D01*
X175193921Y-104584104D02*
X175098683Y-104536485D01*
X175098683Y-104536485D02*
X174955826Y-104536485D01*
X174955826Y-104536485D02*
X174860588Y-104488866D01*
X174860588Y-104488866D02*
X174812969Y-104393628D01*
X174812969Y-104393628D02*
X174812969Y-104346009D01*
X174812969Y-104346009D02*
X174860588Y-104250771D01*
X174860588Y-104250771D02*
X174955826Y-104203152D01*
X174955826Y-104203152D02*
X175098683Y-104203152D01*
X175098683Y-104203152D02*
X175193921Y-104250771D01*
X175527255Y-104203152D02*
X175908207Y-104203152D01*
X175670112Y-103869819D02*
X175670112Y-104726961D01*
X175670112Y-104726961D02*
X175717731Y-104822200D01*
X175717731Y-104822200D02*
X175812969Y-104869819D01*
X175812969Y-104869819D02*
X175908207Y-104869819D01*
X176193922Y-103965057D02*
X176241541Y-103917438D01*
X176241541Y-103917438D02*
X176336779Y-103869819D01*
X176336779Y-103869819D02*
X176574874Y-103869819D01*
X176574874Y-103869819D02*
X176670112Y-103917438D01*
X176670112Y-103917438D02*
X176717731Y-103965057D01*
X176717731Y-103965057D02*
X176765350Y-104060295D01*
X176765350Y-104060295D02*
X176765350Y-104155533D01*
X176765350Y-104155533D02*
X176717731Y-104298390D01*
X176717731Y-104298390D02*
X176146303Y-104869819D01*
X176146303Y-104869819D02*
X176765350Y-104869819D01*
X139836779Y-124269819D02*
X139836779Y-123269819D01*
X139836779Y-123269819D02*
X140217731Y-123269819D01*
X140217731Y-123269819D02*
X140312969Y-123317438D01*
X140312969Y-123317438D02*
X140360588Y-123365057D01*
X140360588Y-123365057D02*
X140408207Y-123460295D01*
X140408207Y-123460295D02*
X140408207Y-123603152D01*
X140408207Y-123603152D02*
X140360588Y-123698390D01*
X140360588Y-123698390D02*
X140312969Y-123746009D01*
X140312969Y-123746009D02*
X140217731Y-123793628D01*
X140217731Y-123793628D02*
X139836779Y-123793628D01*
X140979636Y-124269819D02*
X140884398Y-124222200D01*
X140884398Y-124222200D02*
X140836779Y-124126961D01*
X140836779Y-124126961D02*
X140836779Y-123269819D01*
X141789160Y-124269819D02*
X141789160Y-123746009D01*
X141789160Y-123746009D02*
X141741541Y-123650771D01*
X141741541Y-123650771D02*
X141646303Y-123603152D01*
X141646303Y-123603152D02*
X141455827Y-123603152D01*
X141455827Y-123603152D02*
X141360589Y-123650771D01*
X141789160Y-124222200D02*
X141693922Y-124269819D01*
X141693922Y-124269819D02*
X141455827Y-124269819D01*
X141455827Y-124269819D02*
X141360589Y-124222200D01*
X141360589Y-124222200D02*
X141312970Y-124126961D01*
X141312970Y-124126961D02*
X141312970Y-124031723D01*
X141312970Y-124031723D02*
X141360589Y-123936485D01*
X141360589Y-123936485D02*
X141455827Y-123888866D01*
X141455827Y-123888866D02*
X141693922Y-123888866D01*
X141693922Y-123888866D02*
X141789160Y-123841247D01*
X142265351Y-123603152D02*
X142265351Y-124269819D01*
X142265351Y-123698390D02*
X142312970Y-123650771D01*
X142312970Y-123650771D02*
X142408208Y-123603152D01*
X142408208Y-123603152D02*
X142551065Y-123603152D01*
X142551065Y-123603152D02*
X142646303Y-123650771D01*
X142646303Y-123650771D02*
X142693922Y-123746009D01*
X142693922Y-123746009D02*
X142693922Y-124269819D01*
X143027256Y-123603152D02*
X143408208Y-123603152D01*
X143170113Y-123269819D02*
X143170113Y-124126961D01*
X143170113Y-124126961D02*
X143217732Y-124222200D01*
X143217732Y-124222200D02*
X143312970Y-124269819D01*
X143312970Y-124269819D02*
X143408208Y-124269819D01*
X144503447Y-124269819D02*
X144503447Y-123269819D01*
X144503447Y-123650771D02*
X144598685Y-123603152D01*
X144598685Y-123603152D02*
X144789161Y-123603152D01*
X144789161Y-123603152D02*
X144884399Y-123650771D01*
X144884399Y-123650771D02*
X144932018Y-123698390D01*
X144932018Y-123698390D02*
X144979637Y-123793628D01*
X144979637Y-123793628D02*
X144979637Y-124079342D01*
X144979637Y-124079342D02*
X144932018Y-124174580D01*
X144932018Y-124174580D02*
X144884399Y-124222200D01*
X144884399Y-124222200D02*
X144789161Y-124269819D01*
X144789161Y-124269819D02*
X144598685Y-124269819D01*
X144598685Y-124269819D02*
X144503447Y-124222200D01*
X145408209Y-124269819D02*
X145408209Y-123603152D01*
X145408209Y-123793628D02*
X145455828Y-123698390D01*
X145455828Y-123698390D02*
X145503447Y-123650771D01*
X145503447Y-123650771D02*
X145598685Y-123603152D01*
X145598685Y-123603152D02*
X145693923Y-123603152D01*
X146408209Y-124222200D02*
X146312971Y-124269819D01*
X146312971Y-124269819D02*
X146122495Y-124269819D01*
X146122495Y-124269819D02*
X146027257Y-124222200D01*
X146027257Y-124222200D02*
X145979638Y-124126961D01*
X145979638Y-124126961D02*
X145979638Y-123746009D01*
X145979638Y-123746009D02*
X146027257Y-123650771D01*
X146027257Y-123650771D02*
X146122495Y-123603152D01*
X146122495Y-123603152D02*
X146312971Y-123603152D01*
X146312971Y-123603152D02*
X146408209Y-123650771D01*
X146408209Y-123650771D02*
X146455828Y-123746009D01*
X146455828Y-123746009D02*
X146455828Y-123841247D01*
X146455828Y-123841247D02*
X145979638Y-123936485D01*
X147312971Y-124269819D02*
X147312971Y-123746009D01*
X147312971Y-123746009D02*
X147265352Y-123650771D01*
X147265352Y-123650771D02*
X147170114Y-123603152D01*
X147170114Y-123603152D02*
X146979638Y-123603152D01*
X146979638Y-123603152D02*
X146884400Y-123650771D01*
X147312971Y-124222200D02*
X147217733Y-124269819D01*
X147217733Y-124269819D02*
X146979638Y-124269819D01*
X146979638Y-124269819D02*
X146884400Y-124222200D01*
X146884400Y-124222200D02*
X146836781Y-124126961D01*
X146836781Y-124126961D02*
X146836781Y-124031723D01*
X146836781Y-124031723D02*
X146884400Y-123936485D01*
X146884400Y-123936485D02*
X146979638Y-123888866D01*
X146979638Y-123888866D02*
X147217733Y-123888866D01*
X147217733Y-123888866D02*
X147312971Y-123841247D01*
X147789162Y-124269819D02*
X147789162Y-123269819D01*
X147884400Y-123888866D02*
X148170114Y-124269819D01*
X148170114Y-123603152D02*
X147789162Y-123984104D01*
X148741543Y-124269819D02*
X148646305Y-124222200D01*
X148646305Y-124222200D02*
X148598686Y-124174580D01*
X148598686Y-124174580D02*
X148551067Y-124079342D01*
X148551067Y-124079342D02*
X148551067Y-123793628D01*
X148551067Y-123793628D02*
X148598686Y-123698390D01*
X148598686Y-123698390D02*
X148646305Y-123650771D01*
X148646305Y-123650771D02*
X148741543Y-123603152D01*
X148741543Y-123603152D02*
X148884400Y-123603152D01*
X148884400Y-123603152D02*
X148979638Y-123650771D01*
X148979638Y-123650771D02*
X149027257Y-123698390D01*
X149027257Y-123698390D02*
X149074876Y-123793628D01*
X149074876Y-123793628D02*
X149074876Y-124079342D01*
X149074876Y-124079342D02*
X149027257Y-124174580D01*
X149027257Y-124174580D02*
X148979638Y-124222200D01*
X148979638Y-124222200D02*
X148884400Y-124269819D01*
X148884400Y-124269819D02*
X148741543Y-124269819D01*
X149932019Y-123603152D02*
X149932019Y-124269819D01*
X149503448Y-123603152D02*
X149503448Y-124126961D01*
X149503448Y-124126961D02*
X149551067Y-124222200D01*
X149551067Y-124222200D02*
X149646305Y-124269819D01*
X149646305Y-124269819D02*
X149789162Y-124269819D01*
X149789162Y-124269819D02*
X149884400Y-124222200D01*
X149884400Y-124222200D02*
X149932019Y-124174580D01*
X150265353Y-123603152D02*
X150646305Y-123603152D01*
X150408210Y-123269819D02*
X150408210Y-124126961D01*
X150408210Y-124126961D02*
X150455829Y-124222200D01*
X150455829Y-124222200D02*
X150551067Y-124269819D01*
X150551067Y-124269819D02*
X150646305Y-124269819D01*
X151741544Y-124269819D02*
X151741544Y-123269819D01*
X151741544Y-123650771D02*
X151836782Y-123603152D01*
X151836782Y-123603152D02*
X152027258Y-123603152D01*
X152027258Y-123603152D02*
X152122496Y-123650771D01*
X152122496Y-123650771D02*
X152170115Y-123698390D01*
X152170115Y-123698390D02*
X152217734Y-123793628D01*
X152217734Y-123793628D02*
X152217734Y-124079342D01*
X152217734Y-124079342D02*
X152170115Y-124174580D01*
X152170115Y-124174580D02*
X152122496Y-124222200D01*
X152122496Y-124222200D02*
X152027258Y-124269819D01*
X152027258Y-124269819D02*
X151836782Y-124269819D01*
X151836782Y-124269819D02*
X151741544Y-124222200D01*
X152789163Y-124269819D02*
X152693925Y-124222200D01*
X152693925Y-124222200D02*
X152646306Y-124174580D01*
X152646306Y-124174580D02*
X152598687Y-124079342D01*
X152598687Y-124079342D02*
X152598687Y-123793628D01*
X152598687Y-123793628D02*
X152646306Y-123698390D01*
X152646306Y-123698390D02*
X152693925Y-123650771D01*
X152693925Y-123650771D02*
X152789163Y-123603152D01*
X152789163Y-123603152D02*
X152932020Y-123603152D01*
X152932020Y-123603152D02*
X153027258Y-123650771D01*
X153027258Y-123650771D02*
X153074877Y-123698390D01*
X153074877Y-123698390D02*
X153122496Y-123793628D01*
X153122496Y-123793628D02*
X153122496Y-124079342D01*
X153122496Y-124079342D02*
X153074877Y-124174580D01*
X153074877Y-124174580D02*
X153027258Y-124222200D01*
X153027258Y-124222200D02*
X152932020Y-124269819D01*
X152932020Y-124269819D02*
X152789163Y-124269819D01*
X153979639Y-124269819D02*
X153979639Y-123746009D01*
X153979639Y-123746009D02*
X153932020Y-123650771D01*
X153932020Y-123650771D02*
X153836782Y-123603152D01*
X153836782Y-123603152D02*
X153646306Y-123603152D01*
X153646306Y-123603152D02*
X153551068Y-123650771D01*
X153979639Y-124222200D02*
X153884401Y-124269819D01*
X153884401Y-124269819D02*
X153646306Y-124269819D01*
X153646306Y-124269819D02*
X153551068Y-124222200D01*
X153551068Y-124222200D02*
X153503449Y-124126961D01*
X153503449Y-124126961D02*
X153503449Y-124031723D01*
X153503449Y-124031723D02*
X153551068Y-123936485D01*
X153551068Y-123936485D02*
X153646306Y-123888866D01*
X153646306Y-123888866D02*
X153884401Y-123888866D01*
X153884401Y-123888866D02*
X153979639Y-123841247D01*
X154455830Y-124269819D02*
X154455830Y-123603152D01*
X154455830Y-123793628D02*
X154503449Y-123698390D01*
X154503449Y-123698390D02*
X154551068Y-123650771D01*
X154551068Y-123650771D02*
X154646306Y-123603152D01*
X154646306Y-123603152D02*
X154741544Y-123603152D01*
X155503449Y-124269819D02*
X155503449Y-123269819D01*
X155503449Y-124222200D02*
X155408211Y-124269819D01*
X155408211Y-124269819D02*
X155217735Y-124269819D01*
X155217735Y-124269819D02*
X155122497Y-124222200D01*
X155122497Y-124222200D02*
X155074878Y-124174580D01*
X155074878Y-124174580D02*
X155027259Y-124079342D01*
X155027259Y-124079342D02*
X155027259Y-123793628D01*
X155027259Y-123793628D02*
X155074878Y-123698390D01*
X155074878Y-123698390D02*
X155122497Y-123650771D01*
X155122497Y-123650771D02*
X155217735Y-123603152D01*
X155217735Y-123603152D02*
X155408211Y-123603152D01*
X155408211Y-123603152D02*
X155503449Y-123650771D01*
X156646307Y-123603152D02*
X156884402Y-124269819D01*
X156884402Y-124269819D02*
X157122497Y-123603152D01*
X158027259Y-124269819D02*
X157455831Y-124269819D01*
X157741545Y-124269819D02*
X157741545Y-123269819D01*
X157741545Y-123269819D02*
X157646307Y-123412676D01*
X157646307Y-123412676D02*
X157551069Y-123507914D01*
X157551069Y-123507914D02*
X157455831Y-123555533D01*
X158455831Y-124174580D02*
X158503450Y-124222200D01*
X158503450Y-124222200D02*
X158455831Y-124269819D01*
X158455831Y-124269819D02*
X158408212Y-124222200D01*
X158408212Y-124222200D02*
X158455831Y-124174580D01*
X158455831Y-124174580D02*
X158455831Y-124269819D01*
X159122497Y-123269819D02*
X159217735Y-123269819D01*
X159217735Y-123269819D02*
X159312973Y-123317438D01*
X159312973Y-123317438D02*
X159360592Y-123365057D01*
X159360592Y-123365057D02*
X159408211Y-123460295D01*
X159408211Y-123460295D02*
X159455830Y-123650771D01*
X159455830Y-123650771D02*
X159455830Y-123888866D01*
X159455830Y-123888866D02*
X159408211Y-124079342D01*
X159408211Y-124079342D02*
X159360592Y-124174580D01*
X159360592Y-124174580D02*
X159312973Y-124222200D01*
X159312973Y-124222200D02*
X159217735Y-124269819D01*
X159217735Y-124269819D02*
X159122497Y-124269819D01*
X159122497Y-124269819D02*
X159027259Y-124222200D01*
X159027259Y-124222200D02*
X158979640Y-124174580D01*
X158979640Y-124174580D02*
X158932021Y-124079342D01*
X158932021Y-124079342D02*
X158884402Y-123888866D01*
X158884402Y-123888866D02*
X158884402Y-123650771D01*
X158884402Y-123650771D02*
X158932021Y-123460295D01*
X158932021Y-123460295D02*
X158979640Y-123365057D01*
X158979640Y-123365057D02*
X159027259Y-123317438D01*
X159027259Y-123317438D02*
X159122497Y-123269819D01*
X139802493Y-122222200D02*
X139955350Y-122269819D01*
X139955350Y-122269819D02*
X140210112Y-122269819D01*
X140210112Y-122269819D02*
X140312017Y-122222200D01*
X140312017Y-122222200D02*
X140362969Y-122174580D01*
X140362969Y-122174580D02*
X140413922Y-122079342D01*
X140413922Y-122079342D02*
X140413922Y-121984104D01*
X140413922Y-121984104D02*
X140362969Y-121888866D01*
X140362969Y-121888866D02*
X140312017Y-121841247D01*
X140312017Y-121841247D02*
X140210112Y-121793628D01*
X140210112Y-121793628D02*
X140006303Y-121746009D01*
X140006303Y-121746009D02*
X139904398Y-121698390D01*
X139904398Y-121698390D02*
X139853445Y-121650771D01*
X139853445Y-121650771D02*
X139802493Y-121555533D01*
X139802493Y-121555533D02*
X139802493Y-121460295D01*
X139802493Y-121460295D02*
X139853445Y-121365057D01*
X139853445Y-121365057D02*
X139904398Y-121317438D01*
X139904398Y-121317438D02*
X140006303Y-121269819D01*
X140006303Y-121269819D02*
X140261064Y-121269819D01*
X140261064Y-121269819D02*
X140413922Y-121317438D01*
X141280112Y-122222200D02*
X141178208Y-122269819D01*
X141178208Y-122269819D02*
X140974398Y-122269819D01*
X140974398Y-122269819D02*
X140872493Y-122222200D01*
X140872493Y-122222200D02*
X140821541Y-122126961D01*
X140821541Y-122126961D02*
X140821541Y-121746009D01*
X140821541Y-121746009D02*
X140872493Y-121650771D01*
X140872493Y-121650771D02*
X140974398Y-121603152D01*
X140974398Y-121603152D02*
X141178208Y-121603152D01*
X141178208Y-121603152D02*
X141280112Y-121650771D01*
X141280112Y-121650771D02*
X141331065Y-121746009D01*
X141331065Y-121746009D02*
X141331065Y-121841247D01*
X141331065Y-121841247D02*
X140821541Y-121936485D01*
X142197255Y-122222200D02*
X142095351Y-122269819D01*
X142095351Y-122269819D02*
X141891541Y-122269819D01*
X141891541Y-122269819D02*
X141789636Y-122222200D01*
X141789636Y-122222200D02*
X141738684Y-122126961D01*
X141738684Y-122126961D02*
X141738684Y-121746009D01*
X141738684Y-121746009D02*
X141789636Y-121650771D01*
X141789636Y-121650771D02*
X141891541Y-121603152D01*
X141891541Y-121603152D02*
X142095351Y-121603152D01*
X142095351Y-121603152D02*
X142197255Y-121650771D01*
X142197255Y-121650771D02*
X142248208Y-121746009D01*
X142248208Y-121746009D02*
X142248208Y-121841247D01*
X142248208Y-121841247D02*
X141738684Y-121936485D01*
X142706779Y-122269819D02*
X142706779Y-121603152D01*
X142706779Y-121698390D02*
X142757732Y-121650771D01*
X142757732Y-121650771D02*
X142859637Y-121603152D01*
X142859637Y-121603152D02*
X143012494Y-121603152D01*
X143012494Y-121603152D02*
X143114398Y-121650771D01*
X143114398Y-121650771D02*
X143165351Y-121746009D01*
X143165351Y-121746009D02*
X143165351Y-122269819D01*
X143165351Y-121746009D02*
X143216303Y-121650771D01*
X143216303Y-121650771D02*
X143318208Y-121603152D01*
X143318208Y-121603152D02*
X143471065Y-121603152D01*
X143471065Y-121603152D02*
X143572970Y-121650771D01*
X143572970Y-121650771D02*
X143623922Y-121746009D01*
X143623922Y-121746009D02*
X143623922Y-122269819D01*
X144286304Y-122269819D02*
X144184399Y-122222200D01*
X144184399Y-122222200D02*
X144133446Y-122126961D01*
X144133446Y-122126961D02*
X144133446Y-121269819D01*
X145101541Y-122222200D02*
X144999637Y-122269819D01*
X144999637Y-122269819D02*
X144795827Y-122269819D01*
X144795827Y-122269819D02*
X144693922Y-122222200D01*
X144693922Y-122222200D02*
X144642970Y-122126961D01*
X144642970Y-122126961D02*
X144642970Y-121746009D01*
X144642970Y-121746009D02*
X144693922Y-121650771D01*
X144693922Y-121650771D02*
X144795827Y-121603152D01*
X144795827Y-121603152D02*
X144999637Y-121603152D01*
X144999637Y-121603152D02*
X145101541Y-121650771D01*
X145101541Y-121650771D02*
X145152494Y-121746009D01*
X145152494Y-121746009D02*
X145152494Y-121841247D01*
X145152494Y-121841247D02*
X144642970Y-121936485D01*
X145560113Y-122222200D02*
X145662018Y-122269819D01*
X145662018Y-122269819D02*
X145865827Y-122269819D01*
X145865827Y-122269819D02*
X145967732Y-122222200D01*
X145967732Y-122222200D02*
X146018684Y-122126961D01*
X146018684Y-122126961D02*
X146018684Y-122079342D01*
X146018684Y-122079342D02*
X145967732Y-121984104D01*
X145967732Y-121984104D02*
X145865827Y-121936485D01*
X145865827Y-121936485D02*
X145712970Y-121936485D01*
X145712970Y-121936485D02*
X145611065Y-121888866D01*
X145611065Y-121888866D02*
X145560113Y-121793628D01*
X145560113Y-121793628D02*
X145560113Y-121746009D01*
X145560113Y-121746009D02*
X145611065Y-121650771D01*
X145611065Y-121650771D02*
X145712970Y-121603152D01*
X145712970Y-121603152D02*
X145865827Y-121603152D01*
X145865827Y-121603152D02*
X145967732Y-121650771D01*
X146426303Y-122222200D02*
X146528208Y-122269819D01*
X146528208Y-122269819D02*
X146732017Y-122269819D01*
X146732017Y-122269819D02*
X146833922Y-122222200D01*
X146833922Y-122222200D02*
X146884874Y-122126961D01*
X146884874Y-122126961D02*
X146884874Y-122079342D01*
X146884874Y-122079342D02*
X146833922Y-121984104D01*
X146833922Y-121984104D02*
X146732017Y-121936485D01*
X146732017Y-121936485D02*
X146579160Y-121936485D01*
X146579160Y-121936485D02*
X146477255Y-121888866D01*
X146477255Y-121888866D02*
X146426303Y-121793628D01*
X146426303Y-121793628D02*
X146426303Y-121746009D01*
X146426303Y-121746009D02*
X146477255Y-121650771D01*
X146477255Y-121650771D02*
X146579160Y-121603152D01*
X146579160Y-121603152D02*
X146732017Y-121603152D01*
X146732017Y-121603152D02*
X146833922Y-121650771D01*
X148056779Y-121269819D02*
X148311541Y-122269819D01*
X148311541Y-122269819D02*
X148515350Y-121555533D01*
X148515350Y-121555533D02*
X148719160Y-122269819D01*
X148719160Y-122269819D02*
X148973922Y-121269819D01*
X149840112Y-122269819D02*
X149840112Y-121746009D01*
X149840112Y-121746009D02*
X149789159Y-121650771D01*
X149789159Y-121650771D02*
X149687255Y-121603152D01*
X149687255Y-121603152D02*
X149483445Y-121603152D01*
X149483445Y-121603152D02*
X149381540Y-121650771D01*
X149840112Y-122222200D02*
X149738207Y-122269819D01*
X149738207Y-122269819D02*
X149483445Y-122269819D01*
X149483445Y-122269819D02*
X149381540Y-122222200D01*
X149381540Y-122222200D02*
X149330588Y-122126961D01*
X149330588Y-122126961D02*
X149330588Y-122031723D01*
X149330588Y-122031723D02*
X149381540Y-121936485D01*
X149381540Y-121936485D02*
X149483445Y-121888866D01*
X149483445Y-121888866D02*
X149738207Y-121888866D01*
X149738207Y-121888866D02*
X149840112Y-121841247D01*
X150196778Y-121603152D02*
X150604397Y-121603152D01*
X150349635Y-121269819D02*
X150349635Y-122126961D01*
X150349635Y-122126961D02*
X150400588Y-122222200D01*
X150400588Y-122222200D02*
X150502493Y-122269819D01*
X150502493Y-122269819D02*
X150604397Y-122269819D01*
X151368683Y-122222200D02*
X151266779Y-122269819D01*
X151266779Y-122269819D02*
X151062969Y-122269819D01*
X151062969Y-122269819D02*
X150961064Y-122222200D01*
X150961064Y-122222200D02*
X150910112Y-122126961D01*
X150910112Y-122126961D02*
X150910112Y-121746009D01*
X150910112Y-121746009D02*
X150961064Y-121650771D01*
X150961064Y-121650771D02*
X151062969Y-121603152D01*
X151062969Y-121603152D02*
X151266779Y-121603152D01*
X151266779Y-121603152D02*
X151368683Y-121650771D01*
X151368683Y-121650771D02*
X151419636Y-121746009D01*
X151419636Y-121746009D02*
X151419636Y-121841247D01*
X151419636Y-121841247D02*
X150910112Y-121936485D01*
X151878207Y-122269819D02*
X151878207Y-121603152D01*
X151878207Y-121793628D02*
X151929160Y-121698390D01*
X151929160Y-121698390D02*
X151980112Y-121650771D01*
X151980112Y-121650771D02*
X152082017Y-121603152D01*
X152082017Y-121603152D02*
X152183922Y-121603152D01*
X152540588Y-122269819D02*
X152540588Y-121603152D01*
X152540588Y-121269819D02*
X152489636Y-121317438D01*
X152489636Y-121317438D02*
X152540588Y-121365057D01*
X152540588Y-121365057D02*
X152591541Y-121317438D01*
X152591541Y-121317438D02*
X152540588Y-121269819D01*
X152540588Y-121269819D02*
X152540588Y-121365057D01*
X153050112Y-121603152D02*
X153050112Y-122269819D01*
X153050112Y-121698390D02*
X153101065Y-121650771D01*
X153101065Y-121650771D02*
X153202970Y-121603152D01*
X153202970Y-121603152D02*
X153355827Y-121603152D01*
X153355827Y-121603152D02*
X153457731Y-121650771D01*
X153457731Y-121650771D02*
X153508684Y-121746009D01*
X153508684Y-121746009D02*
X153508684Y-122269819D01*
X154476779Y-121603152D02*
X154476779Y-122412676D01*
X154476779Y-122412676D02*
X154425826Y-122507914D01*
X154425826Y-122507914D02*
X154374874Y-122555533D01*
X154374874Y-122555533D02*
X154272969Y-122603152D01*
X154272969Y-122603152D02*
X154120112Y-122603152D01*
X154120112Y-122603152D02*
X154018207Y-122555533D01*
X154476779Y-122222200D02*
X154374874Y-122269819D01*
X154374874Y-122269819D02*
X154171065Y-122269819D01*
X154171065Y-122269819D02*
X154069160Y-122222200D01*
X154069160Y-122222200D02*
X154018207Y-122174580D01*
X154018207Y-122174580D02*
X153967255Y-122079342D01*
X153967255Y-122079342D02*
X153967255Y-121793628D01*
X153967255Y-121793628D02*
X154018207Y-121698390D01*
X154018207Y-121698390D02*
X154069160Y-121650771D01*
X154069160Y-121650771D02*
X154171065Y-121603152D01*
X154171065Y-121603152D02*
X154374874Y-121603152D01*
X154374874Y-121603152D02*
X154476779Y-121650771D01*
X155750588Y-122222200D02*
X155903445Y-122269819D01*
X155903445Y-122269819D02*
X156158207Y-122269819D01*
X156158207Y-122269819D02*
X156260112Y-122222200D01*
X156260112Y-122222200D02*
X156311064Y-122174580D01*
X156311064Y-122174580D02*
X156362017Y-122079342D01*
X156362017Y-122079342D02*
X156362017Y-121984104D01*
X156362017Y-121984104D02*
X156311064Y-121888866D01*
X156311064Y-121888866D02*
X156260112Y-121841247D01*
X156260112Y-121841247D02*
X156158207Y-121793628D01*
X156158207Y-121793628D02*
X155954398Y-121746009D01*
X155954398Y-121746009D02*
X155852493Y-121698390D01*
X155852493Y-121698390D02*
X155801540Y-121650771D01*
X155801540Y-121650771D02*
X155750588Y-121555533D01*
X155750588Y-121555533D02*
X155750588Y-121460295D01*
X155750588Y-121460295D02*
X155801540Y-121365057D01*
X155801540Y-121365057D02*
X155852493Y-121317438D01*
X155852493Y-121317438D02*
X155954398Y-121269819D01*
X155954398Y-121269819D02*
X156209159Y-121269819D01*
X156209159Y-121269819D02*
X156362017Y-121317438D01*
X156718684Y-121603152D02*
X156973446Y-122269819D01*
X157228207Y-121603152D02*
X156973446Y-122269819D01*
X156973446Y-122269819D02*
X156871541Y-122507914D01*
X156871541Y-122507914D02*
X156820588Y-122555533D01*
X156820588Y-122555533D02*
X156718684Y-122603152D01*
X157584874Y-122222200D02*
X157686779Y-122269819D01*
X157686779Y-122269819D02*
X157890588Y-122269819D01*
X157890588Y-122269819D02*
X157992493Y-122222200D01*
X157992493Y-122222200D02*
X158043445Y-122126961D01*
X158043445Y-122126961D02*
X158043445Y-122079342D01*
X158043445Y-122079342D02*
X157992493Y-121984104D01*
X157992493Y-121984104D02*
X157890588Y-121936485D01*
X157890588Y-121936485D02*
X157737731Y-121936485D01*
X157737731Y-121936485D02*
X157635826Y-121888866D01*
X157635826Y-121888866D02*
X157584874Y-121793628D01*
X157584874Y-121793628D02*
X157584874Y-121746009D01*
X157584874Y-121746009D02*
X157635826Y-121650771D01*
X157635826Y-121650771D02*
X157737731Y-121603152D01*
X157737731Y-121603152D02*
X157890588Y-121603152D01*
X157890588Y-121603152D02*
X157992493Y-121650771D01*
X158349159Y-121603152D02*
X158756778Y-121603152D01*
X158502016Y-121269819D02*
X158502016Y-122126961D01*
X158502016Y-122126961D02*
X158552969Y-122222200D01*
X158552969Y-122222200D02*
X158654874Y-122269819D01*
X158654874Y-122269819D02*
X158756778Y-122269819D01*
X159521064Y-122222200D02*
X159419160Y-122269819D01*
X159419160Y-122269819D02*
X159215350Y-122269819D01*
X159215350Y-122269819D02*
X159113445Y-122222200D01*
X159113445Y-122222200D02*
X159062493Y-122126961D01*
X159062493Y-122126961D02*
X159062493Y-121746009D01*
X159062493Y-121746009D02*
X159113445Y-121650771D01*
X159113445Y-121650771D02*
X159215350Y-121603152D01*
X159215350Y-121603152D02*
X159419160Y-121603152D01*
X159419160Y-121603152D02*
X159521064Y-121650771D01*
X159521064Y-121650771D02*
X159572017Y-121746009D01*
X159572017Y-121746009D02*
X159572017Y-121841247D01*
X159572017Y-121841247D02*
X159062493Y-121936485D01*
X160030588Y-122269819D02*
X160030588Y-121603152D01*
X160030588Y-121698390D02*
X160081541Y-121650771D01*
X160081541Y-121650771D02*
X160183446Y-121603152D01*
X160183446Y-121603152D02*
X160336303Y-121603152D01*
X160336303Y-121603152D02*
X160438207Y-121650771D01*
X160438207Y-121650771D02*
X160489160Y-121746009D01*
X160489160Y-121746009D02*
X160489160Y-122269819D01*
X160489160Y-121746009D02*
X160540112Y-121650771D01*
X160540112Y-121650771D02*
X160642017Y-121603152D01*
X160642017Y-121603152D02*
X160794874Y-121603152D01*
X160794874Y-121603152D02*
X160896779Y-121650771D01*
X160896779Y-121650771D02*
X160947731Y-121746009D01*
X160947731Y-121746009D02*
X160947731Y-122269819D01*
X161406303Y-122222200D02*
X161508208Y-122269819D01*
X161508208Y-122269819D02*
X161712017Y-122269819D01*
X161712017Y-122269819D02*
X161813922Y-122222200D01*
X161813922Y-122222200D02*
X161864874Y-122126961D01*
X161864874Y-122126961D02*
X161864874Y-122079342D01*
X161864874Y-122079342D02*
X161813922Y-121984104D01*
X161813922Y-121984104D02*
X161712017Y-121936485D01*
X161712017Y-121936485D02*
X161559160Y-121936485D01*
X161559160Y-121936485D02*
X161457255Y-121888866D01*
X161457255Y-121888866D02*
X161406303Y-121793628D01*
X161406303Y-121793628D02*
X161406303Y-121746009D01*
X161406303Y-121746009D02*
X161457255Y-121650771D01*
X161457255Y-121650771D02*
X161559160Y-121603152D01*
X161559160Y-121603152D02*
X161712017Y-121603152D01*
X161712017Y-121603152D02*
X161813922Y-121650771D01*
X163087731Y-122222200D02*
X163189636Y-122269819D01*
X163189636Y-122269819D02*
X163393445Y-122269819D01*
X163393445Y-122269819D02*
X163495350Y-122222200D01*
X163495350Y-122222200D02*
X163546302Y-122126961D01*
X163546302Y-122126961D02*
X163546302Y-122079342D01*
X163546302Y-122079342D02*
X163495350Y-121984104D01*
X163495350Y-121984104D02*
X163393445Y-121936485D01*
X163393445Y-121936485D02*
X163240588Y-121936485D01*
X163240588Y-121936485D02*
X163138683Y-121888866D01*
X163138683Y-121888866D02*
X163087731Y-121793628D01*
X163087731Y-121793628D02*
X163087731Y-121746009D01*
X163087731Y-121746009D02*
X163138683Y-121650771D01*
X163138683Y-121650771D02*
X163240588Y-121603152D01*
X163240588Y-121603152D02*
X163393445Y-121603152D01*
X163393445Y-121603152D02*
X163495350Y-121650771D01*
X164004873Y-122269819D02*
X164004873Y-121603152D01*
X164004873Y-121269819D02*
X163953921Y-121317438D01*
X163953921Y-121317438D02*
X164004873Y-121365057D01*
X164004873Y-121365057D02*
X164055826Y-121317438D01*
X164055826Y-121317438D02*
X164004873Y-121269819D01*
X164004873Y-121269819D02*
X164004873Y-121365057D01*
X164514397Y-121603152D02*
X164514397Y-122269819D01*
X164514397Y-121698390D02*
X164565350Y-121650771D01*
X164565350Y-121650771D02*
X164667255Y-121603152D01*
X164667255Y-121603152D02*
X164820112Y-121603152D01*
X164820112Y-121603152D02*
X164922016Y-121650771D01*
X164922016Y-121650771D02*
X164972969Y-121746009D01*
X164972969Y-121746009D02*
X164972969Y-122269819D01*
X165941064Y-122222200D02*
X165839159Y-122269819D01*
X165839159Y-122269819D02*
X165635350Y-122269819D01*
X165635350Y-122269819D02*
X165533445Y-122222200D01*
X165533445Y-122222200D02*
X165482492Y-122174580D01*
X165482492Y-122174580D02*
X165431540Y-122079342D01*
X165431540Y-122079342D02*
X165431540Y-121793628D01*
X165431540Y-121793628D02*
X165482492Y-121698390D01*
X165482492Y-121698390D02*
X165533445Y-121650771D01*
X165533445Y-121650771D02*
X165635350Y-121603152D01*
X165635350Y-121603152D02*
X165839159Y-121603152D01*
X165839159Y-121603152D02*
X165941064Y-121650771D01*
X166807254Y-122222200D02*
X166705350Y-122269819D01*
X166705350Y-122269819D02*
X166501540Y-122269819D01*
X166501540Y-122269819D02*
X166399635Y-122222200D01*
X166399635Y-122222200D02*
X166348683Y-122126961D01*
X166348683Y-122126961D02*
X166348683Y-121746009D01*
X166348683Y-121746009D02*
X166399635Y-121650771D01*
X166399635Y-121650771D02*
X166501540Y-121603152D01*
X166501540Y-121603152D02*
X166705350Y-121603152D01*
X166705350Y-121603152D02*
X166807254Y-121650771D01*
X166807254Y-121650771D02*
X166858207Y-121746009D01*
X166858207Y-121746009D02*
X166858207Y-121841247D01*
X166858207Y-121841247D02*
X166348683Y-121936485D01*
X168081064Y-121365057D02*
X168132016Y-121317438D01*
X168132016Y-121317438D02*
X168233921Y-121269819D01*
X168233921Y-121269819D02*
X168488683Y-121269819D01*
X168488683Y-121269819D02*
X168590588Y-121317438D01*
X168590588Y-121317438D02*
X168641540Y-121365057D01*
X168641540Y-121365057D02*
X168692493Y-121460295D01*
X168692493Y-121460295D02*
X168692493Y-121555533D01*
X168692493Y-121555533D02*
X168641540Y-121698390D01*
X168641540Y-121698390D02*
X168030112Y-122269819D01*
X168030112Y-122269819D02*
X168692493Y-122269819D01*
X169354874Y-121269819D02*
X169456779Y-121269819D01*
X169456779Y-121269819D02*
X169558683Y-121317438D01*
X169558683Y-121317438D02*
X169609636Y-121365057D01*
X169609636Y-121365057D02*
X169660588Y-121460295D01*
X169660588Y-121460295D02*
X169711541Y-121650771D01*
X169711541Y-121650771D02*
X169711541Y-121888866D01*
X169711541Y-121888866D02*
X169660588Y-122079342D01*
X169660588Y-122079342D02*
X169609636Y-122174580D01*
X169609636Y-122174580D02*
X169558683Y-122222200D01*
X169558683Y-122222200D02*
X169456779Y-122269819D01*
X169456779Y-122269819D02*
X169354874Y-122269819D01*
X169354874Y-122269819D02*
X169252969Y-122222200D01*
X169252969Y-122222200D02*
X169202017Y-122174580D01*
X169202017Y-122174580D02*
X169151064Y-122079342D01*
X169151064Y-122079342D02*
X169100112Y-121888866D01*
X169100112Y-121888866D02*
X169100112Y-121650771D01*
X169100112Y-121650771D02*
X169151064Y-121460295D01*
X169151064Y-121460295D02*
X169202017Y-121365057D01*
X169202017Y-121365057D02*
X169252969Y-121317438D01*
X169252969Y-121317438D02*
X169354874Y-121269819D01*
X170119160Y-121365057D02*
X170170112Y-121317438D01*
X170170112Y-121317438D02*
X170272017Y-121269819D01*
X170272017Y-121269819D02*
X170526779Y-121269819D01*
X170526779Y-121269819D02*
X170628684Y-121317438D01*
X170628684Y-121317438D02*
X170679636Y-121365057D01*
X170679636Y-121365057D02*
X170730589Y-121460295D01*
X170730589Y-121460295D02*
X170730589Y-121555533D01*
X170730589Y-121555533D02*
X170679636Y-121698390D01*
X170679636Y-121698390D02*
X170068208Y-122269819D01*
X170068208Y-122269819D02*
X170730589Y-122269819D01*
X171647732Y-121603152D02*
X171647732Y-122269819D01*
X171392970Y-121222200D02*
X171138208Y-121936485D01*
X171138208Y-121936485D02*
X171800589Y-121936485D01*
D11*
X139869974Y-119658800D02*
X140301402Y-119801657D01*
X140301402Y-119801657D02*
X141020450Y-119801657D01*
X141020450Y-119801657D02*
X141308069Y-119658800D01*
X141308069Y-119658800D02*
X141451878Y-119515942D01*
X141451878Y-119515942D02*
X141595688Y-119230228D01*
X141595688Y-119230228D02*
X141595688Y-118944514D01*
X141595688Y-118944514D02*
X141451878Y-118658800D01*
X141451878Y-118658800D02*
X141308069Y-118515942D01*
X141308069Y-118515942D02*
X141020450Y-118373085D01*
X141020450Y-118373085D02*
X140445212Y-118230228D01*
X140445212Y-118230228D02*
X140157593Y-118087371D01*
X140157593Y-118087371D02*
X140013783Y-117944514D01*
X140013783Y-117944514D02*
X139869974Y-117658800D01*
X139869974Y-117658800D02*
X139869974Y-117373085D01*
X139869974Y-117373085D02*
X140013783Y-117087371D01*
X140013783Y-117087371D02*
X140157593Y-116944514D01*
X140157593Y-116944514D02*
X140445212Y-116801657D01*
X140445212Y-116801657D02*
X141164259Y-116801657D01*
X141164259Y-116801657D02*
X141595688Y-116944514D01*
X142889973Y-119801657D02*
X142889973Y-117801657D01*
X142889973Y-116801657D02*
X142746164Y-116944514D01*
X142746164Y-116944514D02*
X142889973Y-117087371D01*
X142889973Y-117087371D02*
X143033783Y-116944514D01*
X143033783Y-116944514D02*
X142889973Y-116801657D01*
X142889973Y-116801657D02*
X142889973Y-117087371D01*
X144328068Y-119801657D02*
X144328068Y-116801657D01*
X144328068Y-116801657D02*
X145334735Y-118944514D01*
X145334735Y-118944514D02*
X146341401Y-116801657D01*
X146341401Y-116801657D02*
X146341401Y-119801657D01*
X147779497Y-119801657D02*
X147779497Y-117801657D01*
X147779497Y-116801657D02*
X147635688Y-116944514D01*
X147635688Y-116944514D02*
X147779497Y-117087371D01*
X147779497Y-117087371D02*
X147923307Y-116944514D01*
X147923307Y-116944514D02*
X147779497Y-116801657D01*
X147779497Y-116801657D02*
X147779497Y-117087371D01*
X151374735Y-119658800D02*
X151806163Y-119801657D01*
X151806163Y-119801657D02*
X152525211Y-119801657D01*
X152525211Y-119801657D02*
X152812830Y-119658800D01*
X152812830Y-119658800D02*
X152956639Y-119515942D01*
X152956639Y-119515942D02*
X153100449Y-119230228D01*
X153100449Y-119230228D02*
X153100449Y-118944514D01*
X153100449Y-118944514D02*
X152956639Y-118658800D01*
X152956639Y-118658800D02*
X152812830Y-118515942D01*
X152812830Y-118515942D02*
X152525211Y-118373085D01*
X152525211Y-118373085D02*
X151949973Y-118230228D01*
X151949973Y-118230228D02*
X151662354Y-118087371D01*
X151662354Y-118087371D02*
X151518544Y-117944514D01*
X151518544Y-117944514D02*
X151374735Y-117658800D01*
X151374735Y-117658800D02*
X151374735Y-117373085D01*
X151374735Y-117373085D02*
X151518544Y-117087371D01*
X151518544Y-117087371D02*
X151662354Y-116944514D01*
X151662354Y-116944514D02*
X151949973Y-116801657D01*
X151949973Y-116801657D02*
X152669020Y-116801657D01*
X152669020Y-116801657D02*
X153100449Y-116944514D01*
X154826163Y-119801657D02*
X154538544Y-119658800D01*
X154538544Y-119658800D02*
X154394734Y-119515942D01*
X154394734Y-119515942D02*
X154250925Y-119230228D01*
X154250925Y-119230228D02*
X154250925Y-118373085D01*
X154250925Y-118373085D02*
X154394734Y-118087371D01*
X154394734Y-118087371D02*
X154538544Y-117944514D01*
X154538544Y-117944514D02*
X154826163Y-117801657D01*
X154826163Y-117801657D02*
X155257591Y-117801657D01*
X155257591Y-117801657D02*
X155545210Y-117944514D01*
X155545210Y-117944514D02*
X155689020Y-118087371D01*
X155689020Y-118087371D02*
X155832829Y-118373085D01*
X155832829Y-118373085D02*
X155832829Y-119230228D01*
X155832829Y-119230228D02*
X155689020Y-119515942D01*
X155689020Y-119515942D02*
X155545210Y-119658800D01*
X155545210Y-119658800D02*
X155257591Y-119801657D01*
X155257591Y-119801657D02*
X154826163Y-119801657D01*
X157558544Y-119801657D02*
X157270925Y-119658800D01*
X157270925Y-119658800D02*
X157127115Y-119373085D01*
X157127115Y-119373085D02*
X157127115Y-116801657D01*
X160003306Y-117801657D02*
X160003306Y-119801657D01*
X158709020Y-117801657D02*
X158709020Y-119373085D01*
X158709020Y-119373085D02*
X158852830Y-119658800D01*
X158852830Y-119658800D02*
X159140449Y-119801657D01*
X159140449Y-119801657D02*
X159571877Y-119801657D01*
X159571877Y-119801657D02*
X159859496Y-119658800D01*
X159859496Y-119658800D02*
X160003306Y-119515942D01*
X161009973Y-117801657D02*
X162160449Y-117801657D01*
X161441401Y-116801657D02*
X161441401Y-119373085D01*
X161441401Y-119373085D02*
X161585211Y-119658800D01*
X161585211Y-119658800D02*
X161872830Y-119801657D01*
X161872830Y-119801657D02*
X162160449Y-119801657D01*
X163167115Y-119801657D02*
X163167115Y-117801657D01*
X163167115Y-116801657D02*
X163023306Y-116944514D01*
X163023306Y-116944514D02*
X163167115Y-117087371D01*
X163167115Y-117087371D02*
X163310925Y-116944514D01*
X163310925Y-116944514D02*
X163167115Y-116801657D01*
X163167115Y-116801657D02*
X163167115Y-117087371D01*
X165036639Y-119801657D02*
X164749020Y-119658800D01*
X164749020Y-119658800D02*
X164605210Y-119515942D01*
X164605210Y-119515942D02*
X164461401Y-119230228D01*
X164461401Y-119230228D02*
X164461401Y-118373085D01*
X164461401Y-118373085D02*
X164605210Y-118087371D01*
X164605210Y-118087371D02*
X164749020Y-117944514D01*
X164749020Y-117944514D02*
X165036639Y-117801657D01*
X165036639Y-117801657D02*
X165468067Y-117801657D01*
X165468067Y-117801657D02*
X165755686Y-117944514D01*
X165755686Y-117944514D02*
X165899496Y-118087371D01*
X165899496Y-118087371D02*
X166043305Y-118373085D01*
X166043305Y-118373085D02*
X166043305Y-119230228D01*
X166043305Y-119230228D02*
X165899496Y-119515942D01*
X165899496Y-119515942D02*
X165755686Y-119658800D01*
X165755686Y-119658800D02*
X165468067Y-119801657D01*
X165468067Y-119801657D02*
X165036639Y-119801657D01*
X167337591Y-117801657D02*
X167337591Y-119801657D01*
X167337591Y-118087371D02*
X167481401Y-117944514D01*
X167481401Y-117944514D02*
X167769020Y-117801657D01*
X167769020Y-117801657D02*
X168200448Y-117801657D01*
X168200448Y-117801657D02*
X168488067Y-117944514D01*
X168488067Y-117944514D02*
X168631877Y-118230228D01*
X168631877Y-118230228D02*
X168631877Y-119801657D01*
X169926163Y-119658800D02*
X170213782Y-119801657D01*
X170213782Y-119801657D02*
X170789020Y-119801657D01*
X170789020Y-119801657D02*
X171076639Y-119658800D01*
X171076639Y-119658800D02*
X171220448Y-119373085D01*
X171220448Y-119373085D02*
X171220448Y-119230228D01*
X171220448Y-119230228D02*
X171076639Y-118944514D01*
X171076639Y-118944514D02*
X170789020Y-118801657D01*
X170789020Y-118801657D02*
X170357591Y-118801657D01*
X170357591Y-118801657D02*
X170069972Y-118658800D01*
X170069972Y-118658800D02*
X169926163Y-118373085D01*
X169926163Y-118373085D02*
X169926163Y-118230228D01*
X169926163Y-118230228D02*
X170069972Y-117944514D01*
X170069972Y-117944514D02*
X170357591Y-117801657D01*
X170357591Y-117801657D02*
X170789020Y-117801657D01*
X170789020Y-117801657D02*
X171076639Y-117944514D01*
D10*
X172436779Y-83369819D02*
X172436779Y-82369819D01*
X172436779Y-82369819D02*
X172770112Y-83084104D01*
X172770112Y-83084104D02*
X173103445Y-82369819D01*
X173103445Y-82369819D02*
X173103445Y-83369819D01*
X173722493Y-83369819D02*
X173627255Y-83322200D01*
X173627255Y-83322200D02*
X173579636Y-83274580D01*
X173579636Y-83274580D02*
X173532017Y-83179342D01*
X173532017Y-83179342D02*
X173532017Y-82893628D01*
X173532017Y-82893628D02*
X173579636Y-82798390D01*
X173579636Y-82798390D02*
X173627255Y-82750771D01*
X173627255Y-82750771D02*
X173722493Y-82703152D01*
X173722493Y-82703152D02*
X173865350Y-82703152D01*
X173865350Y-82703152D02*
X173960588Y-82750771D01*
X173960588Y-82750771D02*
X174008207Y-82798390D01*
X174008207Y-82798390D02*
X174055826Y-82893628D01*
X174055826Y-82893628D02*
X174055826Y-83179342D01*
X174055826Y-83179342D02*
X174008207Y-83274580D01*
X174008207Y-83274580D02*
X173960588Y-83322200D01*
X173960588Y-83322200D02*
X173865350Y-83369819D01*
X173865350Y-83369819D02*
X173722493Y-83369819D01*
X174484398Y-83369819D02*
X174484398Y-82703152D01*
X174484398Y-82369819D02*
X174436779Y-82417438D01*
X174436779Y-82417438D02*
X174484398Y-82465057D01*
X174484398Y-82465057D02*
X174532017Y-82417438D01*
X174532017Y-82417438D02*
X174484398Y-82369819D01*
X174484398Y-82369819D02*
X174484398Y-82465057D01*
X174912969Y-83322200D02*
X175008207Y-83369819D01*
X175008207Y-83369819D02*
X175198683Y-83369819D01*
X175198683Y-83369819D02*
X175293921Y-83322200D01*
X175293921Y-83322200D02*
X175341540Y-83226961D01*
X175341540Y-83226961D02*
X175341540Y-83179342D01*
X175341540Y-83179342D02*
X175293921Y-83084104D01*
X175293921Y-83084104D02*
X175198683Y-83036485D01*
X175198683Y-83036485D02*
X175055826Y-83036485D01*
X175055826Y-83036485D02*
X174960588Y-82988866D01*
X174960588Y-82988866D02*
X174912969Y-82893628D01*
X174912969Y-82893628D02*
X174912969Y-82846009D01*
X174912969Y-82846009D02*
X174960588Y-82750771D01*
X174960588Y-82750771D02*
X175055826Y-82703152D01*
X175055826Y-82703152D02*
X175198683Y-82703152D01*
X175198683Y-82703152D02*
X175293921Y-82750771D01*
X175627255Y-82703152D02*
X176008207Y-82703152D01*
X175770112Y-82369819D02*
X175770112Y-83226961D01*
X175770112Y-83226961D02*
X175817731Y-83322200D01*
X175817731Y-83322200D02*
X175912969Y-83369819D01*
X175912969Y-83369819D02*
X176008207Y-83369819D01*
X176817731Y-82369819D02*
X176341541Y-82369819D01*
X176341541Y-82369819D02*
X176293922Y-82846009D01*
X176293922Y-82846009D02*
X176341541Y-82798390D01*
X176341541Y-82798390D02*
X176436779Y-82750771D01*
X176436779Y-82750771D02*
X176674874Y-82750771D01*
X176674874Y-82750771D02*
X176770112Y-82798390D01*
X176770112Y-82798390D02*
X176817731Y-82846009D01*
X176817731Y-82846009D02*
X176865350Y-82941247D01*
X176865350Y-82941247D02*
X176865350Y-83179342D01*
X176865350Y-83179342D02*
X176817731Y-83274580D01*
X176817731Y-83274580D02*
X176770112Y-83322200D01*
X176770112Y-83322200D02*
X176674874Y-83369819D01*
X176674874Y-83369819D02*
X176436779Y-83369819D01*
X176436779Y-83369819D02*
X176341541Y-83322200D01*
X176341541Y-83322200D02*
X176293922Y-83274580D01*
X182736779Y-51269819D02*
X182736779Y-50269819D01*
X182736779Y-50269819D02*
X183117731Y-50269819D01*
X183117731Y-50269819D02*
X183212969Y-50317438D01*
X183212969Y-50317438D02*
X183260588Y-50365057D01*
X183260588Y-50365057D02*
X183308207Y-50460295D01*
X183308207Y-50460295D02*
X183308207Y-50603152D01*
X183308207Y-50603152D02*
X183260588Y-50698390D01*
X183260588Y-50698390D02*
X183212969Y-50746009D01*
X183212969Y-50746009D02*
X183117731Y-50793628D01*
X183117731Y-50793628D02*
X182736779Y-50793628D01*
X183879636Y-51269819D02*
X183784398Y-51222200D01*
X183784398Y-51222200D02*
X183736779Y-51174580D01*
X183736779Y-51174580D02*
X183689160Y-51079342D01*
X183689160Y-51079342D02*
X183689160Y-50793628D01*
X183689160Y-50793628D02*
X183736779Y-50698390D01*
X183736779Y-50698390D02*
X183784398Y-50650771D01*
X183784398Y-50650771D02*
X183879636Y-50603152D01*
X183879636Y-50603152D02*
X184022493Y-50603152D01*
X184022493Y-50603152D02*
X184117731Y-50650771D01*
X184117731Y-50650771D02*
X184165350Y-50698390D01*
X184165350Y-50698390D02*
X184212969Y-50793628D01*
X184212969Y-50793628D02*
X184212969Y-51079342D01*
X184212969Y-51079342D02*
X184165350Y-51174580D01*
X184165350Y-51174580D02*
X184117731Y-51222200D01*
X184117731Y-51222200D02*
X184022493Y-51269819D01*
X184022493Y-51269819D02*
X183879636Y-51269819D01*
X184546303Y-50603152D02*
X184736779Y-51269819D01*
X184736779Y-51269819D02*
X184927255Y-50793628D01*
X184927255Y-50793628D02*
X185117731Y-51269819D01*
X185117731Y-51269819D02*
X185308207Y-50603152D01*
X186070112Y-51222200D02*
X185974874Y-51269819D01*
X185974874Y-51269819D02*
X185784398Y-51269819D01*
X185784398Y-51269819D02*
X185689160Y-51222200D01*
X185689160Y-51222200D02*
X185641541Y-51126961D01*
X185641541Y-51126961D02*
X185641541Y-50746009D01*
X185641541Y-50746009D02*
X185689160Y-50650771D01*
X185689160Y-50650771D02*
X185784398Y-50603152D01*
X185784398Y-50603152D02*
X185974874Y-50603152D01*
X185974874Y-50603152D02*
X186070112Y-50650771D01*
X186070112Y-50650771D02*
X186117731Y-50746009D01*
X186117731Y-50746009D02*
X186117731Y-50841247D01*
X186117731Y-50841247D02*
X185641541Y-50936485D01*
X186546303Y-51269819D02*
X186546303Y-50603152D01*
X186546303Y-50793628D02*
X186593922Y-50698390D01*
X186593922Y-50698390D02*
X186641541Y-50650771D01*
X186641541Y-50650771D02*
X186736779Y-50603152D01*
X186736779Y-50603152D02*
X186832017Y-50603152D01*
X73976779Y-65269819D02*
X73976779Y-64269819D01*
X73976779Y-64269819D02*
X74357731Y-64269819D01*
X74357731Y-64269819D02*
X74452969Y-64317438D01*
X74452969Y-64317438D02*
X74500588Y-64365057D01*
X74500588Y-64365057D02*
X74548207Y-64460295D01*
X74548207Y-64460295D02*
X74548207Y-64603152D01*
X74548207Y-64603152D02*
X74500588Y-64698390D01*
X74500588Y-64698390D02*
X74452969Y-64746009D01*
X74452969Y-64746009D02*
X74357731Y-64793628D01*
X74357731Y-64793628D02*
X73976779Y-64793628D01*
X75405350Y-64603152D02*
X75405350Y-65269819D01*
X74976779Y-64603152D02*
X74976779Y-65126961D01*
X74976779Y-65126961D02*
X75024398Y-65222200D01*
X75024398Y-65222200D02*
X75119636Y-65269819D01*
X75119636Y-65269819D02*
X75262493Y-65269819D01*
X75262493Y-65269819D02*
X75357731Y-65222200D01*
X75357731Y-65222200D02*
X75405350Y-65174580D01*
X75881541Y-65269819D02*
X75881541Y-64603152D01*
X75881541Y-64698390D02*
X75929160Y-64650771D01*
X75929160Y-64650771D02*
X76024398Y-64603152D01*
X76024398Y-64603152D02*
X76167255Y-64603152D01*
X76167255Y-64603152D02*
X76262493Y-64650771D01*
X76262493Y-64650771D02*
X76310112Y-64746009D01*
X76310112Y-64746009D02*
X76310112Y-65269819D01*
X76310112Y-64746009D02*
X76357731Y-64650771D01*
X76357731Y-64650771D02*
X76452969Y-64603152D01*
X76452969Y-64603152D02*
X76595826Y-64603152D01*
X76595826Y-64603152D02*
X76691065Y-64650771D01*
X76691065Y-64650771D02*
X76738684Y-64746009D01*
X76738684Y-64746009D02*
X76738684Y-65269819D01*
X77214874Y-64603152D02*
X77214874Y-65603152D01*
X77214874Y-64650771D02*
X77310112Y-64603152D01*
X77310112Y-64603152D02*
X77500588Y-64603152D01*
X77500588Y-64603152D02*
X77595826Y-64650771D01*
X77595826Y-64650771D02*
X77643445Y-64698390D01*
X77643445Y-64698390D02*
X77691064Y-64793628D01*
X77691064Y-64793628D02*
X77691064Y-65079342D01*
X77691064Y-65079342D02*
X77643445Y-65174580D01*
X77643445Y-65174580D02*
X77595826Y-65222200D01*
X77595826Y-65222200D02*
X77500588Y-65269819D01*
X77500588Y-65269819D02*
X77310112Y-65269819D01*
X77310112Y-65269819D02*
X77214874Y-65222200D01*
X78072017Y-64365057D02*
X78119636Y-64317438D01*
X78119636Y-64317438D02*
X78214874Y-64269819D01*
X78214874Y-64269819D02*
X78452969Y-64269819D01*
X78452969Y-64269819D02*
X78548207Y-64317438D01*
X78548207Y-64317438D02*
X78595826Y-64365057D01*
X78595826Y-64365057D02*
X78643445Y-64460295D01*
X78643445Y-64460295D02*
X78643445Y-64555533D01*
X78643445Y-64555533D02*
X78595826Y-64698390D01*
X78595826Y-64698390D02*
X78024398Y-65269819D01*
X78024398Y-65269819D02*
X78643445Y-65269819D01*
X74236779Y-108369819D02*
X74236779Y-107369819D01*
X74236779Y-107369819D02*
X74617731Y-107369819D01*
X74617731Y-107369819D02*
X74712969Y-107417438D01*
X74712969Y-107417438D02*
X74760588Y-107465057D01*
X74760588Y-107465057D02*
X74808207Y-107560295D01*
X74808207Y-107560295D02*
X74808207Y-107703152D01*
X74808207Y-107703152D02*
X74760588Y-107798390D01*
X74760588Y-107798390D02*
X74712969Y-107846009D01*
X74712969Y-107846009D02*
X74617731Y-107893628D01*
X74617731Y-107893628D02*
X74236779Y-107893628D01*
X75665350Y-107703152D02*
X75665350Y-108369819D01*
X75236779Y-107703152D02*
X75236779Y-108226961D01*
X75236779Y-108226961D02*
X75284398Y-108322200D01*
X75284398Y-108322200D02*
X75379636Y-108369819D01*
X75379636Y-108369819D02*
X75522493Y-108369819D01*
X75522493Y-108369819D02*
X75617731Y-108322200D01*
X75617731Y-108322200D02*
X75665350Y-108274580D01*
X76141541Y-108369819D02*
X76141541Y-107703152D01*
X76141541Y-107798390D02*
X76189160Y-107750771D01*
X76189160Y-107750771D02*
X76284398Y-107703152D01*
X76284398Y-107703152D02*
X76427255Y-107703152D01*
X76427255Y-107703152D02*
X76522493Y-107750771D01*
X76522493Y-107750771D02*
X76570112Y-107846009D01*
X76570112Y-107846009D02*
X76570112Y-108369819D01*
X76570112Y-107846009D02*
X76617731Y-107750771D01*
X76617731Y-107750771D02*
X76712969Y-107703152D01*
X76712969Y-107703152D02*
X76855826Y-107703152D01*
X76855826Y-107703152D02*
X76951065Y-107750771D01*
X76951065Y-107750771D02*
X76998684Y-107846009D01*
X76998684Y-107846009D02*
X76998684Y-108369819D01*
X77474874Y-107703152D02*
X77474874Y-108703152D01*
X77474874Y-107750771D02*
X77570112Y-107703152D01*
X77570112Y-107703152D02*
X77760588Y-107703152D01*
X77760588Y-107703152D02*
X77855826Y-107750771D01*
X77855826Y-107750771D02*
X77903445Y-107798390D01*
X77903445Y-107798390D02*
X77951064Y-107893628D01*
X77951064Y-107893628D02*
X77951064Y-108179342D01*
X77951064Y-108179342D02*
X77903445Y-108274580D01*
X77903445Y-108274580D02*
X77855826Y-108322200D01*
X77855826Y-108322200D02*
X77760588Y-108369819D01*
X77760588Y-108369819D02*
X77570112Y-108369819D01*
X77570112Y-108369819D02*
X77474874Y-108322200D01*
X78855826Y-107369819D02*
X78379636Y-107369819D01*
X78379636Y-107369819D02*
X78332017Y-107846009D01*
X78332017Y-107846009D02*
X78379636Y-107798390D01*
X78379636Y-107798390D02*
X78474874Y-107750771D01*
X78474874Y-107750771D02*
X78712969Y-107750771D01*
X78712969Y-107750771D02*
X78808207Y-107798390D01*
X78808207Y-107798390D02*
X78855826Y-107846009D01*
X78855826Y-107846009D02*
X78903445Y-107941247D01*
X78903445Y-107941247D02*
X78903445Y-108179342D01*
X78903445Y-108179342D02*
X78855826Y-108274580D01*
X78855826Y-108274580D02*
X78808207Y-108322200D01*
X78808207Y-108322200D02*
X78712969Y-108369819D01*
X78712969Y-108369819D02*
X78474874Y-108369819D01*
X78474874Y-108369819D02*
X78379636Y-108322200D01*
X78379636Y-108322200D02*
X78332017Y-108274580D01*
X74236779Y-79269819D02*
X74236779Y-78269819D01*
X74236779Y-78269819D02*
X74617731Y-78269819D01*
X74617731Y-78269819D02*
X74712969Y-78317438D01*
X74712969Y-78317438D02*
X74760588Y-78365057D01*
X74760588Y-78365057D02*
X74808207Y-78460295D01*
X74808207Y-78460295D02*
X74808207Y-78603152D01*
X74808207Y-78603152D02*
X74760588Y-78698390D01*
X74760588Y-78698390D02*
X74712969Y-78746009D01*
X74712969Y-78746009D02*
X74617731Y-78793628D01*
X74617731Y-78793628D02*
X74236779Y-78793628D01*
X75665350Y-78603152D02*
X75665350Y-79269819D01*
X75236779Y-78603152D02*
X75236779Y-79126961D01*
X75236779Y-79126961D02*
X75284398Y-79222200D01*
X75284398Y-79222200D02*
X75379636Y-79269819D01*
X75379636Y-79269819D02*
X75522493Y-79269819D01*
X75522493Y-79269819D02*
X75617731Y-79222200D01*
X75617731Y-79222200D02*
X75665350Y-79174580D01*
X76141541Y-79269819D02*
X76141541Y-78603152D01*
X76141541Y-78698390D02*
X76189160Y-78650771D01*
X76189160Y-78650771D02*
X76284398Y-78603152D01*
X76284398Y-78603152D02*
X76427255Y-78603152D01*
X76427255Y-78603152D02*
X76522493Y-78650771D01*
X76522493Y-78650771D02*
X76570112Y-78746009D01*
X76570112Y-78746009D02*
X76570112Y-79269819D01*
X76570112Y-78746009D02*
X76617731Y-78650771D01*
X76617731Y-78650771D02*
X76712969Y-78603152D01*
X76712969Y-78603152D02*
X76855826Y-78603152D01*
X76855826Y-78603152D02*
X76951065Y-78650771D01*
X76951065Y-78650771D02*
X76998684Y-78746009D01*
X76998684Y-78746009D02*
X76998684Y-79269819D01*
X77474874Y-78603152D02*
X77474874Y-79603152D01*
X77474874Y-78650771D02*
X77570112Y-78603152D01*
X77570112Y-78603152D02*
X77760588Y-78603152D01*
X77760588Y-78603152D02*
X77855826Y-78650771D01*
X77855826Y-78650771D02*
X77903445Y-78698390D01*
X77903445Y-78698390D02*
X77951064Y-78793628D01*
X77951064Y-78793628D02*
X77951064Y-79079342D01*
X77951064Y-79079342D02*
X77903445Y-79174580D01*
X77903445Y-79174580D02*
X77855826Y-79222200D01*
X77855826Y-79222200D02*
X77760588Y-79269819D01*
X77760588Y-79269819D02*
X77570112Y-79269819D01*
X77570112Y-79269819D02*
X77474874Y-79222200D01*
X78284398Y-78269819D02*
X78903445Y-78269819D01*
X78903445Y-78269819D02*
X78570112Y-78650771D01*
X78570112Y-78650771D02*
X78712969Y-78650771D01*
X78712969Y-78650771D02*
X78808207Y-78698390D01*
X78808207Y-78698390D02*
X78855826Y-78746009D01*
X78855826Y-78746009D02*
X78903445Y-78841247D01*
X78903445Y-78841247D02*
X78903445Y-79079342D01*
X78903445Y-79079342D02*
X78855826Y-79174580D01*
X78855826Y-79174580D02*
X78808207Y-79222200D01*
X78808207Y-79222200D02*
X78712969Y-79269819D01*
X78712969Y-79269819D02*
X78427255Y-79269819D01*
X78427255Y-79269819D02*
X78332017Y-79222200D01*
X78332017Y-79222200D02*
X78284398Y-79174580D01*
X74036779Y-93669819D02*
X74036779Y-92669819D01*
X74036779Y-92669819D02*
X74417731Y-92669819D01*
X74417731Y-92669819D02*
X74512969Y-92717438D01*
X74512969Y-92717438D02*
X74560588Y-92765057D01*
X74560588Y-92765057D02*
X74608207Y-92860295D01*
X74608207Y-92860295D02*
X74608207Y-93003152D01*
X74608207Y-93003152D02*
X74560588Y-93098390D01*
X74560588Y-93098390D02*
X74512969Y-93146009D01*
X74512969Y-93146009D02*
X74417731Y-93193628D01*
X74417731Y-93193628D02*
X74036779Y-93193628D01*
X75465350Y-93003152D02*
X75465350Y-93669819D01*
X75036779Y-93003152D02*
X75036779Y-93526961D01*
X75036779Y-93526961D02*
X75084398Y-93622200D01*
X75084398Y-93622200D02*
X75179636Y-93669819D01*
X75179636Y-93669819D02*
X75322493Y-93669819D01*
X75322493Y-93669819D02*
X75417731Y-93622200D01*
X75417731Y-93622200D02*
X75465350Y-93574580D01*
X75941541Y-93669819D02*
X75941541Y-93003152D01*
X75941541Y-93098390D02*
X75989160Y-93050771D01*
X75989160Y-93050771D02*
X76084398Y-93003152D01*
X76084398Y-93003152D02*
X76227255Y-93003152D01*
X76227255Y-93003152D02*
X76322493Y-93050771D01*
X76322493Y-93050771D02*
X76370112Y-93146009D01*
X76370112Y-93146009D02*
X76370112Y-93669819D01*
X76370112Y-93146009D02*
X76417731Y-93050771D01*
X76417731Y-93050771D02*
X76512969Y-93003152D01*
X76512969Y-93003152D02*
X76655826Y-93003152D01*
X76655826Y-93003152D02*
X76751065Y-93050771D01*
X76751065Y-93050771D02*
X76798684Y-93146009D01*
X76798684Y-93146009D02*
X76798684Y-93669819D01*
X77274874Y-93003152D02*
X77274874Y-94003152D01*
X77274874Y-93050771D02*
X77370112Y-93003152D01*
X77370112Y-93003152D02*
X77560588Y-93003152D01*
X77560588Y-93003152D02*
X77655826Y-93050771D01*
X77655826Y-93050771D02*
X77703445Y-93098390D01*
X77703445Y-93098390D02*
X77751064Y-93193628D01*
X77751064Y-93193628D02*
X77751064Y-93479342D01*
X77751064Y-93479342D02*
X77703445Y-93574580D01*
X77703445Y-93574580D02*
X77655826Y-93622200D01*
X77655826Y-93622200D02*
X77560588Y-93669819D01*
X77560588Y-93669819D02*
X77370112Y-93669819D01*
X77370112Y-93669819D02*
X77274874Y-93622200D01*
X78608207Y-93003152D02*
X78608207Y-93669819D01*
X78370112Y-92622200D02*
X78132017Y-93336485D01*
X78132017Y-93336485D02*
X78751064Y-93336485D01*
X74136779Y-51369819D02*
X74136779Y-50369819D01*
X74136779Y-50369819D02*
X74517731Y-50369819D01*
X74517731Y-50369819D02*
X74612969Y-50417438D01*
X74612969Y-50417438D02*
X74660588Y-50465057D01*
X74660588Y-50465057D02*
X74708207Y-50560295D01*
X74708207Y-50560295D02*
X74708207Y-50703152D01*
X74708207Y-50703152D02*
X74660588Y-50798390D01*
X74660588Y-50798390D02*
X74612969Y-50846009D01*
X74612969Y-50846009D02*
X74517731Y-50893628D01*
X74517731Y-50893628D02*
X74136779Y-50893628D01*
X75565350Y-50703152D02*
X75565350Y-51369819D01*
X75136779Y-50703152D02*
X75136779Y-51226961D01*
X75136779Y-51226961D02*
X75184398Y-51322200D01*
X75184398Y-51322200D02*
X75279636Y-51369819D01*
X75279636Y-51369819D02*
X75422493Y-51369819D01*
X75422493Y-51369819D02*
X75517731Y-51322200D01*
X75517731Y-51322200D02*
X75565350Y-51274580D01*
X76041541Y-51369819D02*
X76041541Y-50703152D01*
X76041541Y-50798390D02*
X76089160Y-50750771D01*
X76089160Y-50750771D02*
X76184398Y-50703152D01*
X76184398Y-50703152D02*
X76327255Y-50703152D01*
X76327255Y-50703152D02*
X76422493Y-50750771D01*
X76422493Y-50750771D02*
X76470112Y-50846009D01*
X76470112Y-50846009D02*
X76470112Y-51369819D01*
X76470112Y-50846009D02*
X76517731Y-50750771D01*
X76517731Y-50750771D02*
X76612969Y-50703152D01*
X76612969Y-50703152D02*
X76755826Y-50703152D01*
X76755826Y-50703152D02*
X76851065Y-50750771D01*
X76851065Y-50750771D02*
X76898684Y-50846009D01*
X76898684Y-50846009D02*
X76898684Y-51369819D01*
X77374874Y-50703152D02*
X77374874Y-51703152D01*
X77374874Y-50750771D02*
X77470112Y-50703152D01*
X77470112Y-50703152D02*
X77660588Y-50703152D01*
X77660588Y-50703152D02*
X77755826Y-50750771D01*
X77755826Y-50750771D02*
X77803445Y-50798390D01*
X77803445Y-50798390D02*
X77851064Y-50893628D01*
X77851064Y-50893628D02*
X77851064Y-51179342D01*
X77851064Y-51179342D02*
X77803445Y-51274580D01*
X77803445Y-51274580D02*
X77755826Y-51322200D01*
X77755826Y-51322200D02*
X77660588Y-51369819D01*
X77660588Y-51369819D02*
X77470112Y-51369819D01*
X77470112Y-51369819D02*
X77374874Y-51322200D01*
X78803445Y-51369819D02*
X78232017Y-51369819D01*
X78517731Y-51369819D02*
X78517731Y-50369819D01*
X78517731Y-50369819D02*
X78422493Y-50512676D01*
X78422493Y-50512676D02*
X78327255Y-50607914D01*
X78327255Y-50607914D02*
X78232017Y-50655533D01*
X86650057Y-95675238D02*
X86602438Y-95770476D01*
X86602438Y-95770476D02*
X86507200Y-95865714D01*
X86507200Y-95865714D02*
X86364342Y-96008571D01*
X86364342Y-96008571D02*
X86316723Y-96103809D01*
X86316723Y-96103809D02*
X86316723Y-96199047D01*
X86554819Y-96151428D02*
X86507200Y-96246666D01*
X86507200Y-96246666D02*
X86411961Y-96341904D01*
X86411961Y-96341904D02*
X86221485Y-96389523D01*
X86221485Y-96389523D02*
X85888152Y-96389523D01*
X85888152Y-96389523D02*
X85697676Y-96341904D01*
X85697676Y-96341904D02*
X85602438Y-96246666D01*
X85602438Y-96246666D02*
X85554819Y-96151428D01*
X85554819Y-96151428D02*
X85554819Y-95960952D01*
X85554819Y-95960952D02*
X85602438Y-95865714D01*
X85602438Y-95865714D02*
X85697676Y-95770476D01*
X85697676Y-95770476D02*
X85888152Y-95722857D01*
X85888152Y-95722857D02*
X86221485Y-95722857D01*
X86221485Y-95722857D02*
X86411961Y-95770476D01*
X86411961Y-95770476D02*
X86507200Y-95865714D01*
X86507200Y-95865714D02*
X86554819Y-95960952D01*
X86554819Y-95960952D02*
X86554819Y-96151428D01*
X85554819Y-94865714D02*
X85554819Y-95056190D01*
X85554819Y-95056190D02*
X85602438Y-95151428D01*
X85602438Y-95151428D02*
X85650057Y-95199047D01*
X85650057Y-95199047D02*
X85792914Y-95294285D01*
X85792914Y-95294285D02*
X85983390Y-95341904D01*
X85983390Y-95341904D02*
X86364342Y-95341904D01*
X86364342Y-95341904D02*
X86459580Y-95294285D01*
X86459580Y-95294285D02*
X86507200Y-95246666D01*
X86507200Y-95246666D02*
X86554819Y-95151428D01*
X86554819Y-95151428D02*
X86554819Y-94960952D01*
X86554819Y-94960952D02*
X86507200Y-94865714D01*
X86507200Y-94865714D02*
X86459580Y-94818095D01*
X86459580Y-94818095D02*
X86364342Y-94770476D01*
X86364342Y-94770476D02*
X86126247Y-94770476D01*
X86126247Y-94770476D02*
X86031009Y-94818095D01*
X86031009Y-94818095D02*
X85983390Y-94865714D01*
X85983390Y-94865714D02*
X85935771Y-94960952D01*
X85935771Y-94960952D02*
X85935771Y-95151428D01*
X85935771Y-95151428D02*
X85983390Y-95246666D01*
X85983390Y-95246666D02*
X86031009Y-95294285D01*
X86031009Y-95294285D02*
X86126247Y-95341904D01*
X145857142Y-80954819D02*
X145523809Y-80478628D01*
X145285714Y-80954819D02*
X145285714Y-79954819D01*
X145285714Y-79954819D02*
X145666666Y-79954819D01*
X145666666Y-79954819D02*
X145761904Y-80002438D01*
X145761904Y-80002438D02*
X145809523Y-80050057D01*
X145809523Y-80050057D02*
X145857142Y-80145295D01*
X145857142Y-80145295D02*
X145857142Y-80288152D01*
X145857142Y-80288152D02*
X145809523Y-80383390D01*
X145809523Y-80383390D02*
X145761904Y-80431009D01*
X145761904Y-80431009D02*
X145666666Y-80478628D01*
X145666666Y-80478628D02*
X145285714Y-80478628D01*
X146809523Y-80954819D02*
X146238095Y-80954819D01*
X146523809Y-80954819D02*
X146523809Y-79954819D01*
X146523809Y-79954819D02*
X146428571Y-80097676D01*
X146428571Y-80097676D02*
X146333333Y-80192914D01*
X146333333Y-80192914D02*
X146238095Y-80240533D01*
X147666666Y-79954819D02*
X147476190Y-79954819D01*
X147476190Y-79954819D02*
X147380952Y-80002438D01*
X147380952Y-80002438D02*
X147333333Y-80050057D01*
X147333333Y-80050057D02*
X147238095Y-80192914D01*
X147238095Y-80192914D02*
X147190476Y-80383390D01*
X147190476Y-80383390D02*
X147190476Y-80764342D01*
X147190476Y-80764342D02*
X147238095Y-80859580D01*
X147238095Y-80859580D02*
X147285714Y-80907200D01*
X147285714Y-80907200D02*
X147380952Y-80954819D01*
X147380952Y-80954819D02*
X147571428Y-80954819D01*
X147571428Y-80954819D02*
X147666666Y-80907200D01*
X147666666Y-80907200D02*
X147714285Y-80859580D01*
X147714285Y-80859580D02*
X147761904Y-80764342D01*
X147761904Y-80764342D02*
X147761904Y-80526247D01*
X147761904Y-80526247D02*
X147714285Y-80431009D01*
X147714285Y-80431009D02*
X147666666Y-80383390D01*
X147666666Y-80383390D02*
X147571428Y-80335771D01*
X147571428Y-80335771D02*
X147380952Y-80335771D01*
X147380952Y-80335771D02*
X147285714Y-80383390D01*
X147285714Y-80383390D02*
X147238095Y-80431009D01*
X147238095Y-80431009D02*
X147190476Y-80526247D01*
X70181905Y-68524819D02*
X70181905Y-67524819D01*
X70181905Y-67524819D02*
X70420000Y-67524819D01*
X70420000Y-67524819D02*
X70562857Y-67572438D01*
X70562857Y-67572438D02*
X70658095Y-67667676D01*
X70658095Y-67667676D02*
X70705714Y-67762914D01*
X70705714Y-67762914D02*
X70753333Y-67953390D01*
X70753333Y-67953390D02*
X70753333Y-68096247D01*
X70753333Y-68096247D02*
X70705714Y-68286723D01*
X70705714Y-68286723D02*
X70658095Y-68381961D01*
X70658095Y-68381961D02*
X70562857Y-68477200D01*
X70562857Y-68477200D02*
X70420000Y-68524819D01*
X70420000Y-68524819D02*
X70181905Y-68524819D01*
X71134286Y-67620057D02*
X71181905Y-67572438D01*
X71181905Y-67572438D02*
X71277143Y-67524819D01*
X71277143Y-67524819D02*
X71515238Y-67524819D01*
X71515238Y-67524819D02*
X71610476Y-67572438D01*
X71610476Y-67572438D02*
X71658095Y-67620057D01*
X71658095Y-67620057D02*
X71705714Y-67715295D01*
X71705714Y-67715295D02*
X71705714Y-67810533D01*
X71705714Y-67810533D02*
X71658095Y-67953390D01*
X71658095Y-67953390D02*
X71086667Y-68524819D01*
X71086667Y-68524819D02*
X71705714Y-68524819D01*
X65578095Y-68894819D02*
X65578095Y-67894819D01*
X66149523Y-68894819D02*
X65720952Y-68323390D01*
X66149523Y-67894819D02*
X65578095Y-68466247D01*
X162007142Y-102234819D02*
X161673809Y-101758628D01*
X161435714Y-102234819D02*
X161435714Y-101234819D01*
X161435714Y-101234819D02*
X161816666Y-101234819D01*
X161816666Y-101234819D02*
X161911904Y-101282438D01*
X161911904Y-101282438D02*
X161959523Y-101330057D01*
X161959523Y-101330057D02*
X162007142Y-101425295D01*
X162007142Y-101425295D02*
X162007142Y-101568152D01*
X162007142Y-101568152D02*
X161959523Y-101663390D01*
X161959523Y-101663390D02*
X161911904Y-101711009D01*
X161911904Y-101711009D02*
X161816666Y-101758628D01*
X161816666Y-101758628D02*
X161435714Y-101758628D01*
X162959523Y-102234819D02*
X162388095Y-102234819D01*
X162673809Y-102234819D02*
X162673809Y-101234819D01*
X162673809Y-101234819D02*
X162578571Y-101377676D01*
X162578571Y-101377676D02*
X162483333Y-101472914D01*
X162483333Y-101472914D02*
X162388095Y-101520533D01*
X163435714Y-102234819D02*
X163626190Y-102234819D01*
X163626190Y-102234819D02*
X163721428Y-102187200D01*
X163721428Y-102187200D02*
X163769047Y-102139580D01*
X163769047Y-102139580D02*
X163864285Y-101996723D01*
X163864285Y-101996723D02*
X163911904Y-101806247D01*
X163911904Y-101806247D02*
X163911904Y-101425295D01*
X163911904Y-101425295D02*
X163864285Y-101330057D01*
X163864285Y-101330057D02*
X163816666Y-101282438D01*
X163816666Y-101282438D02*
X163721428Y-101234819D01*
X163721428Y-101234819D02*
X163530952Y-101234819D01*
X163530952Y-101234819D02*
X163435714Y-101282438D01*
X163435714Y-101282438D02*
X163388095Y-101330057D01*
X163388095Y-101330057D02*
X163340476Y-101425295D01*
X163340476Y-101425295D02*
X163340476Y-101663390D01*
X163340476Y-101663390D02*
X163388095Y-101758628D01*
X163388095Y-101758628D02*
X163435714Y-101806247D01*
X163435714Y-101806247D02*
X163530952Y-101853866D01*
X163530952Y-101853866D02*
X163721428Y-101853866D01*
X163721428Y-101853866D02*
X163816666Y-101806247D01*
X163816666Y-101806247D02*
X163864285Y-101758628D01*
X163864285Y-101758628D02*
X163911904Y-101663390D01*
X155198095Y-39854819D02*
X155198095Y-40664342D01*
X155198095Y-40664342D02*
X155245714Y-40759580D01*
X155245714Y-40759580D02*
X155293333Y-40807200D01*
X155293333Y-40807200D02*
X155388571Y-40854819D01*
X155388571Y-40854819D02*
X155579047Y-40854819D01*
X155579047Y-40854819D02*
X155674285Y-40807200D01*
X155674285Y-40807200D02*
X155721904Y-40759580D01*
X155721904Y-40759580D02*
X155769523Y-40664342D01*
X155769523Y-40664342D02*
X155769523Y-39854819D01*
X156769523Y-40854819D02*
X156198095Y-40854819D01*
X156483809Y-40854819D02*
X156483809Y-39854819D01*
X156483809Y-39854819D02*
X156388571Y-39997676D01*
X156388571Y-39997676D02*
X156293333Y-40092914D01*
X156293333Y-40092914D02*
X156198095Y-40140533D01*
X138904761Y-48830057D02*
X138809523Y-48782438D01*
X138809523Y-48782438D02*
X138714285Y-48687200D01*
X138714285Y-48687200D02*
X138571428Y-48544342D01*
X138571428Y-48544342D02*
X138476190Y-48496723D01*
X138476190Y-48496723D02*
X138380952Y-48496723D01*
X138428571Y-48734819D02*
X138333333Y-48687200D01*
X138333333Y-48687200D02*
X138238095Y-48591961D01*
X138238095Y-48591961D02*
X138190476Y-48401485D01*
X138190476Y-48401485D02*
X138190476Y-48068152D01*
X138190476Y-48068152D02*
X138238095Y-47877676D01*
X138238095Y-47877676D02*
X138333333Y-47782438D01*
X138333333Y-47782438D02*
X138428571Y-47734819D01*
X138428571Y-47734819D02*
X138619047Y-47734819D01*
X138619047Y-47734819D02*
X138714285Y-47782438D01*
X138714285Y-47782438D02*
X138809523Y-47877676D01*
X138809523Y-47877676D02*
X138857142Y-48068152D01*
X138857142Y-48068152D02*
X138857142Y-48401485D01*
X138857142Y-48401485D02*
X138809523Y-48591961D01*
X138809523Y-48591961D02*
X138714285Y-48687200D01*
X138714285Y-48687200D02*
X138619047Y-48734819D01*
X138619047Y-48734819D02*
X138428571Y-48734819D01*
X139238095Y-47830057D02*
X139285714Y-47782438D01*
X139285714Y-47782438D02*
X139380952Y-47734819D01*
X139380952Y-47734819D02*
X139619047Y-47734819D01*
X139619047Y-47734819D02*
X139714285Y-47782438D01*
X139714285Y-47782438D02*
X139761904Y-47830057D01*
X139761904Y-47830057D02*
X139809523Y-47925295D01*
X139809523Y-47925295D02*
X139809523Y-48020533D01*
X139809523Y-48020533D02*
X139761904Y-48163390D01*
X139761904Y-48163390D02*
X139190476Y-48734819D01*
X139190476Y-48734819D02*
X139809523Y-48734819D01*
X86650057Y-54175238D02*
X86602438Y-54270476D01*
X86602438Y-54270476D02*
X86507200Y-54365714D01*
X86507200Y-54365714D02*
X86364342Y-54508571D01*
X86364342Y-54508571D02*
X86316723Y-54603809D01*
X86316723Y-54603809D02*
X86316723Y-54699047D01*
X86554819Y-54651428D02*
X86507200Y-54746666D01*
X86507200Y-54746666D02*
X86411961Y-54841904D01*
X86411961Y-54841904D02*
X86221485Y-54889523D01*
X86221485Y-54889523D02*
X85888152Y-54889523D01*
X85888152Y-54889523D02*
X85697676Y-54841904D01*
X85697676Y-54841904D02*
X85602438Y-54746666D01*
X85602438Y-54746666D02*
X85554819Y-54651428D01*
X85554819Y-54651428D02*
X85554819Y-54460952D01*
X85554819Y-54460952D02*
X85602438Y-54365714D01*
X85602438Y-54365714D02*
X85697676Y-54270476D01*
X85697676Y-54270476D02*
X85888152Y-54222857D01*
X85888152Y-54222857D02*
X86221485Y-54222857D01*
X86221485Y-54222857D02*
X86411961Y-54270476D01*
X86411961Y-54270476D02*
X86507200Y-54365714D01*
X86507200Y-54365714D02*
X86554819Y-54460952D01*
X86554819Y-54460952D02*
X86554819Y-54651428D01*
X85554819Y-53889523D02*
X85554819Y-53270476D01*
X85554819Y-53270476D02*
X85935771Y-53603809D01*
X85935771Y-53603809D02*
X85935771Y-53460952D01*
X85935771Y-53460952D02*
X85983390Y-53365714D01*
X85983390Y-53365714D02*
X86031009Y-53318095D01*
X86031009Y-53318095D02*
X86126247Y-53270476D01*
X86126247Y-53270476D02*
X86364342Y-53270476D01*
X86364342Y-53270476D02*
X86459580Y-53318095D01*
X86459580Y-53318095D02*
X86507200Y-53365714D01*
X86507200Y-53365714D02*
X86554819Y-53460952D01*
X86554819Y-53460952D02*
X86554819Y-53746666D01*
X86554819Y-53746666D02*
X86507200Y-53841904D01*
X86507200Y-53841904D02*
X86459580Y-53889523D01*
X146007142Y-102454819D02*
X145673809Y-101978628D01*
X145435714Y-102454819D02*
X145435714Y-101454819D01*
X145435714Y-101454819D02*
X145816666Y-101454819D01*
X145816666Y-101454819D02*
X145911904Y-101502438D01*
X145911904Y-101502438D02*
X145959523Y-101550057D01*
X145959523Y-101550057D02*
X146007142Y-101645295D01*
X146007142Y-101645295D02*
X146007142Y-101788152D01*
X146007142Y-101788152D02*
X145959523Y-101883390D01*
X145959523Y-101883390D02*
X145911904Y-101931009D01*
X145911904Y-101931009D02*
X145816666Y-101978628D01*
X145816666Y-101978628D02*
X145435714Y-101978628D01*
X146959523Y-102454819D02*
X146388095Y-102454819D01*
X146673809Y-102454819D02*
X146673809Y-101454819D01*
X146673809Y-101454819D02*
X146578571Y-101597676D01*
X146578571Y-101597676D02*
X146483333Y-101692914D01*
X146483333Y-101692914D02*
X146388095Y-101740533D01*
X147292857Y-101454819D02*
X147959523Y-101454819D01*
X147959523Y-101454819D02*
X147530952Y-102454819D01*
X97333333Y-105274819D02*
X97000000Y-104798628D01*
X96761905Y-105274819D02*
X96761905Y-104274819D01*
X96761905Y-104274819D02*
X97142857Y-104274819D01*
X97142857Y-104274819D02*
X97238095Y-104322438D01*
X97238095Y-104322438D02*
X97285714Y-104370057D01*
X97285714Y-104370057D02*
X97333333Y-104465295D01*
X97333333Y-104465295D02*
X97333333Y-104608152D01*
X97333333Y-104608152D02*
X97285714Y-104703390D01*
X97285714Y-104703390D02*
X97238095Y-104751009D01*
X97238095Y-104751009D02*
X97142857Y-104798628D01*
X97142857Y-104798628D02*
X96761905Y-104798628D01*
X97666667Y-104274819D02*
X98333333Y-104274819D01*
X98333333Y-104274819D02*
X97904762Y-105274819D01*
X139674819Y-59166666D02*
X139198628Y-59499999D01*
X139674819Y-59738094D02*
X138674819Y-59738094D01*
X138674819Y-59738094D02*
X138674819Y-59357142D01*
X138674819Y-59357142D02*
X138722438Y-59261904D01*
X138722438Y-59261904D02*
X138770057Y-59214285D01*
X138770057Y-59214285D02*
X138865295Y-59166666D01*
X138865295Y-59166666D02*
X139008152Y-59166666D01*
X139008152Y-59166666D02*
X139103390Y-59214285D01*
X139103390Y-59214285D02*
X139151009Y-59261904D01*
X139151009Y-59261904D02*
X139198628Y-59357142D01*
X139198628Y-59357142D02*
X139198628Y-59738094D01*
X138770057Y-58785713D02*
X138722438Y-58738094D01*
X138722438Y-58738094D02*
X138674819Y-58642856D01*
X138674819Y-58642856D02*
X138674819Y-58404761D01*
X138674819Y-58404761D02*
X138722438Y-58309523D01*
X138722438Y-58309523D02*
X138770057Y-58261904D01*
X138770057Y-58261904D02*
X138865295Y-58214285D01*
X138865295Y-58214285D02*
X138960533Y-58214285D01*
X138960533Y-58214285D02*
X139103390Y-58261904D01*
X139103390Y-58261904D02*
X139674819Y-58833332D01*
X139674819Y-58833332D02*
X139674819Y-58214285D01*
X72834819Y-43833333D02*
X73549104Y-43833333D01*
X73549104Y-43833333D02*
X73691961Y-43880952D01*
X73691961Y-43880952D02*
X73787200Y-43976190D01*
X73787200Y-43976190D02*
X73834819Y-44119047D01*
X73834819Y-44119047D02*
X73834819Y-44214285D01*
X73834819Y-42833333D02*
X73834819Y-43404761D01*
X73834819Y-43119047D02*
X72834819Y-43119047D01*
X72834819Y-43119047D02*
X72977676Y-43214285D01*
X72977676Y-43214285D02*
X73072914Y-43309523D01*
X73072914Y-43309523D02*
X73120533Y-43404761D01*
X162007142Y-70234819D02*
X161673809Y-69758628D01*
X161435714Y-70234819D02*
X161435714Y-69234819D01*
X161435714Y-69234819D02*
X161816666Y-69234819D01*
X161816666Y-69234819D02*
X161911904Y-69282438D01*
X161911904Y-69282438D02*
X161959523Y-69330057D01*
X161959523Y-69330057D02*
X162007142Y-69425295D01*
X162007142Y-69425295D02*
X162007142Y-69568152D01*
X162007142Y-69568152D02*
X161959523Y-69663390D01*
X161959523Y-69663390D02*
X161911904Y-69711009D01*
X161911904Y-69711009D02*
X161816666Y-69758628D01*
X161816666Y-69758628D02*
X161435714Y-69758628D01*
X162959523Y-70234819D02*
X162388095Y-70234819D01*
X162673809Y-70234819D02*
X162673809Y-69234819D01*
X162673809Y-69234819D02*
X162578571Y-69377676D01*
X162578571Y-69377676D02*
X162483333Y-69472914D01*
X162483333Y-69472914D02*
X162388095Y-69520533D01*
X163578571Y-69234819D02*
X163673809Y-69234819D01*
X163673809Y-69234819D02*
X163769047Y-69282438D01*
X163769047Y-69282438D02*
X163816666Y-69330057D01*
X163816666Y-69330057D02*
X163864285Y-69425295D01*
X163864285Y-69425295D02*
X163911904Y-69615771D01*
X163911904Y-69615771D02*
X163911904Y-69853866D01*
X163911904Y-69853866D02*
X163864285Y-70044342D01*
X163864285Y-70044342D02*
X163816666Y-70139580D01*
X163816666Y-70139580D02*
X163769047Y-70187200D01*
X163769047Y-70187200D02*
X163673809Y-70234819D01*
X163673809Y-70234819D02*
X163578571Y-70234819D01*
X163578571Y-70234819D02*
X163483333Y-70187200D01*
X163483333Y-70187200D02*
X163435714Y-70139580D01*
X163435714Y-70139580D02*
X163388095Y-70044342D01*
X163388095Y-70044342D02*
X163340476Y-69853866D01*
X163340476Y-69853866D02*
X163340476Y-69615771D01*
X163340476Y-69615771D02*
X163388095Y-69425295D01*
X163388095Y-69425295D02*
X163435714Y-69330057D01*
X163435714Y-69330057D02*
X163483333Y-69282438D01*
X163483333Y-69282438D02*
X163578571Y-69234819D01*
X118914819Y-64508094D02*
X117914819Y-64508094D01*
X117914819Y-64508094D02*
X117914819Y-64269999D01*
X117914819Y-64269999D02*
X117962438Y-64127142D01*
X117962438Y-64127142D02*
X118057676Y-64031904D01*
X118057676Y-64031904D02*
X118152914Y-63984285D01*
X118152914Y-63984285D02*
X118343390Y-63936666D01*
X118343390Y-63936666D02*
X118486247Y-63936666D01*
X118486247Y-63936666D02*
X118676723Y-63984285D01*
X118676723Y-63984285D02*
X118771961Y-64031904D01*
X118771961Y-64031904D02*
X118867200Y-64127142D01*
X118867200Y-64127142D02*
X118914819Y-64269999D01*
X118914819Y-64269999D02*
X118914819Y-64508094D01*
X118343390Y-63365237D02*
X118295771Y-63460475D01*
X118295771Y-63460475D02*
X118248152Y-63508094D01*
X118248152Y-63508094D02*
X118152914Y-63555713D01*
X118152914Y-63555713D02*
X118105295Y-63555713D01*
X118105295Y-63555713D02*
X118010057Y-63508094D01*
X118010057Y-63508094D02*
X117962438Y-63460475D01*
X117962438Y-63460475D02*
X117914819Y-63365237D01*
X117914819Y-63365237D02*
X117914819Y-63174761D01*
X117914819Y-63174761D02*
X117962438Y-63079523D01*
X117962438Y-63079523D02*
X118010057Y-63031904D01*
X118010057Y-63031904D02*
X118105295Y-62984285D01*
X118105295Y-62984285D02*
X118152914Y-62984285D01*
X118152914Y-62984285D02*
X118248152Y-63031904D01*
X118248152Y-63031904D02*
X118295771Y-63079523D01*
X118295771Y-63079523D02*
X118343390Y-63174761D01*
X118343390Y-63174761D02*
X118343390Y-63365237D01*
X118343390Y-63365237D02*
X118391009Y-63460475D01*
X118391009Y-63460475D02*
X118438628Y-63508094D01*
X118438628Y-63508094D02*
X118533866Y-63555713D01*
X118533866Y-63555713D02*
X118724342Y-63555713D01*
X118724342Y-63555713D02*
X118819580Y-63508094D01*
X118819580Y-63508094D02*
X118867200Y-63460475D01*
X118867200Y-63460475D02*
X118914819Y-63365237D01*
X118914819Y-63365237D02*
X118914819Y-63174761D01*
X118914819Y-63174761D02*
X118867200Y-63079523D01*
X118867200Y-63079523D02*
X118819580Y-63031904D01*
X118819580Y-63031904D02*
X118724342Y-62984285D01*
X118724342Y-62984285D02*
X118533866Y-62984285D01*
X118533866Y-62984285D02*
X118438628Y-63031904D01*
X118438628Y-63031904D02*
X118391009Y-63079523D01*
X118391009Y-63079523D02*
X118343390Y-63174761D01*
X174288446Y-76609580D02*
X174240827Y-76657200D01*
X174240827Y-76657200D02*
X174097970Y-76704819D01*
X174097970Y-76704819D02*
X174002732Y-76704819D01*
X174002732Y-76704819D02*
X173859875Y-76657200D01*
X173859875Y-76657200D02*
X173764637Y-76561961D01*
X173764637Y-76561961D02*
X173717018Y-76466723D01*
X173717018Y-76466723D02*
X173669399Y-76276247D01*
X173669399Y-76276247D02*
X173669399Y-76133390D01*
X173669399Y-76133390D02*
X173717018Y-75942914D01*
X173717018Y-75942914D02*
X173764637Y-75847676D01*
X173764637Y-75847676D02*
X173859875Y-75752438D01*
X173859875Y-75752438D02*
X174002732Y-75704819D01*
X174002732Y-75704819D02*
X174097970Y-75704819D01*
X174097970Y-75704819D02*
X174240827Y-75752438D01*
X174240827Y-75752438D02*
X174288446Y-75800057D01*
X174669399Y-75800057D02*
X174717018Y-75752438D01*
X174717018Y-75752438D02*
X174812256Y-75704819D01*
X174812256Y-75704819D02*
X175050351Y-75704819D01*
X175050351Y-75704819D02*
X175145589Y-75752438D01*
X175145589Y-75752438D02*
X175193208Y-75800057D01*
X175193208Y-75800057D02*
X175240827Y-75895295D01*
X175240827Y-75895295D02*
X175240827Y-75990533D01*
X175240827Y-75990533D02*
X175193208Y-76133390D01*
X175193208Y-76133390D02*
X174621780Y-76704819D01*
X174621780Y-76704819D02*
X175240827Y-76704819D01*
X162007142Y-109234819D02*
X161673809Y-108758628D01*
X161435714Y-109234819D02*
X161435714Y-108234819D01*
X161435714Y-108234819D02*
X161816666Y-108234819D01*
X161816666Y-108234819D02*
X161911904Y-108282438D01*
X161911904Y-108282438D02*
X161959523Y-108330057D01*
X161959523Y-108330057D02*
X162007142Y-108425295D01*
X162007142Y-108425295D02*
X162007142Y-108568152D01*
X162007142Y-108568152D02*
X161959523Y-108663390D01*
X161959523Y-108663390D02*
X161911904Y-108711009D01*
X161911904Y-108711009D02*
X161816666Y-108758628D01*
X161816666Y-108758628D02*
X161435714Y-108758628D01*
X162388095Y-108330057D02*
X162435714Y-108282438D01*
X162435714Y-108282438D02*
X162530952Y-108234819D01*
X162530952Y-108234819D02*
X162769047Y-108234819D01*
X162769047Y-108234819D02*
X162864285Y-108282438D01*
X162864285Y-108282438D02*
X162911904Y-108330057D01*
X162911904Y-108330057D02*
X162959523Y-108425295D01*
X162959523Y-108425295D02*
X162959523Y-108520533D01*
X162959523Y-108520533D02*
X162911904Y-108663390D01*
X162911904Y-108663390D02*
X162340476Y-109234819D01*
X162340476Y-109234819D02*
X162959523Y-109234819D01*
X163292857Y-108234819D02*
X163911904Y-108234819D01*
X163911904Y-108234819D02*
X163578571Y-108615771D01*
X163578571Y-108615771D02*
X163721428Y-108615771D01*
X163721428Y-108615771D02*
X163816666Y-108663390D01*
X163816666Y-108663390D02*
X163864285Y-108711009D01*
X163864285Y-108711009D02*
X163911904Y-108806247D01*
X163911904Y-108806247D02*
X163911904Y-109044342D01*
X163911904Y-109044342D02*
X163864285Y-109139580D01*
X163864285Y-109139580D02*
X163816666Y-109187200D01*
X163816666Y-109187200D02*
X163721428Y-109234819D01*
X163721428Y-109234819D02*
X163435714Y-109234819D01*
X163435714Y-109234819D02*
X163340476Y-109187200D01*
X163340476Y-109187200D02*
X163292857Y-109139580D01*
X162007142Y-95234819D02*
X161673809Y-94758628D01*
X161435714Y-95234819D02*
X161435714Y-94234819D01*
X161435714Y-94234819D02*
X161816666Y-94234819D01*
X161816666Y-94234819D02*
X161911904Y-94282438D01*
X161911904Y-94282438D02*
X161959523Y-94330057D01*
X161959523Y-94330057D02*
X162007142Y-94425295D01*
X162007142Y-94425295D02*
X162007142Y-94568152D01*
X162007142Y-94568152D02*
X161959523Y-94663390D01*
X161959523Y-94663390D02*
X161911904Y-94711009D01*
X161911904Y-94711009D02*
X161816666Y-94758628D01*
X161816666Y-94758628D02*
X161435714Y-94758628D01*
X162959523Y-95234819D02*
X162388095Y-95234819D01*
X162673809Y-95234819D02*
X162673809Y-94234819D01*
X162673809Y-94234819D02*
X162578571Y-94377676D01*
X162578571Y-94377676D02*
X162483333Y-94472914D01*
X162483333Y-94472914D02*
X162388095Y-94520533D01*
X163864285Y-94234819D02*
X163388095Y-94234819D01*
X163388095Y-94234819D02*
X163340476Y-94711009D01*
X163340476Y-94711009D02*
X163388095Y-94663390D01*
X163388095Y-94663390D02*
X163483333Y-94615771D01*
X163483333Y-94615771D02*
X163721428Y-94615771D01*
X163721428Y-94615771D02*
X163816666Y-94663390D01*
X163816666Y-94663390D02*
X163864285Y-94711009D01*
X163864285Y-94711009D02*
X163911904Y-94806247D01*
X163911904Y-94806247D02*
X163911904Y-95044342D01*
X163911904Y-95044342D02*
X163864285Y-95139580D01*
X163864285Y-95139580D02*
X163816666Y-95187200D01*
X163816666Y-95187200D02*
X163721428Y-95234819D01*
X163721428Y-95234819D02*
X163483333Y-95234819D01*
X163483333Y-95234819D02*
X163388095Y-95187200D01*
X163388095Y-95187200D02*
X163340476Y-95139580D01*
X162007142Y-88234819D02*
X161673809Y-87758628D01*
X161435714Y-88234819D02*
X161435714Y-87234819D01*
X161435714Y-87234819D02*
X161816666Y-87234819D01*
X161816666Y-87234819D02*
X161911904Y-87282438D01*
X161911904Y-87282438D02*
X161959523Y-87330057D01*
X161959523Y-87330057D02*
X162007142Y-87425295D01*
X162007142Y-87425295D02*
X162007142Y-87568152D01*
X162007142Y-87568152D02*
X161959523Y-87663390D01*
X161959523Y-87663390D02*
X161911904Y-87711009D01*
X161911904Y-87711009D02*
X161816666Y-87758628D01*
X161816666Y-87758628D02*
X161435714Y-87758628D01*
X162388095Y-87330057D02*
X162435714Y-87282438D01*
X162435714Y-87282438D02*
X162530952Y-87234819D01*
X162530952Y-87234819D02*
X162769047Y-87234819D01*
X162769047Y-87234819D02*
X162864285Y-87282438D01*
X162864285Y-87282438D02*
X162911904Y-87330057D01*
X162911904Y-87330057D02*
X162959523Y-87425295D01*
X162959523Y-87425295D02*
X162959523Y-87520533D01*
X162959523Y-87520533D02*
X162911904Y-87663390D01*
X162911904Y-87663390D02*
X162340476Y-88234819D01*
X162340476Y-88234819D02*
X162959523Y-88234819D01*
X163340476Y-87330057D02*
X163388095Y-87282438D01*
X163388095Y-87282438D02*
X163483333Y-87234819D01*
X163483333Y-87234819D02*
X163721428Y-87234819D01*
X163721428Y-87234819D02*
X163816666Y-87282438D01*
X163816666Y-87282438D02*
X163864285Y-87330057D01*
X163864285Y-87330057D02*
X163911904Y-87425295D01*
X163911904Y-87425295D02*
X163911904Y-87520533D01*
X163911904Y-87520533D02*
X163864285Y-87663390D01*
X163864285Y-87663390D02*
X163292857Y-88234819D01*
X163292857Y-88234819D02*
X163911904Y-88234819D01*
X70181905Y-82024819D02*
X70181905Y-81024819D01*
X70181905Y-81024819D02*
X70420000Y-81024819D01*
X70420000Y-81024819D02*
X70562857Y-81072438D01*
X70562857Y-81072438D02*
X70658095Y-81167676D01*
X70658095Y-81167676D02*
X70705714Y-81262914D01*
X70705714Y-81262914D02*
X70753333Y-81453390D01*
X70753333Y-81453390D02*
X70753333Y-81596247D01*
X70753333Y-81596247D02*
X70705714Y-81786723D01*
X70705714Y-81786723D02*
X70658095Y-81881961D01*
X70658095Y-81881961D02*
X70562857Y-81977200D01*
X70562857Y-81977200D02*
X70420000Y-82024819D01*
X70420000Y-82024819D02*
X70181905Y-82024819D01*
X71086667Y-81024819D02*
X71705714Y-81024819D01*
X71705714Y-81024819D02*
X71372381Y-81405771D01*
X71372381Y-81405771D02*
X71515238Y-81405771D01*
X71515238Y-81405771D02*
X71610476Y-81453390D01*
X71610476Y-81453390D02*
X71658095Y-81501009D01*
X71658095Y-81501009D02*
X71705714Y-81596247D01*
X71705714Y-81596247D02*
X71705714Y-81834342D01*
X71705714Y-81834342D02*
X71658095Y-81929580D01*
X71658095Y-81929580D02*
X71610476Y-81977200D01*
X71610476Y-81977200D02*
X71515238Y-82024819D01*
X71515238Y-82024819D02*
X71229524Y-82024819D01*
X71229524Y-82024819D02*
X71134286Y-81977200D01*
X71134286Y-81977200D02*
X71086667Y-81929580D01*
X65578095Y-82394819D02*
X65578095Y-81394819D01*
X66149523Y-82394819D02*
X65720952Y-81823390D01*
X66149523Y-81394819D02*
X65578095Y-81966247D01*
X146007142Y-88454819D02*
X145673809Y-87978628D01*
X145435714Y-88454819D02*
X145435714Y-87454819D01*
X145435714Y-87454819D02*
X145816666Y-87454819D01*
X145816666Y-87454819D02*
X145911904Y-87502438D01*
X145911904Y-87502438D02*
X145959523Y-87550057D01*
X145959523Y-87550057D02*
X146007142Y-87645295D01*
X146007142Y-87645295D02*
X146007142Y-87788152D01*
X146007142Y-87788152D02*
X145959523Y-87883390D01*
X145959523Y-87883390D02*
X145911904Y-87931009D01*
X145911904Y-87931009D02*
X145816666Y-87978628D01*
X145816666Y-87978628D02*
X145435714Y-87978628D01*
X146388095Y-87550057D02*
X146435714Y-87502438D01*
X146435714Y-87502438D02*
X146530952Y-87454819D01*
X146530952Y-87454819D02*
X146769047Y-87454819D01*
X146769047Y-87454819D02*
X146864285Y-87502438D01*
X146864285Y-87502438D02*
X146911904Y-87550057D01*
X146911904Y-87550057D02*
X146959523Y-87645295D01*
X146959523Y-87645295D02*
X146959523Y-87740533D01*
X146959523Y-87740533D02*
X146911904Y-87883390D01*
X146911904Y-87883390D02*
X146340476Y-88454819D01*
X146340476Y-88454819D02*
X146959523Y-88454819D01*
X147578571Y-87454819D02*
X147673809Y-87454819D01*
X147673809Y-87454819D02*
X147769047Y-87502438D01*
X147769047Y-87502438D02*
X147816666Y-87550057D01*
X147816666Y-87550057D02*
X147864285Y-87645295D01*
X147864285Y-87645295D02*
X147911904Y-87835771D01*
X147911904Y-87835771D02*
X147911904Y-88073866D01*
X147911904Y-88073866D02*
X147864285Y-88264342D01*
X147864285Y-88264342D02*
X147816666Y-88359580D01*
X147816666Y-88359580D02*
X147769047Y-88407200D01*
X147769047Y-88407200D02*
X147673809Y-88454819D01*
X147673809Y-88454819D02*
X147578571Y-88454819D01*
X147578571Y-88454819D02*
X147483333Y-88407200D01*
X147483333Y-88407200D02*
X147435714Y-88359580D01*
X147435714Y-88359580D02*
X147388095Y-88264342D01*
X147388095Y-88264342D02*
X147340476Y-88073866D01*
X147340476Y-88073866D02*
X147340476Y-87835771D01*
X147340476Y-87835771D02*
X147388095Y-87645295D01*
X147388095Y-87645295D02*
X147435714Y-87550057D01*
X147435714Y-87550057D02*
X147483333Y-87502438D01*
X147483333Y-87502438D02*
X147578571Y-87454819D01*
X178034819Y-112309523D02*
X178749104Y-112309523D01*
X178749104Y-112309523D02*
X178891961Y-112357142D01*
X178891961Y-112357142D02*
X178987200Y-112452380D01*
X178987200Y-112452380D02*
X179034819Y-112595237D01*
X179034819Y-112595237D02*
X179034819Y-112690475D01*
X179034819Y-111309523D02*
X179034819Y-111880951D01*
X179034819Y-111595237D02*
X178034819Y-111595237D01*
X178034819Y-111595237D02*
X178177676Y-111690475D01*
X178177676Y-111690475D02*
X178272914Y-111785713D01*
X178272914Y-111785713D02*
X178320533Y-111880951D01*
X178034819Y-110976189D02*
X178034819Y-110357142D01*
X178034819Y-110357142D02*
X178415771Y-110690475D01*
X178415771Y-110690475D02*
X178415771Y-110547618D01*
X178415771Y-110547618D02*
X178463390Y-110452380D01*
X178463390Y-110452380D02*
X178511009Y-110404761D01*
X178511009Y-110404761D02*
X178606247Y-110357142D01*
X178606247Y-110357142D02*
X178844342Y-110357142D01*
X178844342Y-110357142D02*
X178939580Y-110404761D01*
X178939580Y-110404761D02*
X178987200Y-110452380D01*
X178987200Y-110452380D02*
X179034819Y-110547618D01*
X179034819Y-110547618D02*
X179034819Y-110833332D01*
X179034819Y-110833332D02*
X178987200Y-110928570D01*
X178987200Y-110928570D02*
X178939580Y-110976189D01*
X162134761Y-61850057D02*
X162039523Y-61802438D01*
X162039523Y-61802438D02*
X161944285Y-61707200D01*
X161944285Y-61707200D02*
X161801428Y-61564342D01*
X161801428Y-61564342D02*
X161706190Y-61516723D01*
X161706190Y-61516723D02*
X161610952Y-61516723D01*
X161658571Y-61754819D02*
X161563333Y-61707200D01*
X161563333Y-61707200D02*
X161468095Y-61611961D01*
X161468095Y-61611961D02*
X161420476Y-61421485D01*
X161420476Y-61421485D02*
X161420476Y-61088152D01*
X161420476Y-61088152D02*
X161468095Y-60897676D01*
X161468095Y-60897676D02*
X161563333Y-60802438D01*
X161563333Y-60802438D02*
X161658571Y-60754819D01*
X161658571Y-60754819D02*
X161849047Y-60754819D01*
X161849047Y-60754819D02*
X161944285Y-60802438D01*
X161944285Y-60802438D02*
X162039523Y-60897676D01*
X162039523Y-60897676D02*
X162087142Y-61088152D01*
X162087142Y-61088152D02*
X162087142Y-61421485D01*
X162087142Y-61421485D02*
X162039523Y-61611961D01*
X162039523Y-61611961D02*
X161944285Y-61707200D01*
X161944285Y-61707200D02*
X161849047Y-61754819D01*
X161849047Y-61754819D02*
X161658571Y-61754819D01*
X162658571Y-61183390D02*
X162563333Y-61135771D01*
X162563333Y-61135771D02*
X162515714Y-61088152D01*
X162515714Y-61088152D02*
X162468095Y-60992914D01*
X162468095Y-60992914D02*
X162468095Y-60945295D01*
X162468095Y-60945295D02*
X162515714Y-60850057D01*
X162515714Y-60850057D02*
X162563333Y-60802438D01*
X162563333Y-60802438D02*
X162658571Y-60754819D01*
X162658571Y-60754819D02*
X162849047Y-60754819D01*
X162849047Y-60754819D02*
X162944285Y-60802438D01*
X162944285Y-60802438D02*
X162991904Y-60850057D01*
X162991904Y-60850057D02*
X163039523Y-60945295D01*
X163039523Y-60945295D02*
X163039523Y-60992914D01*
X163039523Y-60992914D02*
X162991904Y-61088152D01*
X162991904Y-61088152D02*
X162944285Y-61135771D01*
X162944285Y-61135771D02*
X162849047Y-61183390D01*
X162849047Y-61183390D02*
X162658571Y-61183390D01*
X162658571Y-61183390D02*
X162563333Y-61231009D01*
X162563333Y-61231009D02*
X162515714Y-61278628D01*
X162515714Y-61278628D02*
X162468095Y-61373866D01*
X162468095Y-61373866D02*
X162468095Y-61564342D01*
X162468095Y-61564342D02*
X162515714Y-61659580D01*
X162515714Y-61659580D02*
X162563333Y-61707200D01*
X162563333Y-61707200D02*
X162658571Y-61754819D01*
X162658571Y-61754819D02*
X162849047Y-61754819D01*
X162849047Y-61754819D02*
X162944285Y-61707200D01*
X162944285Y-61707200D02*
X162991904Y-61659580D01*
X162991904Y-61659580D02*
X163039523Y-61564342D01*
X163039523Y-61564342D02*
X163039523Y-61373866D01*
X163039523Y-61373866D02*
X162991904Y-61278628D01*
X162991904Y-61278628D02*
X162944285Y-61231009D01*
X162944285Y-61231009D02*
X162849047Y-61183390D01*
X132714819Y-64438094D02*
X131714819Y-64438094D01*
X131714819Y-64438094D02*
X131714819Y-64199999D01*
X131714819Y-64199999D02*
X131762438Y-64057142D01*
X131762438Y-64057142D02*
X131857676Y-63961904D01*
X131857676Y-63961904D02*
X131952914Y-63914285D01*
X131952914Y-63914285D02*
X132143390Y-63866666D01*
X132143390Y-63866666D02*
X132286247Y-63866666D01*
X132286247Y-63866666D02*
X132476723Y-63914285D01*
X132476723Y-63914285D02*
X132571961Y-63961904D01*
X132571961Y-63961904D02*
X132667200Y-64057142D01*
X132667200Y-64057142D02*
X132714819Y-64199999D01*
X132714819Y-64199999D02*
X132714819Y-64438094D01*
X131714819Y-63009523D02*
X131714819Y-63199999D01*
X131714819Y-63199999D02*
X131762438Y-63295237D01*
X131762438Y-63295237D02*
X131810057Y-63342856D01*
X131810057Y-63342856D02*
X131952914Y-63438094D01*
X131952914Y-63438094D02*
X132143390Y-63485713D01*
X132143390Y-63485713D02*
X132524342Y-63485713D01*
X132524342Y-63485713D02*
X132619580Y-63438094D01*
X132619580Y-63438094D02*
X132667200Y-63390475D01*
X132667200Y-63390475D02*
X132714819Y-63295237D01*
X132714819Y-63295237D02*
X132714819Y-63104761D01*
X132714819Y-63104761D02*
X132667200Y-63009523D01*
X132667200Y-63009523D02*
X132619580Y-62961904D01*
X132619580Y-62961904D02*
X132524342Y-62914285D01*
X132524342Y-62914285D02*
X132286247Y-62914285D01*
X132286247Y-62914285D02*
X132191009Y-62961904D01*
X132191009Y-62961904D02*
X132143390Y-63009523D01*
X132143390Y-63009523D02*
X132095771Y-63104761D01*
X132095771Y-63104761D02*
X132095771Y-63295237D01*
X132095771Y-63295237D02*
X132143390Y-63390475D01*
X132143390Y-63390475D02*
X132191009Y-63438094D01*
X132191009Y-63438094D02*
X132286247Y-63485713D01*
X97333333Y-90774819D02*
X97000000Y-90298628D01*
X96761905Y-90774819D02*
X96761905Y-89774819D01*
X96761905Y-89774819D02*
X97142857Y-89774819D01*
X97142857Y-89774819D02*
X97238095Y-89822438D01*
X97238095Y-89822438D02*
X97285714Y-89870057D01*
X97285714Y-89870057D02*
X97333333Y-89965295D01*
X97333333Y-89965295D02*
X97333333Y-90108152D01*
X97333333Y-90108152D02*
X97285714Y-90203390D01*
X97285714Y-90203390D02*
X97238095Y-90251009D01*
X97238095Y-90251009D02*
X97142857Y-90298628D01*
X97142857Y-90298628D02*
X96761905Y-90298628D01*
X98190476Y-89774819D02*
X98000000Y-89774819D01*
X98000000Y-89774819D02*
X97904762Y-89822438D01*
X97904762Y-89822438D02*
X97857143Y-89870057D01*
X97857143Y-89870057D02*
X97761905Y-90012914D01*
X97761905Y-90012914D02*
X97714286Y-90203390D01*
X97714286Y-90203390D02*
X97714286Y-90584342D01*
X97714286Y-90584342D02*
X97761905Y-90679580D01*
X97761905Y-90679580D02*
X97809524Y-90727200D01*
X97809524Y-90727200D02*
X97904762Y-90774819D01*
X97904762Y-90774819D02*
X98095238Y-90774819D01*
X98095238Y-90774819D02*
X98190476Y-90727200D01*
X98190476Y-90727200D02*
X98238095Y-90679580D01*
X98238095Y-90679580D02*
X98285714Y-90584342D01*
X98285714Y-90584342D02*
X98285714Y-90346247D01*
X98285714Y-90346247D02*
X98238095Y-90251009D01*
X98238095Y-90251009D02*
X98190476Y-90203390D01*
X98190476Y-90203390D02*
X98095238Y-90155771D01*
X98095238Y-90155771D02*
X97904762Y-90155771D01*
X97904762Y-90155771D02*
X97809524Y-90203390D01*
X97809524Y-90203390D02*
X97761905Y-90251009D01*
X97761905Y-90251009D02*
X97714286Y-90346247D01*
X70414819Y-64873333D02*
X71129104Y-64873333D01*
X71129104Y-64873333D02*
X71271961Y-64920952D01*
X71271961Y-64920952D02*
X71367200Y-65016190D01*
X71367200Y-65016190D02*
X71414819Y-65159047D01*
X71414819Y-65159047D02*
X71414819Y-65254285D01*
X70748152Y-63968571D02*
X71414819Y-63968571D01*
X70367200Y-64206666D02*
X71081485Y-64444761D01*
X71081485Y-64444761D02*
X71081485Y-63825714D01*
X146007142Y-109454819D02*
X145673809Y-108978628D01*
X145435714Y-109454819D02*
X145435714Y-108454819D01*
X145435714Y-108454819D02*
X145816666Y-108454819D01*
X145816666Y-108454819D02*
X145911904Y-108502438D01*
X145911904Y-108502438D02*
X145959523Y-108550057D01*
X145959523Y-108550057D02*
X146007142Y-108645295D01*
X146007142Y-108645295D02*
X146007142Y-108788152D01*
X146007142Y-108788152D02*
X145959523Y-108883390D01*
X145959523Y-108883390D02*
X145911904Y-108931009D01*
X145911904Y-108931009D02*
X145816666Y-108978628D01*
X145816666Y-108978628D02*
X145435714Y-108978628D01*
X146388095Y-108550057D02*
X146435714Y-108502438D01*
X146435714Y-108502438D02*
X146530952Y-108454819D01*
X146530952Y-108454819D02*
X146769047Y-108454819D01*
X146769047Y-108454819D02*
X146864285Y-108502438D01*
X146864285Y-108502438D02*
X146911904Y-108550057D01*
X146911904Y-108550057D02*
X146959523Y-108645295D01*
X146959523Y-108645295D02*
X146959523Y-108740533D01*
X146959523Y-108740533D02*
X146911904Y-108883390D01*
X146911904Y-108883390D02*
X146340476Y-109454819D01*
X146340476Y-109454819D02*
X146959523Y-109454819D01*
X147911904Y-109454819D02*
X147340476Y-109454819D01*
X147626190Y-109454819D02*
X147626190Y-108454819D01*
X147626190Y-108454819D02*
X147530952Y-108597676D01*
X147530952Y-108597676D02*
X147435714Y-108692914D01*
X147435714Y-108692914D02*
X147340476Y-108740533D01*
X86650057Y-67675238D02*
X86602438Y-67770476D01*
X86602438Y-67770476D02*
X86507200Y-67865714D01*
X86507200Y-67865714D02*
X86364342Y-68008571D01*
X86364342Y-68008571D02*
X86316723Y-68103809D01*
X86316723Y-68103809D02*
X86316723Y-68199047D01*
X86554819Y-68151428D02*
X86507200Y-68246666D01*
X86507200Y-68246666D02*
X86411961Y-68341904D01*
X86411961Y-68341904D02*
X86221485Y-68389523D01*
X86221485Y-68389523D02*
X85888152Y-68389523D01*
X85888152Y-68389523D02*
X85697676Y-68341904D01*
X85697676Y-68341904D02*
X85602438Y-68246666D01*
X85602438Y-68246666D02*
X85554819Y-68151428D01*
X85554819Y-68151428D02*
X85554819Y-67960952D01*
X85554819Y-67960952D02*
X85602438Y-67865714D01*
X85602438Y-67865714D02*
X85697676Y-67770476D01*
X85697676Y-67770476D02*
X85888152Y-67722857D01*
X85888152Y-67722857D02*
X86221485Y-67722857D01*
X86221485Y-67722857D02*
X86411961Y-67770476D01*
X86411961Y-67770476D02*
X86507200Y-67865714D01*
X86507200Y-67865714D02*
X86554819Y-67960952D01*
X86554819Y-67960952D02*
X86554819Y-68151428D01*
X85888152Y-66865714D02*
X86554819Y-66865714D01*
X85507200Y-67103809D02*
X86221485Y-67341904D01*
X86221485Y-67341904D02*
X86221485Y-66722857D01*
X177994819Y-83809523D02*
X178709104Y-83809523D01*
X178709104Y-83809523D02*
X178851961Y-83857142D01*
X178851961Y-83857142D02*
X178947200Y-83952380D01*
X178947200Y-83952380D02*
X178994819Y-84095237D01*
X178994819Y-84095237D02*
X178994819Y-84190475D01*
X178994819Y-82809523D02*
X178994819Y-83380951D01*
X178994819Y-83095237D02*
X177994819Y-83095237D01*
X177994819Y-83095237D02*
X178137676Y-83190475D01*
X178137676Y-83190475D02*
X178232914Y-83285713D01*
X178232914Y-83285713D02*
X178280533Y-83380951D01*
X177994819Y-82190475D02*
X177994819Y-82095237D01*
X177994819Y-82095237D02*
X178042438Y-81999999D01*
X178042438Y-81999999D02*
X178090057Y-81952380D01*
X178090057Y-81952380D02*
X178185295Y-81904761D01*
X178185295Y-81904761D02*
X178375771Y-81857142D01*
X178375771Y-81857142D02*
X178613866Y-81857142D01*
X178613866Y-81857142D02*
X178804342Y-81904761D01*
X178804342Y-81904761D02*
X178899580Y-81952380D01*
X178899580Y-81952380D02*
X178947200Y-81999999D01*
X178947200Y-81999999D02*
X178994819Y-82095237D01*
X178994819Y-82095237D02*
X178994819Y-82190475D01*
X178994819Y-82190475D02*
X178947200Y-82285713D01*
X178947200Y-82285713D02*
X178899580Y-82333332D01*
X178899580Y-82333332D02*
X178804342Y-82380951D01*
X178804342Y-82380951D02*
X178613866Y-82428570D01*
X178613866Y-82428570D02*
X178375771Y-82428570D01*
X178375771Y-82428570D02*
X178185295Y-82380951D01*
X178185295Y-82380951D02*
X178090057Y-82333332D01*
X178090057Y-82333332D02*
X178042438Y-82285713D01*
X178042438Y-82285713D02*
X177994819Y-82190475D01*
X177333333Y-61734819D02*
X177000000Y-61258628D01*
X176761905Y-61734819D02*
X176761905Y-60734819D01*
X176761905Y-60734819D02*
X177142857Y-60734819D01*
X177142857Y-60734819D02*
X177238095Y-60782438D01*
X177238095Y-60782438D02*
X177285714Y-60830057D01*
X177285714Y-60830057D02*
X177333333Y-60925295D01*
X177333333Y-60925295D02*
X177333333Y-61068152D01*
X177333333Y-61068152D02*
X177285714Y-61163390D01*
X177285714Y-61163390D02*
X177238095Y-61211009D01*
X177238095Y-61211009D02*
X177142857Y-61258628D01*
X177142857Y-61258628D02*
X176761905Y-61258628D01*
X177809524Y-61734819D02*
X178000000Y-61734819D01*
X178000000Y-61734819D02*
X178095238Y-61687200D01*
X178095238Y-61687200D02*
X178142857Y-61639580D01*
X178142857Y-61639580D02*
X178238095Y-61496723D01*
X178238095Y-61496723D02*
X178285714Y-61306247D01*
X178285714Y-61306247D02*
X178285714Y-60925295D01*
X178285714Y-60925295D02*
X178238095Y-60830057D01*
X178238095Y-60830057D02*
X178190476Y-60782438D01*
X178190476Y-60782438D02*
X178095238Y-60734819D01*
X178095238Y-60734819D02*
X177904762Y-60734819D01*
X177904762Y-60734819D02*
X177809524Y-60782438D01*
X177809524Y-60782438D02*
X177761905Y-60830057D01*
X177761905Y-60830057D02*
X177714286Y-60925295D01*
X177714286Y-60925295D02*
X177714286Y-61163390D01*
X177714286Y-61163390D02*
X177761905Y-61258628D01*
X177761905Y-61258628D02*
X177809524Y-61306247D01*
X177809524Y-61306247D02*
X177904762Y-61353866D01*
X177904762Y-61353866D02*
X178095238Y-61353866D01*
X178095238Y-61353866D02*
X178190476Y-61306247D01*
X178190476Y-61306247D02*
X178238095Y-61258628D01*
X178238095Y-61258628D02*
X178285714Y-61163390D01*
X86650057Y-81675238D02*
X86602438Y-81770476D01*
X86602438Y-81770476D02*
X86507200Y-81865714D01*
X86507200Y-81865714D02*
X86364342Y-82008571D01*
X86364342Y-82008571D02*
X86316723Y-82103809D01*
X86316723Y-82103809D02*
X86316723Y-82199047D01*
X86554819Y-82151428D02*
X86507200Y-82246666D01*
X86507200Y-82246666D02*
X86411961Y-82341904D01*
X86411961Y-82341904D02*
X86221485Y-82389523D01*
X86221485Y-82389523D02*
X85888152Y-82389523D01*
X85888152Y-82389523D02*
X85697676Y-82341904D01*
X85697676Y-82341904D02*
X85602438Y-82246666D01*
X85602438Y-82246666D02*
X85554819Y-82151428D01*
X85554819Y-82151428D02*
X85554819Y-81960952D01*
X85554819Y-81960952D02*
X85602438Y-81865714D01*
X85602438Y-81865714D02*
X85697676Y-81770476D01*
X85697676Y-81770476D02*
X85888152Y-81722857D01*
X85888152Y-81722857D02*
X86221485Y-81722857D01*
X86221485Y-81722857D02*
X86411961Y-81770476D01*
X86411961Y-81770476D02*
X86507200Y-81865714D01*
X86507200Y-81865714D02*
X86554819Y-81960952D01*
X86554819Y-81960952D02*
X86554819Y-82151428D01*
X85554819Y-80818095D02*
X85554819Y-81294285D01*
X85554819Y-81294285D02*
X86031009Y-81341904D01*
X86031009Y-81341904D02*
X85983390Y-81294285D01*
X85983390Y-81294285D02*
X85935771Y-81199047D01*
X85935771Y-81199047D02*
X85935771Y-80960952D01*
X85935771Y-80960952D02*
X85983390Y-80865714D01*
X85983390Y-80865714D02*
X86031009Y-80818095D01*
X86031009Y-80818095D02*
X86126247Y-80770476D01*
X86126247Y-80770476D02*
X86364342Y-80770476D01*
X86364342Y-80770476D02*
X86459580Y-80818095D01*
X86459580Y-80818095D02*
X86507200Y-80865714D01*
X86507200Y-80865714D02*
X86554819Y-80960952D01*
X86554819Y-80960952D02*
X86554819Y-81199047D01*
X86554819Y-81199047D02*
X86507200Y-81294285D01*
X86507200Y-81294285D02*
X86459580Y-81341904D01*
X121507142Y-49234819D02*
X121173809Y-48758628D01*
X120935714Y-49234819D02*
X120935714Y-48234819D01*
X120935714Y-48234819D02*
X121316666Y-48234819D01*
X121316666Y-48234819D02*
X121411904Y-48282438D01*
X121411904Y-48282438D02*
X121459523Y-48330057D01*
X121459523Y-48330057D02*
X121507142Y-48425295D01*
X121507142Y-48425295D02*
X121507142Y-48568152D01*
X121507142Y-48568152D02*
X121459523Y-48663390D01*
X121459523Y-48663390D02*
X121411904Y-48711009D01*
X121411904Y-48711009D02*
X121316666Y-48758628D01*
X121316666Y-48758628D02*
X120935714Y-48758628D01*
X122459523Y-49234819D02*
X121888095Y-49234819D01*
X122173809Y-49234819D02*
X122173809Y-48234819D01*
X122173809Y-48234819D02*
X122078571Y-48377676D01*
X122078571Y-48377676D02*
X121983333Y-48472914D01*
X121983333Y-48472914D02*
X121888095Y-48520533D01*
X122840476Y-48330057D02*
X122888095Y-48282438D01*
X122888095Y-48282438D02*
X122983333Y-48234819D01*
X122983333Y-48234819D02*
X123221428Y-48234819D01*
X123221428Y-48234819D02*
X123316666Y-48282438D01*
X123316666Y-48282438D02*
X123364285Y-48330057D01*
X123364285Y-48330057D02*
X123411904Y-48425295D01*
X123411904Y-48425295D02*
X123411904Y-48520533D01*
X123411904Y-48520533D02*
X123364285Y-48663390D01*
X123364285Y-48663390D02*
X122792857Y-49234819D01*
X122792857Y-49234819D02*
X123411904Y-49234819D01*
X178034819Y-97833333D02*
X178749104Y-97833333D01*
X178749104Y-97833333D02*
X178891961Y-97880952D01*
X178891961Y-97880952D02*
X178987200Y-97976190D01*
X178987200Y-97976190D02*
X179034819Y-98119047D01*
X179034819Y-98119047D02*
X179034819Y-98214285D01*
X179034819Y-97309523D02*
X179034819Y-97119047D01*
X179034819Y-97119047D02*
X178987200Y-97023809D01*
X178987200Y-97023809D02*
X178939580Y-96976190D01*
X178939580Y-96976190D02*
X178796723Y-96880952D01*
X178796723Y-96880952D02*
X178606247Y-96833333D01*
X178606247Y-96833333D02*
X178225295Y-96833333D01*
X178225295Y-96833333D02*
X178130057Y-96880952D01*
X178130057Y-96880952D02*
X178082438Y-96928571D01*
X178082438Y-96928571D02*
X178034819Y-97023809D01*
X178034819Y-97023809D02*
X178034819Y-97214285D01*
X178034819Y-97214285D02*
X178082438Y-97309523D01*
X178082438Y-97309523D02*
X178130057Y-97357142D01*
X178130057Y-97357142D02*
X178225295Y-97404761D01*
X178225295Y-97404761D02*
X178463390Y-97404761D01*
X178463390Y-97404761D02*
X178558628Y-97357142D01*
X178558628Y-97357142D02*
X178606247Y-97309523D01*
X178606247Y-97309523D02*
X178653866Y-97214285D01*
X178653866Y-97214285D02*
X178653866Y-97023809D01*
X178653866Y-97023809D02*
X178606247Y-96928571D01*
X178606247Y-96928571D02*
X178558628Y-96880952D01*
X178558628Y-96880952D02*
X178463390Y-96833333D01*
X162007142Y-80734819D02*
X161673809Y-80258628D01*
X161435714Y-80734819D02*
X161435714Y-79734819D01*
X161435714Y-79734819D02*
X161816666Y-79734819D01*
X161816666Y-79734819D02*
X161911904Y-79782438D01*
X161911904Y-79782438D02*
X161959523Y-79830057D01*
X161959523Y-79830057D02*
X162007142Y-79925295D01*
X162007142Y-79925295D02*
X162007142Y-80068152D01*
X162007142Y-80068152D02*
X161959523Y-80163390D01*
X161959523Y-80163390D02*
X161911904Y-80211009D01*
X161911904Y-80211009D02*
X161816666Y-80258628D01*
X161816666Y-80258628D02*
X161435714Y-80258628D01*
X162959523Y-80734819D02*
X162388095Y-80734819D01*
X162673809Y-80734819D02*
X162673809Y-79734819D01*
X162673809Y-79734819D02*
X162578571Y-79877676D01*
X162578571Y-79877676D02*
X162483333Y-79972914D01*
X162483333Y-79972914D02*
X162388095Y-80020533D01*
X163530952Y-80163390D02*
X163435714Y-80115771D01*
X163435714Y-80115771D02*
X163388095Y-80068152D01*
X163388095Y-80068152D02*
X163340476Y-79972914D01*
X163340476Y-79972914D02*
X163340476Y-79925295D01*
X163340476Y-79925295D02*
X163388095Y-79830057D01*
X163388095Y-79830057D02*
X163435714Y-79782438D01*
X163435714Y-79782438D02*
X163530952Y-79734819D01*
X163530952Y-79734819D02*
X163721428Y-79734819D01*
X163721428Y-79734819D02*
X163816666Y-79782438D01*
X163816666Y-79782438D02*
X163864285Y-79830057D01*
X163864285Y-79830057D02*
X163911904Y-79925295D01*
X163911904Y-79925295D02*
X163911904Y-79972914D01*
X163911904Y-79972914D02*
X163864285Y-80068152D01*
X163864285Y-80068152D02*
X163816666Y-80115771D01*
X163816666Y-80115771D02*
X163721428Y-80163390D01*
X163721428Y-80163390D02*
X163530952Y-80163390D01*
X163530952Y-80163390D02*
X163435714Y-80211009D01*
X163435714Y-80211009D02*
X163388095Y-80258628D01*
X163388095Y-80258628D02*
X163340476Y-80353866D01*
X163340476Y-80353866D02*
X163340476Y-80544342D01*
X163340476Y-80544342D02*
X163388095Y-80639580D01*
X163388095Y-80639580D02*
X163435714Y-80687200D01*
X163435714Y-80687200D02*
X163530952Y-80734819D01*
X163530952Y-80734819D02*
X163721428Y-80734819D01*
X163721428Y-80734819D02*
X163816666Y-80687200D01*
X163816666Y-80687200D02*
X163864285Y-80639580D01*
X163864285Y-80639580D02*
X163911904Y-80544342D01*
X163911904Y-80544342D02*
X163911904Y-80353866D01*
X163911904Y-80353866D02*
X163864285Y-80258628D01*
X163864285Y-80258628D02*
X163816666Y-80211009D01*
X163816666Y-80211009D02*
X163721428Y-80163390D01*
X178034819Y-105309523D02*
X178749104Y-105309523D01*
X178749104Y-105309523D02*
X178891961Y-105357142D01*
X178891961Y-105357142D02*
X178987200Y-105452380D01*
X178987200Y-105452380D02*
X179034819Y-105595237D01*
X179034819Y-105595237D02*
X179034819Y-105690475D01*
X179034819Y-104309523D02*
X179034819Y-104880951D01*
X179034819Y-104595237D02*
X178034819Y-104595237D01*
X178034819Y-104595237D02*
X178177676Y-104690475D01*
X178177676Y-104690475D02*
X178272914Y-104785713D01*
X178272914Y-104785713D02*
X178320533Y-104880951D01*
X179034819Y-103357142D02*
X179034819Y-103928570D01*
X179034819Y-103642856D02*
X178034819Y-103642856D01*
X178034819Y-103642856D02*
X178177676Y-103738094D01*
X178177676Y-103738094D02*
X178272914Y-103833332D01*
X178272914Y-103833332D02*
X178320533Y-103928570D01*
X70414819Y-79053333D02*
X71129104Y-79053333D01*
X71129104Y-79053333D02*
X71271961Y-79100952D01*
X71271961Y-79100952D02*
X71367200Y-79196190D01*
X71367200Y-79196190D02*
X71414819Y-79339047D01*
X71414819Y-79339047D02*
X71414819Y-79434285D01*
X70414819Y-78100952D02*
X70414819Y-78577142D01*
X70414819Y-78577142D02*
X70891009Y-78624761D01*
X70891009Y-78624761D02*
X70843390Y-78577142D01*
X70843390Y-78577142D02*
X70795771Y-78481904D01*
X70795771Y-78481904D02*
X70795771Y-78243809D01*
X70795771Y-78243809D02*
X70843390Y-78148571D01*
X70843390Y-78148571D02*
X70891009Y-78100952D01*
X70891009Y-78100952D02*
X70986247Y-78053333D01*
X70986247Y-78053333D02*
X71224342Y-78053333D01*
X71224342Y-78053333D02*
X71319580Y-78100952D01*
X71319580Y-78100952D02*
X71367200Y-78148571D01*
X71367200Y-78148571D02*
X71414819Y-78243809D01*
X71414819Y-78243809D02*
X71414819Y-78481904D01*
X71414819Y-78481904D02*
X71367200Y-78577142D01*
X71367200Y-78577142D02*
X71319580Y-78624761D01*
X146483333Y-69954819D02*
X146150000Y-69478628D01*
X145911905Y-69954819D02*
X145911905Y-68954819D01*
X145911905Y-68954819D02*
X146292857Y-68954819D01*
X146292857Y-68954819D02*
X146388095Y-69002438D01*
X146388095Y-69002438D02*
X146435714Y-69050057D01*
X146435714Y-69050057D02*
X146483333Y-69145295D01*
X146483333Y-69145295D02*
X146483333Y-69288152D01*
X146483333Y-69288152D02*
X146435714Y-69383390D01*
X146435714Y-69383390D02*
X146388095Y-69431009D01*
X146388095Y-69431009D02*
X146292857Y-69478628D01*
X146292857Y-69478628D02*
X145911905Y-69478628D01*
X147054762Y-69383390D02*
X146959524Y-69335771D01*
X146959524Y-69335771D02*
X146911905Y-69288152D01*
X146911905Y-69288152D02*
X146864286Y-69192914D01*
X146864286Y-69192914D02*
X146864286Y-69145295D01*
X146864286Y-69145295D02*
X146911905Y-69050057D01*
X146911905Y-69050057D02*
X146959524Y-69002438D01*
X146959524Y-69002438D02*
X147054762Y-68954819D01*
X147054762Y-68954819D02*
X147245238Y-68954819D01*
X147245238Y-68954819D02*
X147340476Y-69002438D01*
X147340476Y-69002438D02*
X147388095Y-69050057D01*
X147388095Y-69050057D02*
X147435714Y-69145295D01*
X147435714Y-69145295D02*
X147435714Y-69192914D01*
X147435714Y-69192914D02*
X147388095Y-69288152D01*
X147388095Y-69288152D02*
X147340476Y-69335771D01*
X147340476Y-69335771D02*
X147245238Y-69383390D01*
X147245238Y-69383390D02*
X147054762Y-69383390D01*
X147054762Y-69383390D02*
X146959524Y-69431009D01*
X146959524Y-69431009D02*
X146911905Y-69478628D01*
X146911905Y-69478628D02*
X146864286Y-69573866D01*
X146864286Y-69573866D02*
X146864286Y-69764342D01*
X146864286Y-69764342D02*
X146911905Y-69859580D01*
X146911905Y-69859580D02*
X146959524Y-69907200D01*
X146959524Y-69907200D02*
X147054762Y-69954819D01*
X147054762Y-69954819D02*
X147245238Y-69954819D01*
X147245238Y-69954819D02*
X147340476Y-69907200D01*
X147340476Y-69907200D02*
X147388095Y-69859580D01*
X147388095Y-69859580D02*
X147435714Y-69764342D01*
X147435714Y-69764342D02*
X147435714Y-69573866D01*
X147435714Y-69573866D02*
X147388095Y-69478628D01*
X147388095Y-69478628D02*
X147340476Y-69431009D01*
X147340476Y-69431009D02*
X147245238Y-69383390D01*
X86650057Y-110135238D02*
X86602438Y-110230476D01*
X86602438Y-110230476D02*
X86507200Y-110325714D01*
X86507200Y-110325714D02*
X86364342Y-110468571D01*
X86364342Y-110468571D02*
X86316723Y-110563809D01*
X86316723Y-110563809D02*
X86316723Y-110659047D01*
X86554819Y-110611428D02*
X86507200Y-110706666D01*
X86507200Y-110706666D02*
X86411961Y-110801904D01*
X86411961Y-110801904D02*
X86221485Y-110849523D01*
X86221485Y-110849523D02*
X85888152Y-110849523D01*
X85888152Y-110849523D02*
X85697676Y-110801904D01*
X85697676Y-110801904D02*
X85602438Y-110706666D01*
X85602438Y-110706666D02*
X85554819Y-110611428D01*
X85554819Y-110611428D02*
X85554819Y-110420952D01*
X85554819Y-110420952D02*
X85602438Y-110325714D01*
X85602438Y-110325714D02*
X85697676Y-110230476D01*
X85697676Y-110230476D02*
X85888152Y-110182857D01*
X85888152Y-110182857D02*
X86221485Y-110182857D01*
X86221485Y-110182857D02*
X86411961Y-110230476D01*
X86411961Y-110230476D02*
X86507200Y-110325714D01*
X86507200Y-110325714D02*
X86554819Y-110420952D01*
X86554819Y-110420952D02*
X86554819Y-110611428D01*
X85554819Y-109849523D02*
X85554819Y-109182857D01*
X85554819Y-109182857D02*
X86554819Y-109611428D01*
X121507142Y-54734819D02*
X121173809Y-54258628D01*
X120935714Y-54734819D02*
X120935714Y-53734819D01*
X120935714Y-53734819D02*
X121316666Y-53734819D01*
X121316666Y-53734819D02*
X121411904Y-53782438D01*
X121411904Y-53782438D02*
X121459523Y-53830057D01*
X121459523Y-53830057D02*
X121507142Y-53925295D01*
X121507142Y-53925295D02*
X121507142Y-54068152D01*
X121507142Y-54068152D02*
X121459523Y-54163390D01*
X121459523Y-54163390D02*
X121411904Y-54211009D01*
X121411904Y-54211009D02*
X121316666Y-54258628D01*
X121316666Y-54258628D02*
X120935714Y-54258628D01*
X122459523Y-54734819D02*
X121888095Y-54734819D01*
X122173809Y-54734819D02*
X122173809Y-53734819D01*
X122173809Y-53734819D02*
X122078571Y-53877676D01*
X122078571Y-53877676D02*
X121983333Y-53972914D01*
X121983333Y-53972914D02*
X121888095Y-54020533D01*
X122792857Y-53734819D02*
X123411904Y-53734819D01*
X123411904Y-53734819D02*
X123078571Y-54115771D01*
X123078571Y-54115771D02*
X123221428Y-54115771D01*
X123221428Y-54115771D02*
X123316666Y-54163390D01*
X123316666Y-54163390D02*
X123364285Y-54211009D01*
X123364285Y-54211009D02*
X123411904Y-54306247D01*
X123411904Y-54306247D02*
X123411904Y-54544342D01*
X123411904Y-54544342D02*
X123364285Y-54639580D01*
X123364285Y-54639580D02*
X123316666Y-54687200D01*
X123316666Y-54687200D02*
X123221428Y-54734819D01*
X123221428Y-54734819D02*
X122935714Y-54734819D01*
X122935714Y-54734819D02*
X122840476Y-54687200D01*
X122840476Y-54687200D02*
X122792857Y-54639580D01*
X121815714Y-71729104D02*
X122291904Y-71729104D01*
X121720476Y-72014819D02*
X122053809Y-71014819D01*
X122053809Y-71014819D02*
X122387142Y-72014819D01*
X123244285Y-72014819D02*
X122672857Y-72014819D01*
X122958571Y-72014819D02*
X122958571Y-71014819D01*
X122958571Y-71014819D02*
X122863333Y-71157676D01*
X122863333Y-71157676D02*
X122768095Y-71252914D01*
X122768095Y-71252914D02*
X122672857Y-71300533D01*
X70414819Y-93373333D02*
X71129104Y-93373333D01*
X71129104Y-93373333D02*
X71271961Y-93420952D01*
X71271961Y-93420952D02*
X71367200Y-93516190D01*
X71367200Y-93516190D02*
X71414819Y-93659047D01*
X71414819Y-93659047D02*
X71414819Y-93754285D01*
X70414819Y-92468571D02*
X70414819Y-92659047D01*
X70414819Y-92659047D02*
X70462438Y-92754285D01*
X70462438Y-92754285D02*
X70510057Y-92801904D01*
X70510057Y-92801904D02*
X70652914Y-92897142D01*
X70652914Y-92897142D02*
X70843390Y-92944761D01*
X70843390Y-92944761D02*
X71224342Y-92944761D01*
X71224342Y-92944761D02*
X71319580Y-92897142D01*
X71319580Y-92897142D02*
X71367200Y-92849523D01*
X71367200Y-92849523D02*
X71414819Y-92754285D01*
X71414819Y-92754285D02*
X71414819Y-92563809D01*
X71414819Y-92563809D02*
X71367200Y-92468571D01*
X71367200Y-92468571D02*
X71319580Y-92420952D01*
X71319580Y-92420952D02*
X71224342Y-92373333D01*
X71224342Y-92373333D02*
X70986247Y-92373333D01*
X70986247Y-92373333D02*
X70891009Y-92420952D01*
X70891009Y-92420952D02*
X70843390Y-92468571D01*
X70843390Y-92468571D02*
X70795771Y-92563809D01*
X70795771Y-92563809D02*
X70795771Y-92754285D01*
X70795771Y-92754285D02*
X70843390Y-92849523D01*
X70843390Y-92849523D02*
X70891009Y-92897142D01*
X70891009Y-92897142D02*
X70986247Y-92944761D01*
X121507142Y-43734819D02*
X121173809Y-43258628D01*
X120935714Y-43734819D02*
X120935714Y-42734819D01*
X120935714Y-42734819D02*
X121316666Y-42734819D01*
X121316666Y-42734819D02*
X121411904Y-42782438D01*
X121411904Y-42782438D02*
X121459523Y-42830057D01*
X121459523Y-42830057D02*
X121507142Y-42925295D01*
X121507142Y-42925295D02*
X121507142Y-43068152D01*
X121507142Y-43068152D02*
X121459523Y-43163390D01*
X121459523Y-43163390D02*
X121411904Y-43211009D01*
X121411904Y-43211009D02*
X121316666Y-43258628D01*
X121316666Y-43258628D02*
X120935714Y-43258628D01*
X122459523Y-43734819D02*
X121888095Y-43734819D01*
X122173809Y-43734819D02*
X122173809Y-42734819D01*
X122173809Y-42734819D02*
X122078571Y-42877676D01*
X122078571Y-42877676D02*
X121983333Y-42972914D01*
X121983333Y-42972914D02*
X121888095Y-43020533D01*
X123411904Y-43734819D02*
X122840476Y-43734819D01*
X123126190Y-43734819D02*
X123126190Y-42734819D01*
X123126190Y-42734819D02*
X123030952Y-42877676D01*
X123030952Y-42877676D02*
X122935714Y-42972914D01*
X122935714Y-42972914D02*
X122840476Y-43020533D01*
X70414819Y-51373333D02*
X71129104Y-51373333D01*
X71129104Y-51373333D02*
X71271961Y-51420952D01*
X71271961Y-51420952D02*
X71367200Y-51516190D01*
X71367200Y-51516190D02*
X71414819Y-51659047D01*
X71414819Y-51659047D02*
X71414819Y-51754285D01*
X70414819Y-50992380D02*
X70414819Y-50373333D01*
X70414819Y-50373333D02*
X70795771Y-50706666D01*
X70795771Y-50706666D02*
X70795771Y-50563809D01*
X70795771Y-50563809D02*
X70843390Y-50468571D01*
X70843390Y-50468571D02*
X70891009Y-50420952D01*
X70891009Y-50420952D02*
X70986247Y-50373333D01*
X70986247Y-50373333D02*
X71224342Y-50373333D01*
X71224342Y-50373333D02*
X71319580Y-50420952D01*
X71319580Y-50420952D02*
X71367200Y-50468571D01*
X71367200Y-50468571D02*
X71414819Y-50563809D01*
X71414819Y-50563809D02*
X71414819Y-50849523D01*
X71414819Y-50849523D02*
X71367200Y-50944761D01*
X71367200Y-50944761D02*
X71319580Y-50992380D01*
X70181905Y-96024819D02*
X70181905Y-95024819D01*
X70181905Y-95024819D02*
X70420000Y-95024819D01*
X70420000Y-95024819D02*
X70562857Y-95072438D01*
X70562857Y-95072438D02*
X70658095Y-95167676D01*
X70658095Y-95167676D02*
X70705714Y-95262914D01*
X70705714Y-95262914D02*
X70753333Y-95453390D01*
X70753333Y-95453390D02*
X70753333Y-95596247D01*
X70753333Y-95596247D02*
X70705714Y-95786723D01*
X70705714Y-95786723D02*
X70658095Y-95881961D01*
X70658095Y-95881961D02*
X70562857Y-95977200D01*
X70562857Y-95977200D02*
X70420000Y-96024819D01*
X70420000Y-96024819D02*
X70181905Y-96024819D01*
X71610476Y-95358152D02*
X71610476Y-96024819D01*
X71372381Y-94977200D02*
X71134286Y-95691485D01*
X71134286Y-95691485D02*
X71753333Y-95691485D01*
X65578095Y-96394819D02*
X65578095Y-95394819D01*
X66149523Y-96394819D02*
X65720952Y-95823390D01*
X66149523Y-95394819D02*
X65578095Y-95966247D01*
X125944819Y-64508094D02*
X124944819Y-64508094D01*
X124944819Y-64508094D02*
X124944819Y-64269999D01*
X124944819Y-64269999D02*
X124992438Y-64127142D01*
X124992438Y-64127142D02*
X125087676Y-64031904D01*
X125087676Y-64031904D02*
X125182914Y-63984285D01*
X125182914Y-63984285D02*
X125373390Y-63936666D01*
X125373390Y-63936666D02*
X125516247Y-63936666D01*
X125516247Y-63936666D02*
X125706723Y-63984285D01*
X125706723Y-63984285D02*
X125801961Y-64031904D01*
X125801961Y-64031904D02*
X125897200Y-64127142D01*
X125897200Y-64127142D02*
X125944819Y-64269999D01*
X125944819Y-64269999D02*
X125944819Y-64508094D01*
X124944819Y-63603332D02*
X124944819Y-62936666D01*
X124944819Y-62936666D02*
X125944819Y-63365237D01*
X162216666Y-59931009D02*
X161883333Y-59931009D01*
X161883333Y-60454819D02*
X161883333Y-59454819D01*
X161883333Y-59454819D02*
X162359523Y-59454819D01*
X163264285Y-60454819D02*
X162692857Y-60454819D01*
X162978571Y-60454819D02*
X162978571Y-59454819D01*
X162978571Y-59454819D02*
X162883333Y-59597676D01*
X162883333Y-59597676D02*
X162788095Y-59692914D01*
X162788095Y-59692914D02*
X162692857Y-59740533D01*
X180534819Y-54333333D02*
X181249104Y-54333333D01*
X181249104Y-54333333D02*
X181391961Y-54380952D01*
X181391961Y-54380952D02*
X181487200Y-54476190D01*
X181487200Y-54476190D02*
X181534819Y-54619047D01*
X181534819Y-54619047D02*
X181534819Y-54714285D01*
X180630057Y-53904761D02*
X180582438Y-53857142D01*
X180582438Y-53857142D02*
X180534819Y-53761904D01*
X180534819Y-53761904D02*
X180534819Y-53523809D01*
X180534819Y-53523809D02*
X180582438Y-53428571D01*
X180582438Y-53428571D02*
X180630057Y-53380952D01*
X180630057Y-53380952D02*
X180725295Y-53333333D01*
X180725295Y-53333333D02*
X180820533Y-53333333D01*
X180820533Y-53333333D02*
X180963390Y-53380952D01*
X180963390Y-53380952D02*
X181534819Y-53952380D01*
X181534819Y-53952380D02*
X181534819Y-53333333D01*
X146007142Y-95454819D02*
X145673809Y-94978628D01*
X145435714Y-95454819D02*
X145435714Y-94454819D01*
X145435714Y-94454819D02*
X145816666Y-94454819D01*
X145816666Y-94454819D02*
X145911904Y-94502438D01*
X145911904Y-94502438D02*
X145959523Y-94550057D01*
X145959523Y-94550057D02*
X146007142Y-94645295D01*
X146007142Y-94645295D02*
X146007142Y-94788152D01*
X146007142Y-94788152D02*
X145959523Y-94883390D01*
X145959523Y-94883390D02*
X145911904Y-94931009D01*
X145911904Y-94931009D02*
X145816666Y-94978628D01*
X145816666Y-94978628D02*
X145435714Y-94978628D01*
X146959523Y-95454819D02*
X146388095Y-95454819D01*
X146673809Y-95454819D02*
X146673809Y-94454819D01*
X146673809Y-94454819D02*
X146578571Y-94597676D01*
X146578571Y-94597676D02*
X146483333Y-94692914D01*
X146483333Y-94692914D02*
X146388095Y-94740533D01*
X147816666Y-94788152D02*
X147816666Y-95454819D01*
X147578571Y-94407200D02*
X147340476Y-95121485D01*
X147340476Y-95121485D02*
X147959523Y-95121485D01*
X145674819Y-59166666D02*
X145198628Y-59499999D01*
X145674819Y-59738094D02*
X144674819Y-59738094D01*
X144674819Y-59738094D02*
X144674819Y-59357142D01*
X144674819Y-59357142D02*
X144722438Y-59261904D01*
X144722438Y-59261904D02*
X144770057Y-59214285D01*
X144770057Y-59214285D02*
X144865295Y-59166666D01*
X144865295Y-59166666D02*
X145008152Y-59166666D01*
X145008152Y-59166666D02*
X145103390Y-59214285D01*
X145103390Y-59214285D02*
X145151009Y-59261904D01*
X145151009Y-59261904D02*
X145198628Y-59357142D01*
X145198628Y-59357142D02*
X145198628Y-59738094D01*
X145674819Y-58214285D02*
X145674819Y-58785713D01*
X145674819Y-58499999D02*
X144674819Y-58499999D01*
X144674819Y-58499999D02*
X144817676Y-58595237D01*
X144817676Y-58595237D02*
X144912914Y-58690475D01*
X144912914Y-58690475D02*
X144960533Y-58785713D01*
X70261905Y-110484819D02*
X70261905Y-109484819D01*
X70261905Y-109484819D02*
X70500000Y-109484819D01*
X70500000Y-109484819D02*
X70642857Y-109532438D01*
X70642857Y-109532438D02*
X70738095Y-109627676D01*
X70738095Y-109627676D02*
X70785714Y-109722914D01*
X70785714Y-109722914D02*
X70833333Y-109913390D01*
X70833333Y-109913390D02*
X70833333Y-110056247D01*
X70833333Y-110056247D02*
X70785714Y-110246723D01*
X70785714Y-110246723D02*
X70738095Y-110341961D01*
X70738095Y-110341961D02*
X70642857Y-110437200D01*
X70642857Y-110437200D02*
X70500000Y-110484819D01*
X70500000Y-110484819D02*
X70261905Y-110484819D01*
X71738095Y-109484819D02*
X71261905Y-109484819D01*
X71261905Y-109484819D02*
X71214286Y-109961009D01*
X71214286Y-109961009D02*
X71261905Y-109913390D01*
X71261905Y-109913390D02*
X71357143Y-109865771D01*
X71357143Y-109865771D02*
X71595238Y-109865771D01*
X71595238Y-109865771D02*
X71690476Y-109913390D01*
X71690476Y-109913390D02*
X71738095Y-109961009D01*
X71738095Y-109961009D02*
X71785714Y-110056247D01*
X71785714Y-110056247D02*
X71785714Y-110294342D01*
X71785714Y-110294342D02*
X71738095Y-110389580D01*
X71738095Y-110389580D02*
X71690476Y-110437200D01*
X71690476Y-110437200D02*
X71595238Y-110484819D01*
X71595238Y-110484819D02*
X71357143Y-110484819D01*
X71357143Y-110484819D02*
X71261905Y-110437200D01*
X71261905Y-110437200D02*
X71214286Y-110389580D01*
X65658095Y-110854819D02*
X65658095Y-109854819D01*
X66229523Y-110854819D02*
X65800952Y-110283390D01*
X66229523Y-109854819D02*
X65658095Y-110426247D01*
X70261905Y-54954819D02*
X70261905Y-53954819D01*
X70261905Y-53954819D02*
X70500000Y-53954819D01*
X70500000Y-53954819D02*
X70642857Y-54002438D01*
X70642857Y-54002438D02*
X70738095Y-54097676D01*
X70738095Y-54097676D02*
X70785714Y-54192914D01*
X70785714Y-54192914D02*
X70833333Y-54383390D01*
X70833333Y-54383390D02*
X70833333Y-54526247D01*
X70833333Y-54526247D02*
X70785714Y-54716723D01*
X70785714Y-54716723D02*
X70738095Y-54811961D01*
X70738095Y-54811961D02*
X70642857Y-54907200D01*
X70642857Y-54907200D02*
X70500000Y-54954819D01*
X70500000Y-54954819D02*
X70261905Y-54954819D01*
X71785714Y-54954819D02*
X71214286Y-54954819D01*
X71500000Y-54954819D02*
X71500000Y-53954819D01*
X71500000Y-53954819D02*
X71404762Y-54097676D01*
X71404762Y-54097676D02*
X71309524Y-54192914D01*
X71309524Y-54192914D02*
X71214286Y-54240533D01*
X65578095Y-55394819D02*
X65578095Y-54394819D01*
X66149523Y-55394819D02*
X65720952Y-54823390D01*
X66149523Y-54394819D02*
X65578095Y-54966247D01*
X177994819Y-91309523D02*
X178709104Y-91309523D01*
X178709104Y-91309523D02*
X178851961Y-91357142D01*
X178851961Y-91357142D02*
X178947200Y-91452380D01*
X178947200Y-91452380D02*
X178994819Y-91595237D01*
X178994819Y-91595237D02*
X178994819Y-91690475D01*
X178994819Y-90309523D02*
X178994819Y-90880951D01*
X178994819Y-90595237D02*
X177994819Y-90595237D01*
X177994819Y-90595237D02*
X178137676Y-90690475D01*
X178137676Y-90690475D02*
X178232914Y-90785713D01*
X178232914Y-90785713D02*
X178280533Y-90880951D01*
X178090057Y-89928570D02*
X178042438Y-89880951D01*
X178042438Y-89880951D02*
X177994819Y-89785713D01*
X177994819Y-89785713D02*
X177994819Y-89547618D01*
X177994819Y-89547618D02*
X178042438Y-89452380D01*
X178042438Y-89452380D02*
X178090057Y-89404761D01*
X178090057Y-89404761D02*
X178185295Y-89357142D01*
X178185295Y-89357142D02*
X178280533Y-89357142D01*
X178280533Y-89357142D02*
X178423390Y-89404761D01*
X178423390Y-89404761D02*
X178994819Y-89976189D01*
X178994819Y-89976189D02*
X178994819Y-89357142D01*
X97183333Y-76774819D02*
X96850000Y-76298628D01*
X96611905Y-76774819D02*
X96611905Y-75774819D01*
X96611905Y-75774819D02*
X96992857Y-75774819D01*
X96992857Y-75774819D02*
X97088095Y-75822438D01*
X97088095Y-75822438D02*
X97135714Y-75870057D01*
X97135714Y-75870057D02*
X97183333Y-75965295D01*
X97183333Y-75965295D02*
X97183333Y-76108152D01*
X97183333Y-76108152D02*
X97135714Y-76203390D01*
X97135714Y-76203390D02*
X97088095Y-76251009D01*
X97088095Y-76251009D02*
X96992857Y-76298628D01*
X96992857Y-76298628D02*
X96611905Y-76298628D01*
X98088095Y-75774819D02*
X97611905Y-75774819D01*
X97611905Y-75774819D02*
X97564286Y-76251009D01*
X97564286Y-76251009D02*
X97611905Y-76203390D01*
X97611905Y-76203390D02*
X97707143Y-76155771D01*
X97707143Y-76155771D02*
X97945238Y-76155771D01*
X97945238Y-76155771D02*
X98040476Y-76203390D01*
X98040476Y-76203390D02*
X98088095Y-76251009D01*
X98088095Y-76251009D02*
X98135714Y-76346247D01*
X98135714Y-76346247D02*
X98135714Y-76584342D01*
X98135714Y-76584342D02*
X98088095Y-76679580D01*
X98088095Y-76679580D02*
X98040476Y-76727200D01*
X98040476Y-76727200D02*
X97945238Y-76774819D01*
X97945238Y-76774819D02*
X97707143Y-76774819D01*
X97707143Y-76774819D02*
X97611905Y-76727200D01*
X97611905Y-76727200D02*
X97564286Y-76679580D01*
X70414819Y-107833333D02*
X71129104Y-107833333D01*
X71129104Y-107833333D02*
X71271961Y-107880952D01*
X71271961Y-107880952D02*
X71367200Y-107976190D01*
X71367200Y-107976190D02*
X71414819Y-108119047D01*
X71414819Y-108119047D02*
X71414819Y-108214285D01*
X70414819Y-107452380D02*
X70414819Y-106785714D01*
X70414819Y-106785714D02*
X71414819Y-107214285D01*
X168864761Y-40950057D02*
X168769523Y-40902438D01*
X168769523Y-40902438D02*
X168674285Y-40807200D01*
X168674285Y-40807200D02*
X168531428Y-40664342D01*
X168531428Y-40664342D02*
X168436190Y-40616723D01*
X168436190Y-40616723D02*
X168340952Y-40616723D01*
X168388571Y-40854819D02*
X168293333Y-40807200D01*
X168293333Y-40807200D02*
X168198095Y-40711961D01*
X168198095Y-40711961D02*
X168150476Y-40521485D01*
X168150476Y-40521485D02*
X168150476Y-40188152D01*
X168150476Y-40188152D02*
X168198095Y-39997676D01*
X168198095Y-39997676D02*
X168293333Y-39902438D01*
X168293333Y-39902438D02*
X168388571Y-39854819D01*
X168388571Y-39854819D02*
X168579047Y-39854819D01*
X168579047Y-39854819D02*
X168674285Y-39902438D01*
X168674285Y-39902438D02*
X168769523Y-39997676D01*
X168769523Y-39997676D02*
X168817142Y-40188152D01*
X168817142Y-40188152D02*
X168817142Y-40521485D01*
X168817142Y-40521485D02*
X168769523Y-40711961D01*
X168769523Y-40711961D02*
X168674285Y-40807200D01*
X168674285Y-40807200D02*
X168579047Y-40854819D01*
X168579047Y-40854819D02*
X168388571Y-40854819D01*
X169769523Y-40854819D02*
X169198095Y-40854819D01*
X169483809Y-40854819D02*
X169483809Y-39854819D01*
X169483809Y-39854819D02*
X169388571Y-39997676D01*
X169388571Y-39997676D02*
X169293333Y-40092914D01*
X169293333Y-40092914D02*
X169198095Y-40140533D01*
X180534819Y-72833333D02*
X181249104Y-72833333D01*
X181249104Y-72833333D02*
X181391961Y-72880952D01*
X181391961Y-72880952D02*
X181487200Y-72976190D01*
X181487200Y-72976190D02*
X181534819Y-73119047D01*
X181534819Y-73119047D02*
X181534819Y-73214285D01*
X180963390Y-72214285D02*
X180915771Y-72309523D01*
X180915771Y-72309523D02*
X180868152Y-72357142D01*
X180868152Y-72357142D02*
X180772914Y-72404761D01*
X180772914Y-72404761D02*
X180725295Y-72404761D01*
X180725295Y-72404761D02*
X180630057Y-72357142D01*
X180630057Y-72357142D02*
X180582438Y-72309523D01*
X180582438Y-72309523D02*
X180534819Y-72214285D01*
X180534819Y-72214285D02*
X180534819Y-72023809D01*
X180534819Y-72023809D02*
X180582438Y-71928571D01*
X180582438Y-71928571D02*
X180630057Y-71880952D01*
X180630057Y-71880952D02*
X180725295Y-71833333D01*
X180725295Y-71833333D02*
X180772914Y-71833333D01*
X180772914Y-71833333D02*
X180868152Y-71880952D01*
X180868152Y-71880952D02*
X180915771Y-71928571D01*
X180915771Y-71928571D02*
X180963390Y-72023809D01*
X180963390Y-72023809D02*
X180963390Y-72214285D01*
X180963390Y-72214285D02*
X181011009Y-72309523D01*
X181011009Y-72309523D02*
X181058628Y-72357142D01*
X181058628Y-72357142D02*
X181153866Y-72404761D01*
X181153866Y-72404761D02*
X181344342Y-72404761D01*
X181344342Y-72404761D02*
X181439580Y-72357142D01*
X181439580Y-72357142D02*
X181487200Y-72309523D01*
X181487200Y-72309523D02*
X181534819Y-72214285D01*
X181534819Y-72214285D02*
X181534819Y-72023809D01*
X181534819Y-72023809D02*
X181487200Y-71928571D01*
X181487200Y-71928571D02*
X181439580Y-71880952D01*
X181439580Y-71880952D02*
X181344342Y-71833333D01*
X181344342Y-71833333D02*
X181153866Y-71833333D01*
X181153866Y-71833333D02*
X181058628Y-71880952D01*
X181058628Y-71880952D02*
X181011009Y-71928571D01*
X181011009Y-71928571D02*
X180963390Y-72023809D01*
X97333333Y-49234819D02*
X97000000Y-48758628D01*
X96761905Y-49234819D02*
X96761905Y-48234819D01*
X96761905Y-48234819D02*
X97142857Y-48234819D01*
X97142857Y-48234819D02*
X97238095Y-48282438D01*
X97238095Y-48282438D02*
X97285714Y-48330057D01*
X97285714Y-48330057D02*
X97333333Y-48425295D01*
X97333333Y-48425295D02*
X97333333Y-48568152D01*
X97333333Y-48568152D02*
X97285714Y-48663390D01*
X97285714Y-48663390D02*
X97238095Y-48711009D01*
X97238095Y-48711009D02*
X97142857Y-48758628D01*
X97142857Y-48758628D02*
X96761905Y-48758628D01*
X97666667Y-48234819D02*
X98285714Y-48234819D01*
X98285714Y-48234819D02*
X97952381Y-48615771D01*
X97952381Y-48615771D02*
X98095238Y-48615771D01*
X98095238Y-48615771D02*
X98190476Y-48663390D01*
X98190476Y-48663390D02*
X98238095Y-48711009D01*
X98238095Y-48711009D02*
X98285714Y-48806247D01*
X98285714Y-48806247D02*
X98285714Y-49044342D01*
X98285714Y-49044342D02*
X98238095Y-49139580D01*
X98238095Y-49139580D02*
X98190476Y-49187200D01*
X98190476Y-49187200D02*
X98095238Y-49234819D01*
X98095238Y-49234819D02*
X97809524Y-49234819D01*
X97809524Y-49234819D02*
X97714286Y-49187200D01*
X97714286Y-49187200D02*
X97666667Y-49139580D01*
X82833333Y-40109580D02*
X82785714Y-40157200D01*
X82785714Y-40157200D02*
X82642857Y-40204819D01*
X82642857Y-40204819D02*
X82547619Y-40204819D01*
X82547619Y-40204819D02*
X82404762Y-40157200D01*
X82404762Y-40157200D02*
X82309524Y-40061961D01*
X82309524Y-40061961D02*
X82261905Y-39966723D01*
X82261905Y-39966723D02*
X82214286Y-39776247D01*
X82214286Y-39776247D02*
X82214286Y-39633390D01*
X82214286Y-39633390D02*
X82261905Y-39442914D01*
X82261905Y-39442914D02*
X82309524Y-39347676D01*
X82309524Y-39347676D02*
X82404762Y-39252438D01*
X82404762Y-39252438D02*
X82547619Y-39204819D01*
X82547619Y-39204819D02*
X82642857Y-39204819D01*
X82642857Y-39204819D02*
X82785714Y-39252438D01*
X82785714Y-39252438D02*
X82833333Y-39300057D01*
X83785714Y-40204819D02*
X83214286Y-40204819D01*
X83500000Y-40204819D02*
X83500000Y-39204819D01*
X83500000Y-39204819D02*
X83404762Y-39347676D01*
X83404762Y-39347676D02*
X83309524Y-39442914D01*
X83309524Y-39442914D02*
X83214286Y-39490533D01*
X97183333Y-62774819D02*
X96850000Y-62298628D01*
X96611905Y-62774819D02*
X96611905Y-61774819D01*
X96611905Y-61774819D02*
X96992857Y-61774819D01*
X96992857Y-61774819D02*
X97088095Y-61822438D01*
X97088095Y-61822438D02*
X97135714Y-61870057D01*
X97135714Y-61870057D02*
X97183333Y-61965295D01*
X97183333Y-61965295D02*
X97183333Y-62108152D01*
X97183333Y-62108152D02*
X97135714Y-62203390D01*
X97135714Y-62203390D02*
X97088095Y-62251009D01*
X97088095Y-62251009D02*
X96992857Y-62298628D01*
X96992857Y-62298628D02*
X96611905Y-62298628D01*
X98040476Y-62108152D02*
X98040476Y-62774819D01*
X97802381Y-61727200D02*
X97564286Y-62441485D01*
X97564286Y-62441485D02*
X98183333Y-62441485D01*
D12*
%TO.C,Q6*%
X80640000Y-90470000D02*
X85260000Y-90470000D01*
X80640000Y-100690000D02*
X80640000Y-90470000D01*
X83880000Y-90470000D02*
X83880000Y-100690000D01*
X85260000Y-90470000D02*
X85260000Y-100690000D01*
X85260000Y-93730000D02*
X83880000Y-93730000D01*
X85260000Y-97430000D02*
X83880000Y-97430000D01*
X85260000Y-100690000D02*
X80640000Y-100690000D01*
%TO.C,R16*%
X141190000Y-83000000D02*
X141880000Y-83000000D01*
X151810000Y-83000000D02*
X151120000Y-83000000D01*
X151120000Y-84720000D02*
X141880000Y-84720000D01*
X141880000Y-81280000D01*
X151120000Y-81280000D01*
X151120000Y-84720000D01*
%TO.C,D2*%
X67180000Y-70540000D02*
X68200000Y-70540000D01*
X68980000Y-69070000D02*
X68980000Y-72010000D01*
X69100000Y-69070000D02*
X69100000Y-72010000D01*
X69220000Y-69070000D02*
X69220000Y-72010000D01*
X74660000Y-70540000D02*
X73640000Y-70540000D01*
X68200000Y-69070000D02*
X73640000Y-69070000D01*
X73640000Y-72010000D01*
X68200000Y-72010000D01*
X68200000Y-69070000D01*
%TO.C,R19*%
X157340000Y-104500000D02*
X158030000Y-104500000D01*
X167960000Y-104500000D02*
X167270000Y-104500000D01*
X158030000Y-102780000D02*
X167270000Y-102780000D01*
X167270000Y-106220000D01*
X158030000Y-106220000D01*
X158030000Y-102780000D01*
%TO.C,U1*%
X150850000Y-41240000D02*
X161070000Y-41240000D01*
X150850000Y-42620000D02*
X161070000Y-42620000D01*
X150850000Y-45860000D02*
X150850000Y-41240000D01*
X154110000Y-41240000D02*
X154110000Y-42620000D01*
X157810000Y-41240000D02*
X157810000Y-42620000D01*
X161070000Y-41240000D02*
X161070000Y-45860000D01*
X161070000Y-45860000D02*
X150850000Y-45860000D01*
%TO.C,Q2*%
X141030000Y-42650000D02*
X137430000Y-42650000D01*
X139230000Y-47100000D02*
G75*
G02*
X137391522Y-42661522I0J2600000D01*
G01*
X141068478Y-42661522D02*
G75*
G02*
X139230000Y-47100001I-1838478J-1838478D01*
G01*
%TO.C,Q3*%
X80640000Y-48970000D02*
X85260000Y-48970000D01*
X80640000Y-59190000D02*
X80640000Y-48970000D01*
X83880000Y-48970000D02*
X83880000Y-59190000D01*
X85260000Y-48970000D02*
X85260000Y-59190000D01*
X85260000Y-52230000D02*
X83880000Y-52230000D01*
X85260000Y-55930000D02*
X83880000Y-55930000D01*
X85260000Y-59190000D02*
X80640000Y-59190000D01*
%TO.C,R17*%
X141340000Y-104500000D02*
X142030000Y-104500000D01*
X151960000Y-104500000D02*
X151270000Y-104500000D01*
X151270000Y-106220000D02*
X142030000Y-106220000D01*
X142030000Y-102780000D01*
X151270000Y-102780000D01*
X151270000Y-106220000D01*
%TO.C,R7*%
X92190000Y-107540000D02*
X92880000Y-107540000D01*
X102810000Y-107540000D02*
X102120000Y-107540000D01*
X92880000Y-105820000D02*
X102120000Y-105820000D01*
X102120000Y-109260000D01*
X92880000Y-109260000D01*
X92880000Y-105820000D01*
%TO.C,R2*%
X136500000Y-53690000D02*
X136500000Y-54380000D01*
X136500000Y-64310000D02*
X136500000Y-63620000D01*
X138220000Y-54380000D02*
X134780000Y-54380000D01*
X134780000Y-63620000D01*
X138220000Y-63620000D01*
X138220000Y-54380000D01*
%TO.C,J1*%
X64540000Y-42120000D02*
X64540000Y-44880000D01*
X69730000Y-42120000D02*
X64540000Y-42120000D01*
X69730000Y-42120000D02*
X69730000Y-44880000D01*
X69730000Y-44880000D02*
X64540000Y-44880000D01*
X71000000Y-42120000D02*
X72380000Y-42120000D01*
X72380000Y-42120000D02*
X72380000Y-43500000D01*
%TO.C,R10*%
X157340000Y-72500000D02*
X158030000Y-72500000D01*
X167960000Y-72500000D02*
X167270000Y-72500000D01*
X158030000Y-70780000D02*
X167270000Y-70780000D01*
X167270000Y-74220000D01*
X158030000Y-74220000D01*
X158030000Y-70780000D01*
%TO.C,D8*%
X114420000Y-62210000D02*
X114264000Y-62210000D01*
X116736000Y-62210000D02*
X116580000Y-62210000D01*
X114420000Y-64810961D02*
G75*
G02*
X114420000Y-62729039I1080000J1040961D01*
G01*
X114420000Y-65441437D02*
G75*
G02*
X114264484Y-62210000I1080000J1671437D01*
G01*
X116580000Y-62729039D02*
G75*
G02*
X116580000Y-64810961I-1080000J-1040961D01*
G01*
X116735516Y-62210000D02*
G75*
G02*
X116580000Y-65441437I-1235516J-1560000D01*
G01*
%TO.C,C2*%
X171855113Y-72783000D02*
X171855113Y-72217000D01*
X171895113Y-73017000D02*
X171895113Y-71983000D01*
X171935113Y-73177000D02*
X171935113Y-71823000D01*
X171975113Y-73305000D02*
X171975113Y-71695000D01*
X172015113Y-73414000D02*
X172015113Y-71586000D01*
X172055113Y-73511000D02*
X172055113Y-71489000D01*
X172095113Y-73598000D02*
X172095113Y-71402000D01*
X172135113Y-73677000D02*
X172135113Y-71323000D01*
X172175113Y-73751000D02*
X172175113Y-71249000D01*
X172215113Y-73819000D02*
X172215113Y-71181000D01*
X172255113Y-73883000D02*
X172255113Y-71117000D01*
X172295113Y-73943000D02*
X172295113Y-71057000D01*
X172335113Y-73999000D02*
X172335113Y-71001000D01*
X172375113Y-74053000D02*
X172375113Y-70947000D01*
X172415113Y-74104000D02*
X172415113Y-70896000D01*
X172455113Y-71460000D02*
X172455113Y-70848000D01*
X172455113Y-74152000D02*
X172455113Y-73540000D01*
X172495113Y-71460000D02*
X172495113Y-70801000D01*
X172495113Y-74199000D02*
X172495113Y-73540000D01*
X172535113Y-71460000D02*
X172535113Y-70757000D01*
X172535113Y-74243000D02*
X172535113Y-73540000D01*
X172575113Y-71460000D02*
X172575113Y-70715000D01*
X172575113Y-74285000D02*
X172575113Y-73540000D01*
X172615113Y-71460000D02*
X172615113Y-70675000D01*
X172615113Y-74325000D02*
X172615113Y-73540000D01*
X172655113Y-71460000D02*
X172655113Y-70636000D01*
X172655113Y-74364000D02*
X172655113Y-73540000D01*
X172695113Y-71460000D02*
X172695113Y-70599000D01*
X172695113Y-74401000D02*
X172695113Y-73540000D01*
X172735113Y-71460000D02*
X172735113Y-70564000D01*
X172735113Y-74436000D02*
X172735113Y-73540000D01*
X172775113Y-71460000D02*
X172775113Y-70530000D01*
X172775113Y-74470000D02*
X172775113Y-73540000D01*
X172815113Y-71460000D02*
X172815113Y-70497000D01*
X172815113Y-74503000D02*
X172815113Y-73540000D01*
X172855113Y-71460000D02*
X172855113Y-70465000D01*
X172855113Y-74535000D02*
X172855113Y-73540000D01*
X172895113Y-71460000D02*
X172895113Y-70435000D01*
X172895113Y-74565000D02*
X172895113Y-73540000D01*
X172935113Y-71460000D02*
X172935113Y-70406000D01*
X172935113Y-74594000D02*
X172935113Y-73540000D01*
X172975113Y-71460000D02*
X172975113Y-70378000D01*
X172975113Y-74622000D02*
X172975113Y-73540000D01*
X173015113Y-71460000D02*
X173015113Y-70351000D01*
X173015113Y-74649000D02*
X173015113Y-73540000D01*
X173055113Y-71460000D02*
X173055113Y-70325000D01*
X173055113Y-74675000D02*
X173055113Y-73540000D01*
X173095113Y-71460000D02*
X173095113Y-70301000D01*
X173095113Y-74699000D02*
X173095113Y-73540000D01*
X173135113Y-71460000D02*
X173135113Y-70277000D01*
X173135113Y-74723000D02*
X173135113Y-73540000D01*
X173175113Y-71460000D02*
X173175113Y-70254000D01*
X173175113Y-74746000D02*
X173175113Y-73540000D01*
X173215113Y-71460000D02*
X173215113Y-70232000D01*
X173215113Y-74768000D02*
X173215113Y-73540000D01*
X173255113Y-71460000D02*
X173255113Y-70211000D01*
X173255113Y-74789000D02*
X173255113Y-73540000D01*
X173295113Y-71460000D02*
X173295113Y-70191000D01*
X173295113Y-74809000D02*
X173295113Y-73540000D01*
X173335113Y-71460000D02*
X173335113Y-70171000D01*
X173335113Y-74829000D02*
X173335113Y-73540000D01*
X173375113Y-71460000D02*
X173375113Y-70153000D01*
X173375113Y-74847000D02*
X173375113Y-73540000D01*
X173415113Y-71460000D02*
X173415113Y-70135000D01*
X173415113Y-74865000D02*
X173415113Y-73540000D01*
X173455113Y-71460000D02*
X173455113Y-70118000D01*
X173455113Y-74882000D02*
X173455113Y-73540000D01*
X173495113Y-71460000D02*
X173495113Y-70102000D01*
X173495113Y-74898000D02*
X173495113Y-73540000D01*
X173535113Y-71460000D02*
X173535113Y-70087000D01*
X173535113Y-74913000D02*
X173535113Y-73540000D01*
X173575113Y-71460000D02*
X173575113Y-70072000D01*
X173575113Y-74928000D02*
X173575113Y-73540000D01*
X173615113Y-71460000D02*
X173615113Y-70058000D01*
X173615113Y-74942000D02*
X173615113Y-73540000D01*
X173655113Y-71460000D02*
X173655113Y-70045000D01*
X173655113Y-74955000D02*
X173655113Y-73540000D01*
X173695113Y-71460000D02*
X173695113Y-70033000D01*
X173695113Y-74967000D02*
X173695113Y-73540000D01*
X173735113Y-71460000D02*
X173735113Y-70021000D01*
X173735113Y-74979000D02*
X173735113Y-73540000D01*
X173775113Y-71460000D02*
X173775113Y-70010000D01*
X173775113Y-74990000D02*
X173775113Y-73540000D01*
X173815113Y-71460000D02*
X173815113Y-69999000D01*
X173815113Y-75001000D02*
X173815113Y-73540000D01*
X173855113Y-71460000D02*
X173855113Y-69990000D01*
X173855113Y-75010000D02*
X173855113Y-73540000D01*
X173895113Y-71460000D02*
X173895113Y-69981000D01*
X173895113Y-75019000D02*
X173895113Y-73540000D01*
X173935113Y-71460000D02*
X173935113Y-69972000D01*
X173935113Y-75028000D02*
X173935113Y-73540000D01*
X173975113Y-71460000D02*
X173975113Y-69964000D01*
X173975113Y-75036000D02*
X173975113Y-73540000D01*
X174015113Y-71460000D02*
X174015113Y-69957000D01*
X174015113Y-75043000D02*
X174015113Y-73540000D01*
X174055113Y-71460000D02*
X174055113Y-69951000D01*
X174055113Y-75049000D02*
X174055113Y-73540000D01*
X174095113Y-71460000D02*
X174095113Y-69945000D01*
X174095113Y-75055000D02*
X174095113Y-73540000D01*
X174135113Y-71460000D02*
X174135113Y-69940000D01*
X174135113Y-75060000D02*
X174135113Y-73540000D01*
X174175113Y-71460000D02*
X174175113Y-69935000D01*
X174175113Y-75065000D02*
X174175113Y-73540000D01*
X174215113Y-71460000D02*
X174215113Y-69931000D01*
X174215113Y-75069000D02*
X174215113Y-73540000D01*
X174255113Y-71460000D02*
X174255113Y-69928000D01*
X174255113Y-75072000D02*
X174255113Y-73540000D01*
X174295113Y-71460000D02*
X174295113Y-69925000D01*
X174295113Y-75075000D02*
X174295113Y-73540000D01*
X174335113Y-71460000D02*
X174335113Y-69923000D01*
X174335113Y-75077000D02*
X174335113Y-73540000D01*
X174375113Y-71460000D02*
X174375113Y-69921000D01*
X174375113Y-75079000D02*
X174375113Y-73540000D01*
X174415113Y-71460000D02*
X174415113Y-69920000D01*
X174415113Y-75080000D02*
X174415113Y-73540000D01*
X174455113Y-71460000D02*
X174455113Y-69920000D01*
X174455113Y-75080000D02*
X174455113Y-73540000D01*
X177009888Y-74225000D02*
X177009888Y-73725000D01*
X177259888Y-73975000D02*
X176759888Y-73975000D01*
X177075113Y-72500000D02*
G75*
G02*
X171835113Y-72500000I-2620000J0D01*
G01*
X171835113Y-72500000D02*
G75*
G02*
X177075113Y-72500000I2620000J0D01*
G01*
%TO.C,R23*%
X157340000Y-111500000D02*
X158030000Y-111500000D01*
X167960000Y-111500000D02*
X167270000Y-111500000D01*
X158030000Y-109780000D02*
X167270000Y-109780000D01*
X167270000Y-113220000D01*
X158030000Y-113220000D01*
X158030000Y-109780000D01*
%TO.C,R15*%
X157340000Y-97500000D02*
X158030000Y-97500000D01*
X167960000Y-97500000D02*
X167270000Y-97500000D01*
X158030000Y-95780000D02*
X167270000Y-95780000D01*
X167270000Y-99220000D01*
X158030000Y-99220000D01*
X158030000Y-95780000D01*
%TO.C,R22*%
X157340000Y-90500000D02*
X158030000Y-90500000D01*
X167960000Y-90500000D02*
X167270000Y-90500000D01*
X158030000Y-88780000D02*
X167270000Y-88780000D01*
X167270000Y-92220000D01*
X158030000Y-92220000D01*
X158030000Y-88780000D01*
%TO.C,D3*%
X67180000Y-84040000D02*
X68200000Y-84040000D01*
X68980000Y-82570000D02*
X68980000Y-85510000D01*
X69100000Y-82570000D02*
X69100000Y-85510000D01*
X69220000Y-82570000D02*
X69220000Y-85510000D01*
X74660000Y-84040000D02*
X73640000Y-84040000D01*
X68200000Y-82570000D02*
X73640000Y-82570000D01*
X73640000Y-85510000D01*
X68200000Y-85510000D01*
X68200000Y-82570000D01*
%TO.C,R20*%
X141340000Y-90500000D02*
X142030000Y-90500000D01*
X151960000Y-90500000D02*
X151270000Y-90500000D01*
X151270000Y-92220000D02*
X142030000Y-92220000D01*
X142030000Y-88780000D01*
X151270000Y-88780000D01*
X151270000Y-92220000D01*
%TO.C,J13*%
X179580000Y-112880000D02*
X179580000Y-111500000D01*
X180960000Y-112880000D02*
X179580000Y-112880000D01*
X182230000Y-110120000D02*
X187420000Y-110120000D01*
X182230000Y-112880000D02*
X182230000Y-110120000D01*
X182230000Y-112880000D02*
X187420000Y-112880000D01*
X187420000Y-112880000D02*
X187420000Y-110120000D01*
%TO.C,Q8*%
X160430000Y-66710000D02*
X164030000Y-66710000D01*
X160391522Y-66698478D02*
G75*
G02*
X162230000Y-62259999I1838478J1838478D01*
G01*
X162230000Y-62260000D02*
G75*
G02*
X164068478Y-66698478I0J-2600000D01*
G01*
%TO.C,D6*%
X128420000Y-62210000D02*
X128264000Y-62210000D01*
X130736000Y-62210000D02*
X130580000Y-62210000D01*
X128420000Y-64810961D02*
G75*
G02*
X128420000Y-62729039I1080000J1040961D01*
G01*
X128420000Y-65441437D02*
G75*
G02*
X128264484Y-62210000I1080000J1671437D01*
G01*
X130580000Y-62729039D02*
G75*
G02*
X130580000Y-64810961I-1080000J-1040961D01*
G01*
X130735516Y-62210000D02*
G75*
G02*
X130580000Y-65441437I-1235516J-1560000D01*
G01*
%TO.C,R6*%
X92190000Y-93040000D02*
X92880000Y-93040000D01*
X102810000Y-93040000D02*
X102120000Y-93040000D01*
X92880000Y-91320000D02*
X102120000Y-91320000D01*
X102120000Y-94760000D01*
X92880000Y-94760000D01*
X92880000Y-91320000D01*
%TO.C,J4*%
X64580000Y-63160000D02*
X64580000Y-65920000D01*
X67230000Y-63160000D02*
X64580000Y-63160000D01*
X67230000Y-63160000D02*
X67230000Y-65920000D01*
X67230000Y-65920000D02*
X64580000Y-65920000D01*
X68500000Y-63160000D02*
X69880000Y-63160000D01*
X69880000Y-63160000D02*
X69880000Y-64540000D01*
%TO.C,R21*%
X141340000Y-111500000D02*
X142030000Y-111500000D01*
X151960000Y-111500000D02*
X151270000Y-111500000D01*
X151270000Y-113220000D02*
X142030000Y-113220000D01*
X142030000Y-109780000D01*
X151270000Y-109780000D01*
X151270000Y-113220000D01*
%TO.C,Q4*%
X80640000Y-62470000D02*
X85260000Y-62470000D01*
X80640000Y-72690000D02*
X80640000Y-62470000D01*
X83880000Y-62470000D02*
X83880000Y-72690000D01*
X85260000Y-62470000D02*
X85260000Y-72690000D01*
X85260000Y-65730000D02*
X83880000Y-65730000D01*
X85260000Y-69430000D02*
X83880000Y-69430000D01*
X85260000Y-72690000D02*
X80640000Y-72690000D01*
%TO.C,J10*%
X179540000Y-84380000D02*
X179540000Y-83000000D01*
X180920000Y-84380000D02*
X179540000Y-84380000D01*
X182190000Y-81620000D02*
X187380000Y-81620000D01*
X182190000Y-84380000D02*
X182190000Y-81620000D01*
X182190000Y-84380000D02*
X187380000Y-84380000D01*
X187380000Y-84380000D02*
X187380000Y-81620000D01*
%TO.C,R9*%
X172190000Y-64000000D02*
X172880000Y-64000000D01*
X182810000Y-64000000D02*
X182120000Y-64000000D01*
X172880000Y-62280000D02*
X182120000Y-62280000D01*
X182120000Y-65720000D01*
X172880000Y-65720000D01*
X172880000Y-62280000D01*
%TO.C,Q5*%
X80640000Y-76470000D02*
X85260000Y-76470000D01*
X80640000Y-86690000D02*
X80640000Y-76470000D01*
X83880000Y-76470000D02*
X83880000Y-86690000D01*
X85260000Y-76470000D02*
X85260000Y-86690000D01*
X85260000Y-79730000D02*
X83880000Y-79730000D01*
X85260000Y-83430000D02*
X83880000Y-83430000D01*
X85260000Y-86690000D02*
X80640000Y-86690000D01*
%TO.C,R12*%
X116840000Y-51500000D02*
X117530000Y-51500000D01*
X127460000Y-51500000D02*
X126770000Y-51500000D01*
X117530000Y-49780000D02*
X126770000Y-49780000D01*
X126770000Y-53220000D01*
X117530000Y-53220000D01*
X117530000Y-49780000D01*
%TO.C,J9*%
X179580000Y-98880000D02*
X179580000Y-97500000D01*
X180960000Y-98880000D02*
X179580000Y-98880000D01*
X182230000Y-96120000D02*
X187420000Y-96120000D01*
X182230000Y-98880000D02*
X182230000Y-96120000D01*
X182230000Y-98880000D02*
X187420000Y-98880000D01*
X187420000Y-98880000D02*
X187420000Y-96120000D01*
%TO.C,R18*%
X157340000Y-83000000D02*
X158030000Y-83000000D01*
X167960000Y-83000000D02*
X167270000Y-83000000D01*
X158030000Y-81280000D02*
X167270000Y-81280000D01*
X167270000Y-84720000D01*
X158030000Y-84720000D01*
X158030000Y-81280000D01*
%TO.C,J11*%
X179580000Y-105880000D02*
X179580000Y-104500000D01*
X180960000Y-105880000D02*
X179580000Y-105880000D01*
X182230000Y-103120000D02*
X187420000Y-103120000D01*
X182230000Y-105880000D02*
X182230000Y-103120000D01*
X182230000Y-105880000D02*
X187420000Y-105880000D01*
X187420000Y-105880000D02*
X187420000Y-103120000D01*
%TO.C,J5*%
X64580000Y-77160000D02*
X64580000Y-79920000D01*
X67230000Y-77160000D02*
X64580000Y-77160000D01*
X67230000Y-77160000D02*
X67230000Y-79920000D01*
X67230000Y-79920000D02*
X64580000Y-79920000D01*
X68500000Y-77160000D02*
X69880000Y-77160000D01*
X69880000Y-77160000D02*
X69880000Y-78540000D01*
%TO.C,R8*%
X141340000Y-72500000D02*
X142030000Y-72500000D01*
X151960000Y-72500000D02*
X151270000Y-72500000D01*
X151270000Y-74220000D02*
X142030000Y-74220000D01*
X142030000Y-70780000D01*
X151270000Y-70780000D01*
X151270000Y-74220000D01*
%TO.C,Q7*%
X80640000Y-104930000D02*
X85260000Y-104930000D01*
X80640000Y-115150000D02*
X80640000Y-104930000D01*
X83880000Y-104930000D02*
X83880000Y-115150000D01*
X85260000Y-104930000D02*
X85260000Y-115150000D01*
X85260000Y-108190000D02*
X83880000Y-108190000D01*
X85260000Y-111890000D02*
X83880000Y-111890000D01*
X85260000Y-115150000D02*
X80640000Y-115150000D01*
%TO.C,R13*%
X116840000Y-57000000D02*
X117530000Y-57000000D01*
X127460000Y-57000000D02*
X126770000Y-57000000D01*
X117530000Y-55280000D02*
X126770000Y-55280000D01*
X126770000Y-58720000D01*
X117530000Y-58720000D01*
X117530000Y-55280000D01*
D10*
%TO.C,A1*%
X113640000Y-72830000D02*
X113640000Y-116010000D01*
X113640000Y-72830000D02*
X131420000Y-72830000D01*
X113640000Y-116010000D02*
X131420000Y-116010000D01*
X131420000Y-72830000D02*
X131420000Y-116010000D01*
D12*
%TO.C,J6*%
X64580000Y-91660000D02*
X64580000Y-94420000D01*
X67230000Y-91660000D02*
X64580000Y-91660000D01*
X67230000Y-91660000D02*
X67230000Y-94420000D01*
X67230000Y-94420000D02*
X64580000Y-94420000D01*
X68500000Y-91660000D02*
X69880000Y-91660000D01*
X69880000Y-91660000D02*
X69880000Y-93040000D01*
%TO.C,R11*%
X116840000Y-46000000D02*
X117530000Y-46000000D01*
X127460000Y-46000000D02*
X126770000Y-46000000D01*
X117530000Y-44280000D02*
X126770000Y-44280000D01*
X126770000Y-47720000D01*
X117530000Y-47720000D01*
X117530000Y-44280000D01*
%TO.C,J3*%
X64580000Y-49660000D02*
X64580000Y-52420000D01*
X67230000Y-49660000D02*
X64580000Y-49660000D01*
X67230000Y-49660000D02*
X67230000Y-52420000D01*
X67230000Y-52420000D02*
X64580000Y-52420000D01*
X68500000Y-49660000D02*
X69880000Y-49660000D01*
X69880000Y-49660000D02*
X69880000Y-51040000D01*
%TO.C,D4*%
X67180000Y-98040000D02*
X68200000Y-98040000D01*
X68980000Y-96570000D02*
X68980000Y-99510000D01*
X69100000Y-96570000D02*
X69100000Y-99510000D01*
X69220000Y-96570000D02*
X69220000Y-99510000D01*
X74660000Y-98040000D02*
X73640000Y-98040000D01*
X68200000Y-96570000D02*
X73640000Y-96570000D01*
X73640000Y-99510000D01*
X68200000Y-99510000D01*
X68200000Y-96570000D01*
%TO.C,D7*%
X121450000Y-62210000D02*
X121294000Y-62210000D01*
X123766000Y-62210000D02*
X123610000Y-62210000D01*
X121450000Y-64810961D02*
G75*
G02*
X121450000Y-62729039I1080000J1040961D01*
G01*
X121450000Y-65441437D02*
G75*
G02*
X121294484Y-62210000I1080000J1671437D01*
G01*
X123610000Y-62729039D02*
G75*
G02*
X123610000Y-64810961I-1080000J-1040961D01*
G01*
X123765516Y-62210000D02*
G75*
G02*
X123610000Y-65441437I-1235516J-1560000D01*
G01*
%TO.C,F1*%
X151200000Y-49200000D02*
X151200000Y-52000000D01*
X151200000Y-56000000D02*
X151200000Y-58800000D01*
X173800000Y-49200000D02*
X151200000Y-49200000D01*
X173800000Y-49200000D02*
X173800000Y-52000000D01*
X173800000Y-56000000D02*
X173800000Y-58800000D01*
X173800000Y-58800000D02*
X151200000Y-58800000D01*
%TO.C,J2*%
X182080000Y-55380000D02*
X182080000Y-54000000D01*
X183460000Y-55380000D02*
X182080000Y-55380000D01*
X184730000Y-52620000D02*
X187380000Y-52620000D01*
X184730000Y-55380000D02*
X184730000Y-52620000D01*
X184730000Y-55380000D02*
X187380000Y-55380000D01*
X187380000Y-55380000D02*
X187380000Y-52620000D01*
%TO.C,R14*%
X141340000Y-97500000D02*
X142030000Y-97500000D01*
X151960000Y-97500000D02*
X151270000Y-97500000D01*
X151270000Y-99220000D02*
X142030000Y-99220000D01*
X142030000Y-95780000D01*
X151270000Y-95780000D01*
X151270000Y-99220000D01*
%TO.C,R1*%
X142500000Y-53690000D02*
X142500000Y-54380000D01*
X142500000Y-64310000D02*
X142500000Y-63620000D01*
X144220000Y-54380000D02*
X140780000Y-54380000D01*
X140780000Y-63620000D01*
X144220000Y-63620000D01*
X144220000Y-54380000D01*
%TO.C,D5*%
X67260000Y-112500000D02*
X68280000Y-112500000D01*
X69060000Y-111030000D02*
X69060000Y-113970000D01*
X69180000Y-111030000D02*
X69180000Y-113970000D01*
X69300000Y-111030000D02*
X69300000Y-113970000D01*
X74740000Y-112500000D02*
X73720000Y-112500000D01*
X68280000Y-111030000D02*
X73720000Y-111030000D01*
X73720000Y-113970000D01*
X68280000Y-113970000D01*
X68280000Y-111030000D01*
%TO.C,D1*%
X67180000Y-57040000D02*
X68200000Y-57040000D01*
X68980000Y-55570000D02*
X68980000Y-58510000D01*
X69100000Y-55570000D02*
X69100000Y-58510000D01*
X69220000Y-55570000D02*
X69220000Y-58510000D01*
X74660000Y-57040000D02*
X73640000Y-57040000D01*
X68200000Y-55570000D02*
X73640000Y-55570000D01*
X73640000Y-58510000D01*
X68200000Y-58510000D01*
X68200000Y-55570000D01*
%TO.C,J12*%
X179540000Y-91880000D02*
X179540000Y-90500000D01*
X180920000Y-91880000D02*
X179540000Y-91880000D01*
X182190000Y-89120000D02*
X187380000Y-89120000D01*
X182190000Y-91880000D02*
X182190000Y-89120000D01*
X182190000Y-91880000D02*
X187380000Y-91880000D01*
X187380000Y-91880000D02*
X187380000Y-89120000D01*
%TO.C,R5*%
X92040000Y-79040000D02*
X92730000Y-79040000D01*
X102660000Y-79040000D02*
X101970000Y-79040000D01*
X92730000Y-77320000D02*
X101970000Y-77320000D01*
X101970000Y-80760000D01*
X92730000Y-80760000D01*
X92730000Y-77320000D01*
%TO.C,J7*%
X64580000Y-106120000D02*
X64580000Y-108880000D01*
X67230000Y-106120000D02*
X64580000Y-106120000D01*
X67230000Y-106120000D02*
X67230000Y-108880000D01*
X67230000Y-108880000D02*
X64580000Y-108880000D01*
X68500000Y-106120000D02*
X69880000Y-106120000D01*
X69880000Y-106120000D02*
X69880000Y-107500000D01*
%TO.C,Q1*%
X163850000Y-41240000D02*
X174070000Y-41240000D01*
X163850000Y-42620000D02*
X174070000Y-42620000D01*
X163850000Y-45860000D02*
X163850000Y-41240000D01*
X167110000Y-41240000D02*
X167110000Y-42620000D01*
X170810000Y-41240000D02*
X170810000Y-42620000D01*
X174070000Y-41240000D02*
X174070000Y-45860000D01*
X174070000Y-45860000D02*
X163850000Y-45860000D01*
%TO.C,J8*%
X182080000Y-73880000D02*
X182080000Y-72500000D01*
X183460000Y-73880000D02*
X182080000Y-73880000D01*
X184730000Y-71120000D02*
X187380000Y-71120000D01*
X184730000Y-73880000D02*
X184730000Y-71120000D01*
X184730000Y-73880000D02*
X187380000Y-73880000D01*
X187380000Y-73880000D02*
X187380000Y-71120000D01*
%TO.C,R3*%
X92190000Y-51500000D02*
X92880000Y-51500000D01*
X102810000Y-51500000D02*
X102120000Y-51500000D01*
X92880000Y-49780000D02*
X102120000Y-49780000D01*
X102120000Y-53220000D01*
X92880000Y-53220000D01*
X92880000Y-49780000D01*
%TO.C,C1*%
X80195225Y-42025000D02*
X80695225Y-42025000D01*
X80445225Y-41775000D02*
X80445225Y-42275000D01*
X83000000Y-40920000D02*
X83000000Y-42460000D01*
X83000000Y-44540000D02*
X83000000Y-46080000D01*
X83040000Y-40920000D02*
X83040000Y-42460000D01*
X83040000Y-44540000D02*
X83040000Y-46080000D01*
X83080000Y-40921000D02*
X83080000Y-42460000D01*
X83080000Y-44540000D02*
X83080000Y-46079000D01*
X83120000Y-40923000D02*
X83120000Y-42460000D01*
X83120000Y-44540000D02*
X83120000Y-46077000D01*
X83160000Y-40925000D02*
X83160000Y-42460000D01*
X83160000Y-44540000D02*
X83160000Y-46075000D01*
X83200000Y-40928000D02*
X83200000Y-42460000D01*
X83200000Y-44540000D02*
X83200000Y-46072000D01*
X83240000Y-40931000D02*
X83240000Y-42460000D01*
X83240000Y-44540000D02*
X83240000Y-46069000D01*
X83280000Y-40935000D02*
X83280000Y-42460000D01*
X83280000Y-44540000D02*
X83280000Y-46065000D01*
X83320000Y-40940000D02*
X83320000Y-42460000D01*
X83320000Y-44540000D02*
X83320000Y-46060000D01*
X83360000Y-40945000D02*
X83360000Y-42460000D01*
X83360000Y-44540000D02*
X83360000Y-46055000D01*
X83400000Y-40951000D02*
X83400000Y-42460000D01*
X83400000Y-44540000D02*
X83400000Y-46049000D01*
X83440000Y-40957000D02*
X83440000Y-42460000D01*
X83440000Y-44540000D02*
X83440000Y-46043000D01*
X83480000Y-40964000D02*
X83480000Y-42460000D01*
X83480000Y-44540000D02*
X83480000Y-46036000D01*
X83520000Y-40972000D02*
X83520000Y-42460000D01*
X83520000Y-44540000D02*
X83520000Y-46028000D01*
X83560000Y-40981000D02*
X83560000Y-42460000D01*
X83560000Y-44540000D02*
X83560000Y-46019000D01*
X83600000Y-40990000D02*
X83600000Y-42460000D01*
X83600000Y-44540000D02*
X83600000Y-46010000D01*
X83640000Y-40999000D02*
X83640000Y-42460000D01*
X83640000Y-44540000D02*
X83640000Y-46001000D01*
X83680000Y-41010000D02*
X83680000Y-42460000D01*
X83680000Y-44540000D02*
X83680000Y-45990000D01*
X83720000Y-41021000D02*
X83720000Y-42460000D01*
X83720000Y-44540000D02*
X83720000Y-45979000D01*
X83760000Y-41033000D02*
X83760000Y-42460000D01*
X83760000Y-44540000D02*
X83760000Y-45967000D01*
X83800000Y-41045000D02*
X83800000Y-42460000D01*
X83800000Y-44540000D02*
X83800000Y-45955000D01*
X83840000Y-41058000D02*
X83840000Y-42460000D01*
X83840000Y-44540000D02*
X83840000Y-45942000D01*
X83880000Y-41072000D02*
X83880000Y-42460000D01*
X83880000Y-44540000D02*
X83880000Y-45928000D01*
X83920000Y-41087000D02*
X83920000Y-42460000D01*
X83920000Y-44540000D02*
X83920000Y-45913000D01*
X83960000Y-41102000D02*
X83960000Y-42460000D01*
X83960000Y-44540000D02*
X83960000Y-45898000D01*
X84000000Y-41118000D02*
X84000000Y-42460000D01*
X84000000Y-44540000D02*
X84000000Y-45882000D01*
X84040000Y-41135000D02*
X84040000Y-42460000D01*
X84040000Y-44540000D02*
X84040000Y-45865000D01*
X84080000Y-41153000D02*
X84080000Y-42460000D01*
X84080000Y-44540000D02*
X84080000Y-45847000D01*
X84120000Y-41171000D02*
X84120000Y-42460000D01*
X84120000Y-44540000D02*
X84120000Y-45829000D01*
X84160000Y-41191000D02*
X84160000Y-42460000D01*
X84160000Y-44540000D02*
X84160000Y-45809000D01*
X84200000Y-41211000D02*
X84200000Y-42460000D01*
X84200000Y-44540000D02*
X84200000Y-45789000D01*
X84240000Y-41232000D02*
X84240000Y-42460000D01*
X84240000Y-44540000D02*
X84240000Y-45768000D01*
X84280000Y-41254000D02*
X84280000Y-42460000D01*
X84280000Y-44540000D02*
X84280000Y-45746000D01*
X84320000Y-41277000D02*
X84320000Y-42460000D01*
X84320000Y-44540000D02*
X84320000Y-45723000D01*
X84360000Y-41301000D02*
X84360000Y-42460000D01*
X84360000Y-44540000D02*
X84360000Y-45699000D01*
X84400000Y-41325000D02*
X84400000Y-42460000D01*
X84400000Y-44540000D02*
X84400000Y-45675000D01*
X84440000Y-41351000D02*
X84440000Y-42460000D01*
X84440000Y-44540000D02*
X84440000Y-45649000D01*
X84480000Y-41378000D02*
X84480000Y-42460000D01*
X84480000Y-44540000D02*
X84480000Y-45622000D01*
X84520000Y-41406000D02*
X84520000Y-42460000D01*
X84520000Y-44540000D02*
X84520000Y-45594000D01*
X84560000Y-41435000D02*
X84560000Y-42460000D01*
X84560000Y-44540000D02*
X84560000Y-45565000D01*
X84600000Y-41465000D02*
X84600000Y-42460000D01*
X84600000Y-44540000D02*
X84600000Y-45535000D01*
X84640000Y-41497000D02*
X84640000Y-42460000D01*
X84640000Y-44540000D02*
X84640000Y-45503000D01*
X84680000Y-41530000D02*
X84680000Y-42460000D01*
X84680000Y-44540000D02*
X84680000Y-45470000D01*
X84720000Y-41564000D02*
X84720000Y-42460000D01*
X84720000Y-44540000D02*
X84720000Y-45436000D01*
X84760000Y-41599000D02*
X84760000Y-42460000D01*
X84760000Y-44540000D02*
X84760000Y-45401000D01*
X84800000Y-41636000D02*
X84800000Y-42460000D01*
X84800000Y-44540000D02*
X84800000Y-45364000D01*
X84840000Y-41675000D02*
X84840000Y-42460000D01*
X84840000Y-44540000D02*
X84840000Y-45325000D01*
X84880000Y-41715000D02*
X84880000Y-42460000D01*
X84880000Y-44540000D02*
X84880000Y-45285000D01*
X84920000Y-41757000D02*
X84920000Y-42460000D01*
X84920000Y-44540000D02*
X84920000Y-45243000D01*
X84960000Y-41801000D02*
X84960000Y-42460000D01*
X84960000Y-44540000D02*
X84960000Y-45199000D01*
X85000000Y-41848000D02*
X85000000Y-42460000D01*
X85000000Y-44540000D02*
X85000000Y-45152000D01*
X85040000Y-41896000D02*
X85040000Y-45104000D01*
X85080000Y-41947000D02*
X85080000Y-45053000D01*
X85120000Y-42001000D02*
X85120000Y-44999000D01*
X85160000Y-42057000D02*
X85160000Y-44943000D01*
X85200000Y-42117000D02*
X85200000Y-44883000D01*
X85240000Y-42181000D02*
X85240000Y-44819000D01*
X85280000Y-42249000D02*
X85280000Y-44751000D01*
X85320000Y-42323000D02*
X85320000Y-44677000D01*
X85360000Y-42402000D02*
X85360000Y-44598000D01*
X85400000Y-42489000D02*
X85400000Y-44511000D01*
X85440000Y-42586000D02*
X85440000Y-44414000D01*
X85480000Y-42695000D02*
X85480000Y-44305000D01*
X85520000Y-42823000D02*
X85520000Y-44177000D01*
X85560000Y-42983000D02*
X85560000Y-44017000D01*
X85600000Y-43217000D02*
X85600000Y-43783000D01*
X85620000Y-43500000D02*
G75*
G02*
X80380000Y-43500000I-2620000J0D01*
G01*
X80380000Y-43500000D02*
G75*
G02*
X85620000Y-43500000I2620000J0D01*
G01*
%TO.C,R4*%
X92040000Y-65040000D02*
X92730000Y-65040000D01*
X102660000Y-65040000D02*
X101970000Y-65040000D01*
X92730000Y-63320000D02*
X101970000Y-63320000D01*
X101970000Y-66760000D01*
X92730000Y-66760000D01*
X92730000Y-63320000D01*
%TD*%
M02*
