M48
; DRILL file {KiCad 9.0.3} date 2025-09-28T13:54:36+0200
; FORMAT={-:-/ absolute / metric / decimal}
; #@! TF.CreationDate,2025-09-28T13:54:36+02:00
; #@! TF.GenerationSoftware,Kicad,Pcbnew,9.0.3
; #@! TF.FileFunction,Plated,1,2,PTH
FMAT,2
METRIC
; #@! TA.AperFunction,Plated,PTH,ComponentDrill
T1C0.750
; #@! TA.AperFunction,Plated,PTH,ComponentDrill
T2C0.800
; #@! TA.AperFunction,Plated,PTH,ComponentDrill
T3C0.900
; #@! TA.AperFunction,Plated,PTH,ComponentDrill
T4C1.000
; #@! TA.AperFunction,Plated,PTH,ComponentDrill
T5C1.016
; #@! TA.AperFunction,Plated,PTH,ComponentDrill
T6C1.100
; #@! TA.AperFunction,Plated,PTH,ComponentDrill
T7C1.500
; #@! TA.AperFunction,Plated,PTH,ComponentDrill
T8C3.200
%
G90
G05
T1
X137.96Y-44.5
X139.23Y-44.5
X140.5Y-44.5
X160.96Y-64.86
X162.23Y-64.86
X163.5Y-64.86
T2
X82.0Y-43.5
X84.0Y-43.5
X91.0Y-65.04
X91.0Y-79.04
X91.15Y-51.5
X91.15Y-93.04
X91.15Y-107.54
X103.7Y-65.04
X103.7Y-79.04
X103.85Y-51.5
X103.85Y-93.04
X103.85Y-107.54
X115.8Y-46.0
X115.8Y-51.5
X115.8Y-57.0
X128.5Y-46.0
X128.5Y-51.5
X128.5Y-57.0
X136.5Y-52.65
X136.5Y-65.35
X140.15Y-83.0
X140.3Y-72.5
X140.3Y-90.5
X140.3Y-97.5
X140.3Y-104.5
X140.3Y-111.5
X142.5Y-52.65
X142.5Y-65.35
X152.85Y-83.0
X153.0Y-72.5
X153.0Y-90.5
X153.0Y-97.5
X153.0Y-104.5
X153.0Y-111.5
X156.3Y-72.5
X156.3Y-83.0
X156.3Y-90.5
X156.3Y-97.5
X156.3Y-104.5
X156.3Y-111.5
X169.0Y-72.5
X169.0Y-83.0
X169.0Y-90.5
X169.0Y-97.5
X169.0Y-104.5
X169.0Y-111.5
X171.15Y-64.0
X173.455Y-72.5
X175.455Y-72.5
X183.85Y-64.0
T3
X115.5Y-62.5
X115.5Y-65.04
X122.53Y-62.5
X122.53Y-65.04
X129.5Y-62.5
X129.5Y-65.04
T4
X65.92Y-43.5
X65.96Y-51.04
X65.96Y-64.54
X65.96Y-78.54
X65.96Y-93.04
X65.96Y-107.5
X68.46Y-43.5
X68.5Y-51.04
X68.5Y-64.54
X68.5Y-78.54
X68.5Y-93.04
X68.5Y-107.5
X71.0Y-43.5
X180.92Y-83.0
X180.92Y-90.5
X180.96Y-97.5
X180.96Y-104.5
X180.96Y-111.5
X183.46Y-54.0
X183.46Y-72.5
X183.46Y-83.0
X183.46Y-90.5
X183.5Y-97.5
X183.5Y-104.5
X183.5Y-111.5
X186.0Y-54.0
X186.0Y-72.5
X186.0Y-83.0
X186.0Y-90.5
X186.04Y-97.5
X186.04Y-104.5
X186.04Y-111.5
T5
X114.91Y-76.64
X114.91Y-79.18
X114.91Y-81.72
X114.91Y-84.26
X114.91Y-86.8
X114.91Y-89.34
X114.91Y-91.88
X114.91Y-94.42
X114.91Y-96.96
X114.91Y-99.5
X114.91Y-102.04
X114.91Y-104.58
X114.91Y-107.12
X114.91Y-109.66
X114.91Y-112.2
X130.15Y-76.64
X130.15Y-79.18
X130.15Y-81.72
X130.15Y-84.26
X130.15Y-86.8
X130.15Y-89.34
X130.15Y-91.88
X130.15Y-94.42
X130.15Y-96.96
X130.15Y-99.5
X130.15Y-102.04
X130.15Y-104.58
X130.15Y-107.12
X130.15Y-109.66
X130.15Y-112.2
T6
X65.84Y-57.04
X65.84Y-70.54
X65.84Y-84.04
X65.84Y-98.04
X65.92Y-112.5
X76.0Y-57.04
X76.0Y-70.54
X76.0Y-84.04
X76.0Y-98.04
X76.08Y-112.5
X82.0Y-51.54
X82.0Y-54.08
X82.0Y-56.62
X82.0Y-65.04
X82.0Y-67.58
X82.0Y-70.12
X82.0Y-79.04
X82.0Y-81.58
X82.0Y-84.12
X82.0Y-93.04
X82.0Y-95.58
X82.0Y-98.12
X82.0Y-107.5
X82.0Y-110.04
X82.0Y-112.58
X153.42Y-44.5
X155.96Y-44.5
X158.5Y-44.5
X166.42Y-44.5
X168.96Y-44.5
X171.5Y-44.5
T7
X151.2Y-54.0
X173.8Y-54.0
T8
X65.5Y-36.1
X65.5Y-121.1
X185.5Y-36.1
X185.5Y-121.1
M30
