%TF.GenerationSoftware,KiCad,Pcbnew,9.0.3*%
%TF.CreationDate,2025-09-28T13:54:29+02:00*%
%TF.ProjectId,PlantBreakoutBoard,506c616e-7442-4726-9561-6b6f7574426f,rev?*%
%TF.SameCoordinates,Original*%
%TF.FileFunction,Copper,L2,Bot*%
%TF.FilePolarity,Positive*%
%FSLAX46Y46*%
G04 Gerber Fmt 4.6, Leading zero omitted, Abs format (unit mm)*
G04 Created by KiCad (PCBNEW 9.0.3) date 2025-09-28 13:54:29*
%MOMM*%
%LPD*%
G01*
G04 APERTURE LIST*
G04 Aperture macros list*
%AMRoundRect*
0 Rectangle with rounded corners*
0 $1 Rounding radius*
0 $2 $3 $4 $5 $6 $7 $8 $9 X,Y pos of 4 corners*
0 Add a 4 corners polygon primitive as box body*
4,1,4,$2,$3,$4,$5,$6,$7,$8,$9,$2,$3,0*
0 Add four circle primitives for the rounded corners*
1,1,$1+$1,$2,$3*
1,1,$1+$1,$4,$5*
1,1,$1+$1,$6,$7*
1,1,$1+$1,$8,$9*
0 Add four rect primitives between the rounded corners*
20,1,$1+$1,$2,$3,$4,$5,0*
20,1,$1+$1,$4,$5,$6,$7,0*
20,1,$1+$1,$6,$7,$8,$9,0*
20,1,$1+$1,$8,$9,$2,$3,0*%
G04 Aperture macros list end*
%TA.AperFunction,ComponentPad*%
%ADD10R,2.000000X1.905000*%
%TD*%
%TA.AperFunction,ComponentPad*%
%ADD11O,2.000000X1.905000*%
%TD*%
%TA.AperFunction,ComponentPad*%
%ADD12C,1.600000*%
%TD*%
%TA.AperFunction,ComponentPad*%
%ADD13RoundRect,0.249999X-0.850001X-0.850001X0.850001X-0.850001X0.850001X0.850001X-0.850001X0.850001X0*%
%TD*%
%TA.AperFunction,ComponentPad*%
%ADD14C,2.200000*%
%TD*%
%TA.AperFunction,ComponentPad*%
%ADD15R,1.905000X2.000000*%
%TD*%
%TA.AperFunction,ComponentPad*%
%ADD16O,1.905000X2.000000*%
%TD*%
%TA.AperFunction,ComponentPad*%
%ADD17R,1.050000X1.500000*%
%TD*%
%TA.AperFunction,ComponentPad*%
%ADD18O,1.050000X1.500000*%
%TD*%
%TA.AperFunction,ComponentPad*%
%ADD19R,1.700000X1.700000*%
%TD*%
%TA.AperFunction,ComponentPad*%
%ADD20C,1.700000*%
%TD*%
%TA.AperFunction,ComponentPad*%
%ADD21R,1.800000X1.800000*%
%TD*%
%TA.AperFunction,ComponentPad*%
%ADD22C,1.800000*%
%TD*%
%TA.AperFunction,ComponentPad*%
%ADD23RoundRect,0.250000X0.550000X0.550000X-0.550000X0.550000X-0.550000X-0.550000X0.550000X-0.550000X0*%
%TD*%
%TA.AperFunction,ComponentPad*%
%ADD24C,5.600000*%
%TD*%
%TA.AperFunction,ComponentPad*%
%ADD25C,1.727200*%
%TD*%
%TA.AperFunction,ComponentPad*%
%ADD26R,1.727200X1.727200*%
%TD*%
%TA.AperFunction,ComponentPad*%
%ADD27C,3.000000*%
%TD*%
%TA.AperFunction,ComponentPad*%
%ADD28RoundRect,0.250000X-0.550000X-0.550000X0.550000X-0.550000X0.550000X0.550000X-0.550000X0.550000X0*%
%TD*%
%TA.AperFunction,Conductor*%
%ADD29C,0.500000*%
%TD*%
%TA.AperFunction,Conductor*%
%ADD30C,1.000000*%
%TD*%
G04 APERTURE END LIST*
D10*
%TO.P,Q6,1,G*%
%TO.N,Net-(Q6-G)*%
X82000000Y-93040000D03*
D11*
%TO.P,Q6,2,D*%
%TO.N,Net-(D4-A)*%
X82000000Y-95580000D03*
%TO.P,Q6,3,S*%
%TO.N,GND*%
X82000000Y-98120000D03*
%TD*%
D12*
%TO.P,R16,1*%
%TO.N,Net-(J10-Pin_1)*%
X152850000Y-83000000D03*
%TO.P,R16,2*%
%TO.N,Net-(A1-PadA6)*%
X140150000Y-83000000D03*
%TD*%
D13*
%TO.P,D2,1,K*%
%TO.N,+Motor DC*%
X65840000Y-70540000D03*
D14*
%TO.P,D2,2,A*%
%TO.N,Net-(D2-A)*%
X76000000Y-70540000D03*
%TD*%
D12*
%TO.P,R19,1*%
%TO.N,Net-(A1-PadA1)*%
X156300000Y-104500000D03*
%TO.P,R19,2*%
%TO.N,GND*%
X169000000Y-104500000D03*
%TD*%
D15*
%TO.P,U1,1,GND*%
%TO.N,GND*%
X153420000Y-44500000D03*
D16*
%TO.P,U1,2,VO*%
%TO.N,+5V*%
X155960000Y-44500000D03*
%TO.P,U1,3,VI*%
%TO.N,Net-(Q1-D)*%
X158500000Y-44500000D03*
%TD*%
D17*
%TO.P,Q2,1,C*%
%TO.N,Net-(Q1-G)*%
X140500000Y-44500000D03*
D18*
%TO.P,Q2,2,B*%
%TO.N,Net-(Q2-B)*%
X139230000Y-44500000D03*
%TO.P,Q2,3,E*%
%TO.N,GND*%
X137960000Y-44500000D03*
%TD*%
D10*
%TO.P,Q3,1,G*%
%TO.N,Net-(Q3-G)*%
X82000000Y-51540000D03*
D11*
%TO.P,Q3,2,D*%
%TO.N,Net-(D1-A)*%
X82000000Y-54080000D03*
%TO.P,Q3,3,S*%
%TO.N,GND*%
X82000000Y-56620000D03*
%TD*%
D12*
%TO.P,R17,1*%
%TO.N,Net-(J11-Pin_1)*%
X153000000Y-104500000D03*
%TO.P,R17,2*%
%TO.N,Net-(A1-PadA1)*%
X140300000Y-104500000D03*
%TD*%
%TO.P,R7,1*%
%TO.N,Net-(Q7-G)*%
X91150000Y-107540000D03*
%TO.P,R7,2*%
%TO.N,GND*%
X103850000Y-107540000D03*
%TD*%
%TO.P,R2,1*%
%TO.N,Net-(Q2-B)*%
X136500000Y-52650000D03*
%TO.P,R2,2*%
%TO.N,5V_ENABLE*%
X136500000Y-65350000D03*
%TD*%
D19*
%TO.P,J1,1,Pin_1*%
%TO.N,+5V*%
X71000000Y-43500000D03*
D20*
%TO.P,J1,2,Pin_2*%
%TO.N,+Motor DC*%
X68460000Y-43500000D03*
%TO.P,J1,3,Pin_3*%
%TO.N,GND*%
X65920000Y-43500000D03*
%TD*%
D12*
%TO.P,R10,1*%
%TO.N,Net-(Q8-C)*%
X156300000Y-72500000D03*
%TO.P,R10,2*%
%TO.N,GND*%
X169000000Y-72500000D03*
%TD*%
D21*
%TO.P,D8,1,K*%
%TO.N,Net-(D8-K)*%
X115500000Y-62500000D03*
D22*
%TO.P,D8,2,A*%
%TO.N,Net-(D8-A)*%
X115500000Y-65040000D03*
%TD*%
D23*
%TO.P,C2,1*%
%TO.N,+5V*%
X175455113Y-72500000D03*
D12*
%TO.P,C2,2*%
%TO.N,GND*%
X173455113Y-72500000D03*
%TD*%
%TO.P,R23,1*%
%TO.N,Net-(A1-PadA0)*%
X156300000Y-111500000D03*
%TO.P,R23,2*%
%TO.N,GND*%
X169000000Y-111500000D03*
%TD*%
%TO.P,R15,1*%
%TO.N,Net-(A1-PadA2)*%
X156300000Y-97500000D03*
%TO.P,R15,2*%
%TO.N,GND*%
X169000000Y-97500000D03*
%TD*%
%TO.P,R22,1*%
%TO.N,Net-(A1-PadA3)*%
X156300000Y-90500000D03*
%TO.P,R22,2*%
%TO.N,GND*%
X169000000Y-90500000D03*
%TD*%
D24*
%TO.P,hole2,1*%
%TO.N,N/C*%
X185500000Y-36100000D03*
%TD*%
D13*
%TO.P,D3,1,K*%
%TO.N,+Motor DC*%
X65840000Y-84040000D03*
D14*
%TO.P,D3,2,A*%
%TO.N,Net-(D3-A)*%
X76000000Y-84040000D03*
%TD*%
D12*
%TO.P,R20,1*%
%TO.N,Net-(J12-Pin_1)*%
X153000000Y-90500000D03*
%TO.P,R20,2*%
%TO.N,Net-(A1-PadA3)*%
X140300000Y-90500000D03*
%TD*%
D19*
%TO.P,J13,1,Pin_1*%
%TO.N,Net-(J13-Pin_1)*%
X180960000Y-111500000D03*
D20*
%TO.P,J13,2,Pin_2*%
%TO.N,+5V*%
X183500000Y-111500000D03*
%TO.P,J13,3,Pin_3*%
%TO.N,GND*%
X186040000Y-111500000D03*
%TD*%
D17*
%TO.P,Q8,1,C*%
%TO.N,Net-(Q8-C)*%
X160960000Y-64860000D03*
D18*
%TO.P,Q8,2,B*%
%TO.N,Net-(Q8-B)*%
X162230000Y-64860000D03*
%TO.P,Q8,3,E*%
%TO.N,GND*%
X163500000Y-64860000D03*
%TD*%
D21*
%TO.P,D6,1,K*%
%TO.N,Net-(D6-K)*%
X129500000Y-62500000D03*
D22*
%TO.P,D6,2,A*%
%TO.N,Net-(D6-A)*%
X129500000Y-65040000D03*
%TD*%
D12*
%TO.P,R6,1*%
%TO.N,Net-(Q6-G)*%
X91150000Y-93040000D03*
%TO.P,R6,2*%
%TO.N,GND*%
X103850000Y-93040000D03*
%TD*%
D24*
%TO.P,hole3,1*%
%TO.N,N/C*%
X185500000Y-121100000D03*
%TD*%
D19*
%TO.P,J4,1,Pin_1*%
%TO.N,Net-(D2-A)*%
X68500000Y-64540000D03*
D20*
%TO.P,J4,2,Pin_2*%
%TO.N,+Motor DC*%
X65960000Y-64540000D03*
%TD*%
D12*
%TO.P,R21,1*%
%TO.N,Net-(J13-Pin_1)*%
X153000000Y-111500000D03*
%TO.P,R21,2*%
%TO.N,Net-(A1-PadA0)*%
X140300000Y-111500000D03*
%TD*%
D10*
%TO.P,Q4,1,G*%
%TO.N,Net-(Q4-G)*%
X82000000Y-65040000D03*
D11*
%TO.P,Q4,2,D*%
%TO.N,Net-(D2-A)*%
X82000000Y-67580000D03*
%TO.P,Q4,3,S*%
%TO.N,GND*%
X82000000Y-70120000D03*
%TD*%
D19*
%TO.P,J10,1,Pin_1*%
%TO.N,Net-(J10-Pin_1)*%
X180920000Y-83000000D03*
D20*
%TO.P,J10,2,Pin_2*%
%TO.N,+5V*%
X183460000Y-83000000D03*
%TO.P,J10,3,Pin_3*%
%TO.N,GND*%
X186000000Y-83000000D03*
%TD*%
D12*
%TO.P,R9,1*%
%TO.N,Net-(Q8-B)*%
X171150000Y-64000000D03*
%TO.P,R9,2*%
%TO.N,Net-(J8-Pin_1)*%
X183850000Y-64000000D03*
%TD*%
D10*
%TO.P,Q5,1,G*%
%TO.N,Net-(Q5-G)*%
X82000000Y-79040000D03*
D11*
%TO.P,Q5,2,D*%
%TO.N,Net-(D3-A)*%
X82000000Y-81580000D03*
%TO.P,Q5,3,S*%
%TO.N,GND*%
X82000000Y-84120000D03*
%TD*%
D12*
%TO.P,R12,1*%
%TO.N,Net-(D7-K)*%
X115800000Y-51500000D03*
%TO.P,R12,2*%
%TO.N,GND*%
X128500000Y-51500000D03*
%TD*%
D19*
%TO.P,J9,1,Pin_1*%
%TO.N,Net-(J9-Pin_1)*%
X180960000Y-97500000D03*
D20*
%TO.P,J9,2,Pin_2*%
%TO.N,+5V*%
X183500000Y-97500000D03*
%TO.P,J9,3,Pin_3*%
%TO.N,GND*%
X186040000Y-97500000D03*
%TD*%
D12*
%TO.P,R18,1*%
%TO.N,Net-(A1-PadA6)*%
X156300000Y-83000000D03*
%TO.P,R18,2*%
%TO.N,GND*%
X169000000Y-83000000D03*
%TD*%
D19*
%TO.P,J11,1,Pin_1*%
%TO.N,Net-(J11-Pin_1)*%
X180960000Y-104500000D03*
D20*
%TO.P,J11,2,Pin_2*%
%TO.N,+5V*%
X183500000Y-104500000D03*
%TO.P,J11,3,Pin_3*%
%TO.N,GND*%
X186040000Y-104500000D03*
%TD*%
D24*
%TO.P,hole1,1*%
%TO.N,N/C*%
X65500000Y-36100000D03*
%TD*%
D19*
%TO.P,J5,1,Pin_1*%
%TO.N,Net-(D3-A)*%
X68500000Y-78540000D03*
D20*
%TO.P,J5,2,Pin_2*%
%TO.N,+Motor DC*%
X65960000Y-78540000D03*
%TD*%
D12*
%TO.P,R8,1*%
%TO.N,+5V*%
X153000000Y-72500000D03*
%TO.P,R8,2*%
%TO.N,Net-(Q8-C)*%
X140300000Y-72500000D03*
%TD*%
D10*
%TO.P,Q7,1,G*%
%TO.N,Net-(Q7-G)*%
X82000000Y-107500000D03*
D11*
%TO.P,Q7,2,D*%
%TO.N,Net-(D5-A)*%
X82000000Y-110040000D03*
%TO.P,Q7,3,S*%
%TO.N,GND*%
X82000000Y-112580000D03*
%TD*%
D12*
%TO.P,R13,1*%
%TO.N,Net-(D8-K)*%
X115800000Y-57000000D03*
%TO.P,R13,2*%
%TO.N,GND*%
X128500000Y-57000000D03*
%TD*%
D25*
%TO.P,A1,3V3,3.3V*%
%TO.N,unconnected-(A1-3.3V-Pad3V3)*%
X130150000Y-109660000D03*
%TO.P,A1,5V,5V*%
%TO.N,unconnected-(A1-Pad5V)*%
X130150000Y-84260000D03*
%TO.P,A1,A0,A0*%
%TO.N,Net-(A1-PadA0)*%
X130150000Y-104580000D03*
%TO.P,A1,A1,A1*%
%TO.N,Net-(A1-PadA1)*%
X130150000Y-102040000D03*
%TO.P,A1,A2,A2*%
%TO.N,Net-(A1-PadA2)*%
X130150000Y-99500000D03*
%TO.P,A1,A3,A3*%
%TO.N,Net-(A1-PadA3)*%
X130150000Y-96960000D03*
%TO.P,A1,A4,A4/SDA*%
%TO.N,unconnected-(A1-A4{slash}SDA-PadA4)*%
X130150000Y-94420000D03*
%TO.P,A1,A5,A5/SCL*%
%TO.N,unconnected-(A1-A5{slash}SCL-PadA5)*%
X130150000Y-91880000D03*
%TO.P,A1,A6,A6*%
%TO.N,Net-(A1-PadA6)*%
X130150000Y-89340000D03*
%TO.P,A1,A7,A7*%
%TO.N,Net-(Q8-C)*%
X130150000Y-86800000D03*
%TO.P,A1,AREF,AREF*%
%TO.N,unconnected-(A1-PadAREF)*%
X130150000Y-107120000D03*
%TO.P,A1,D0,D0/RX*%
%TO.N,unconnected-(A1-D0{slash}RX-PadD0)*%
X114910000Y-79180000D03*
%TO.P,A1,D1,D1/TX*%
%TO.N,unconnected-(A1-D1{slash}TX-PadD1)*%
X114910000Y-76640000D03*
%TO.P,A1,D2,D2*%
%TO.N,Net-(Q3-G)*%
X114910000Y-86800000D03*
%TO.P,A1,D3,D3*%
%TO.N,Net-(Q4-G)*%
X114910000Y-89340000D03*
%TO.P,A1,D4,D4*%
%TO.N,Net-(Q5-G)*%
X114910000Y-91880000D03*
%TO.P,A1,D5,D5*%
%TO.N,Net-(Q6-G)*%
X114910000Y-94420000D03*
%TO.P,A1,D6,D6*%
%TO.N,Net-(Q7-G)*%
X114910000Y-96960000D03*
%TO.P,A1,D7,D7*%
%TO.N,Net-(D8-A)*%
X114910000Y-99500000D03*
%TO.P,A1,D8,D8*%
%TO.N,Net-(D7-A)*%
X114910000Y-102040000D03*
%TO.P,A1,D9,D9*%
%TO.N,Net-(D6-A)*%
X114910000Y-104580000D03*
%TO.P,A1,D10,D10*%
%TO.N,5V_ENABLE*%
X114910000Y-107120000D03*
%TO.P,A1,D11,D11_MOSI*%
%TO.N,unconnected-(A1-D11_MOSI-PadD11)*%
X114910000Y-109660000D03*
%TO.P,A1,D12,D12_MISO*%
%TO.N,unconnected-(A1-D12_MISO-PadD12)*%
X114910000Y-112200000D03*
%TO.P,A1,D13,D13_SCK*%
%TO.N,unconnected-(A1-D13_SCK-PadD13)*%
X130150000Y-112200000D03*
D26*
%TO.P,A1,GND1,GND*%
%TO.N,GND*%
X114910000Y-84260000D03*
%TO.P,A1,GND2,GND*%
X130150000Y-79180000D03*
D25*
%TO.P,A1,RST1,RESET*%
%TO.N,unconnected-(A1-RESET-PadRST1)*%
X114910000Y-81720000D03*
%TO.P,A1,RST2,RESET*%
%TO.N,unconnected-(A1-RESET-PadRST2)*%
X130150000Y-81720000D03*
%TO.P,A1,VIN,VIN*%
%TO.N,VIN*%
X130150000Y-76640000D03*
%TD*%
D19*
%TO.P,J6,1,Pin_1*%
%TO.N,Net-(D4-A)*%
X68500000Y-93040000D03*
D20*
%TO.P,J6,2,Pin_2*%
%TO.N,+Motor DC*%
X65960000Y-93040000D03*
%TD*%
D12*
%TO.P,R11,1*%
%TO.N,Net-(D6-K)*%
X115800000Y-46000000D03*
%TO.P,R11,2*%
%TO.N,GND*%
X128500000Y-46000000D03*
%TD*%
D19*
%TO.P,J3,1,Pin_1*%
%TO.N,Net-(D1-A)*%
X68500000Y-51040000D03*
D20*
%TO.P,J3,2,Pin_2*%
%TO.N,+Motor DC*%
X65960000Y-51040000D03*
%TD*%
D13*
%TO.P,D4,1,K*%
%TO.N,+Motor DC*%
X65840000Y-98040000D03*
D14*
%TO.P,D4,2,A*%
%TO.N,Net-(D4-A)*%
X76000000Y-98040000D03*
%TD*%
D21*
%TO.P,D7,1,K*%
%TO.N,Net-(D7-K)*%
X122530000Y-62500000D03*
D22*
%TO.P,D7,2,A*%
%TO.N,Net-(D7-A)*%
X122530000Y-65040000D03*
%TD*%
D27*
%TO.P,F1,1*%
%TO.N,VIN_BATT*%
X173800000Y-54000000D03*
%TO.P,F1,2*%
%TO.N,VIN*%
X151200000Y-54000000D03*
%TD*%
D19*
%TO.P,J2,1,Pin_1*%
%TO.N,GND*%
X183460000Y-54000000D03*
D20*
%TO.P,J2,2,Pin_2*%
%TO.N,VIN_BATT*%
X186000000Y-54000000D03*
%TD*%
D12*
%TO.P,R14,1*%
%TO.N,Net-(J9-Pin_1)*%
X153000000Y-97500000D03*
%TO.P,R14,2*%
%TO.N,Net-(A1-PadA2)*%
X140300000Y-97500000D03*
%TD*%
%TO.P,R1,1*%
%TO.N,Net-(Q1-G)*%
X142500000Y-52650000D03*
%TO.P,R1,2*%
%TO.N,VIN*%
X142500000Y-65350000D03*
%TD*%
D13*
%TO.P,D5,1,K*%
%TO.N,+Motor DC*%
X65920000Y-112500000D03*
D14*
%TO.P,D5,2,A*%
%TO.N,Net-(D5-A)*%
X76080000Y-112500000D03*
%TD*%
D13*
%TO.P,D1,1,K*%
%TO.N,+Motor DC*%
X65840000Y-57040000D03*
D14*
%TO.P,D1,2,A*%
%TO.N,Net-(D1-A)*%
X76000000Y-57040000D03*
%TD*%
D19*
%TO.P,J12,1,Pin_1*%
%TO.N,Net-(J12-Pin_1)*%
X180920000Y-90500000D03*
D20*
%TO.P,J12,2,Pin_2*%
%TO.N,+5V*%
X183460000Y-90500000D03*
%TO.P,J12,3,Pin_3*%
%TO.N,GND*%
X186000000Y-90500000D03*
%TD*%
D12*
%TO.P,R5,1*%
%TO.N,Net-(Q5-G)*%
X91000000Y-79040000D03*
%TO.P,R5,2*%
%TO.N,GND*%
X103700000Y-79040000D03*
%TD*%
D19*
%TO.P,J7,1,Pin_1*%
%TO.N,Net-(D5-A)*%
X68500000Y-107500000D03*
D20*
%TO.P,J7,2,Pin_2*%
%TO.N,+Motor DC*%
X65960000Y-107500000D03*
%TD*%
D15*
%TO.P,Q1,1,G*%
%TO.N,Net-(Q1-G)*%
X166420000Y-44500000D03*
D16*
%TO.P,Q1,2,D*%
%TO.N,Net-(Q1-D)*%
X168960000Y-44500000D03*
%TO.P,Q1,3,S*%
%TO.N,VIN*%
X171500000Y-44500000D03*
%TD*%
D19*
%TO.P,J8,1,Pin_1*%
%TO.N,Net-(J8-Pin_1)*%
X183460000Y-72500000D03*
D20*
%TO.P,J8,2,Pin_2*%
%TO.N,+5V*%
X186000000Y-72500000D03*
%TD*%
D12*
%TO.P,R3,1*%
%TO.N,Net-(Q3-G)*%
X91150000Y-51500000D03*
%TO.P,R3,2*%
%TO.N,GND*%
X103850000Y-51500000D03*
%TD*%
D24*
%TO.P,hole4,1*%
%TO.N,N/C*%
X65500000Y-121100000D03*
%TD*%
D28*
%TO.P,C1,1*%
%TO.N,+5V*%
X82000000Y-43500000D03*
D12*
%TO.P,C1,2*%
%TO.N,GND*%
X84000000Y-43500000D03*
%TD*%
%TO.P,R4,1*%
%TO.N,Net-(Q4-G)*%
X91000000Y-65040000D03*
%TO.P,R4,2*%
%TO.N,GND*%
X103700000Y-65040000D03*
%TD*%
D29*
%TO.N,Net-(J10-Pin_1)*%
X178420000Y-80500000D02*
X155350000Y-80500000D01*
X180920000Y-83000000D02*
X181000000Y-83000000D01*
X155350000Y-80500000D02*
X152850000Y-83000000D01*
X180920000Y-83000000D02*
X178420000Y-80500000D01*
D30*
%TO.N,VIN*%
X165000000Y-54000000D02*
X171500000Y-47500000D01*
X132360000Y-76640000D02*
X142500000Y-66500000D01*
X142500000Y-66500000D02*
X142500000Y-65350000D01*
X151200000Y-54000000D02*
X151200000Y-59800000D01*
X130150000Y-76640000D02*
X132360000Y-76640000D01*
X171500000Y-47500000D02*
X171500000Y-44500000D01*
X145650000Y-65350000D02*
X142500000Y-65350000D01*
X151200000Y-54000000D02*
X165000000Y-54000000D01*
X151200000Y-59800000D02*
X145650000Y-65350000D01*
D29*
%TO.N,Net-(J11-Pin_1)*%
X155500000Y-102000000D02*
X153000000Y-104500000D01*
X178460000Y-102000000D02*
X155500000Y-102000000D01*
X180960000Y-104500000D02*
X178460000Y-102000000D01*
D30*
%TO.N,5V_ENABLE*%
X114790000Y-107000000D02*
X114910000Y-107120000D01*
D29*
%TO.N,Net-(Q6-G)*%
X91150000Y-93040000D02*
X92530000Y-94420000D01*
X82000000Y-93040000D02*
X91150000Y-93040000D01*
X92530000Y-94420000D02*
X114910000Y-94420000D01*
X82000000Y-93040000D02*
X82000000Y-93500000D01*
%TO.N,Net-(J12-Pin_1)*%
X155500000Y-88000000D02*
X153000000Y-90500000D01*
X180920000Y-90500000D02*
X178420000Y-88000000D01*
X178420000Y-88000000D02*
X155500000Y-88000000D01*
%TO.N,Net-(Q4-G)*%
X91000000Y-73000000D02*
X107340000Y-89340000D01*
X91000000Y-65040000D02*
X91000000Y-73000000D01*
X82000000Y-65040000D02*
X91000000Y-65040000D01*
X107340000Y-89340000D02*
X114910000Y-89340000D01*
%TO.N,Net-(Q5-G)*%
X106880000Y-91880000D02*
X114910000Y-91880000D01*
X91000000Y-79040000D02*
X100960000Y-89000000D01*
X100960000Y-89000000D02*
X104000000Y-89000000D01*
X104000000Y-89000000D02*
X106880000Y-91880000D01*
X82540000Y-79040000D02*
X91000000Y-79040000D01*
X82500000Y-79000000D02*
X82540000Y-79040000D01*
X82460000Y-79040000D02*
X82500000Y-79000000D01*
X82000000Y-79040000D02*
X82460000Y-79040000D01*
%TO.N,Net-(Q7-G)*%
X82000000Y-107500000D02*
X91110000Y-107500000D01*
X110000000Y-99500000D02*
X112540000Y-96960000D01*
X91150000Y-107540000D02*
X99190000Y-99500000D01*
X99190000Y-99500000D02*
X110000000Y-99500000D01*
X91110000Y-107500000D02*
X91150000Y-107540000D01*
X112540000Y-96960000D02*
X114910000Y-96960000D01*
D30*
%TO.N,+5V*%
X180420000Y-77000000D02*
X184600000Y-77000000D01*
X71000000Y-43500000D02*
X82000000Y-43500000D01*
X155500000Y-77000000D02*
X180420000Y-77000000D01*
X175455113Y-72500000D02*
X177900000Y-72500000D01*
X184600000Y-77000000D02*
X186000000Y-75600000D01*
X153000000Y-72500000D02*
X153000000Y-74500000D01*
X153000000Y-74500000D02*
X155500000Y-77000000D01*
X186000000Y-75600000D02*
X186000000Y-72500000D01*
X180420000Y-75020000D02*
X180420000Y-77000000D01*
X177900000Y-72500000D02*
X180420000Y-75020000D01*
%TO.N,GND*%
X126500000Y-115500000D02*
X128500000Y-117500000D01*
X186000000Y-97460000D02*
X186040000Y-97500000D01*
X171500000Y-107000000D02*
X169000000Y-104500000D01*
X84000000Y-42368630D02*
X84000000Y-43500000D01*
X84000000Y-43500000D02*
X99000000Y-43500000D01*
X137960000Y-42540000D02*
X137960000Y-44500000D01*
X153420000Y-44500000D02*
X153420000Y-42920000D01*
X82131370Y-40500000D02*
X84000000Y-42368630D01*
X186000000Y-85000000D02*
X185500000Y-85500000D01*
X128500000Y-45500000D02*
X128500000Y-46000000D01*
X174500000Y-48500000D02*
X174500000Y-43500000D01*
X127000000Y-58500000D02*
X127000000Y-80500000D01*
X127000000Y-83000000D02*
X127000000Y-80500000D01*
X122740000Y-84260000D02*
X114910000Y-84260000D01*
X125740000Y-84260000D02*
X127000000Y-83000000D01*
X128500000Y-117500000D02*
X182000000Y-117500000D01*
X130150000Y-79150000D02*
X130000000Y-79000000D01*
X128500000Y-57000000D02*
X127000000Y-58500000D01*
X99000000Y-43500000D02*
X103850000Y-48350000D01*
X170000000Y-57000000D02*
X170000000Y-53000000D01*
X186000000Y-90500000D02*
X186000000Y-92500000D01*
X186040000Y-100000000D02*
X171500000Y-100000000D01*
X186040000Y-97500000D02*
X186040000Y-104500000D01*
X126000000Y-43500000D02*
X99000000Y-43500000D01*
X186000000Y-92500000D02*
X185500000Y-93000000D01*
X171500000Y-100000000D02*
X169000000Y-97500000D01*
X125760000Y-84260000D02*
X126500000Y-85000000D01*
X170000000Y-53000000D02*
X174500000Y-48500000D01*
X156340000Y-40000000D02*
X153420000Y-42920000D01*
X186040000Y-113460000D02*
X185500000Y-114000000D01*
X185500000Y-85500000D02*
X171500000Y-85500000D01*
X126500000Y-85000000D02*
X126500000Y-115500000D01*
X186040000Y-104500000D02*
X186040000Y-111500000D01*
X182000000Y-117500000D02*
X186040000Y-113460000D01*
X138500000Y-42000000D02*
X137960000Y-42540000D01*
X122740000Y-84260000D02*
X125760000Y-84260000D01*
X110760000Y-84260000D02*
X105540000Y-79040000D01*
X186040000Y-107000000D02*
X171500000Y-107000000D01*
X171000000Y-40000000D02*
X156340000Y-40000000D01*
X68920000Y-40500000D02*
X82131370Y-40500000D01*
X122740000Y-84260000D02*
X125740000Y-84260000D01*
X186000000Y-90500000D02*
X186000000Y-97460000D01*
X129500000Y-44500000D02*
X128500000Y-45500000D01*
X171500000Y-114000000D02*
X169000000Y-111500000D01*
X128320000Y-79180000D02*
X130150000Y-79180000D01*
X186000000Y-83000000D02*
X186000000Y-85000000D01*
X152500000Y-42000000D02*
X138500000Y-42000000D01*
X127000000Y-80500000D02*
X128320000Y-79180000D01*
X186040000Y-113460000D02*
X186040000Y-111500000D01*
X105540000Y-79040000D02*
X103700000Y-79040000D01*
X65920000Y-43500000D02*
X68920000Y-40500000D01*
X183460000Y-56040000D02*
X181500000Y-58000000D01*
X114910000Y-84260000D02*
X110760000Y-84260000D01*
X171500000Y-93000000D02*
X169000000Y-90500000D01*
X186040000Y-97500000D02*
X186040000Y-100000000D01*
X186040000Y-104500000D02*
X186040000Y-107000000D01*
X185500000Y-93000000D02*
X171500000Y-93000000D01*
X137960000Y-44500000D02*
X129500000Y-44500000D01*
X153420000Y-42920000D02*
X152500000Y-42000000D01*
X183460000Y-54000000D02*
X183460000Y-56040000D01*
X181500000Y-58000000D02*
X171000000Y-58000000D01*
X185500000Y-114000000D02*
X171500000Y-114000000D01*
X171000000Y-58000000D02*
X170000000Y-57000000D01*
X130150000Y-79180000D02*
X130150000Y-79150000D01*
X128500000Y-46000000D02*
X126000000Y-43500000D01*
X103850000Y-48350000D02*
X103850000Y-51540000D01*
X174500000Y-43500000D02*
X171000000Y-40000000D01*
X171500000Y-85500000D02*
X169000000Y-83000000D01*
%TO.N,Net-(D1-A)*%
X82000000Y-54080000D02*
X76580000Y-54080000D01*
X73540000Y-51040000D02*
X76000000Y-53500000D01*
X76580000Y-54080000D02*
X73540000Y-51040000D01*
X76000000Y-53500000D02*
X76000000Y-57040000D01*
X68500000Y-51040000D02*
X73540000Y-51040000D01*
%TO.N,VIN_BATT*%
X186000000Y-52000000D02*
X185000000Y-51000000D01*
X186000000Y-54000000D02*
X186000000Y-52000000D01*
X176500000Y-54000000D02*
X173800000Y-54000000D01*
X179500000Y-51000000D02*
X176500000Y-54000000D01*
X185000000Y-51000000D02*
X179500000Y-51000000D01*
D29*
%TO.N,Net-(J13-Pin_1)*%
X180960000Y-111500000D02*
X178460000Y-109000000D01*
X178460000Y-109000000D02*
X155500000Y-109000000D01*
X155500000Y-109000000D02*
X153000000Y-111500000D01*
D30*
%TO.N,Net-(D2-A)*%
X76580000Y-67580000D02*
X73540000Y-64540000D01*
X73540000Y-64540000D02*
X74250000Y-65250000D01*
X82000000Y-67580000D02*
X76580000Y-67580000D01*
X76000000Y-67000000D02*
X76000000Y-70540000D01*
X74250000Y-65250000D02*
X76000000Y-67000000D01*
X68500000Y-64540000D02*
X73540000Y-64540000D01*
%TO.N,Net-(D3-A)*%
X76580000Y-81580000D02*
X73540000Y-78540000D01*
X76000000Y-81000000D02*
X76000000Y-84040000D01*
X76000000Y-84000000D02*
X76040000Y-84040000D01*
X82000000Y-81580000D02*
X76580000Y-81580000D01*
X68500000Y-78540000D02*
X73540000Y-78540000D01*
X76000000Y-84040000D02*
X76000000Y-84000000D01*
%TO.N,Net-(D4-A)*%
X81980000Y-95600000D02*
X76600000Y-95600000D01*
X68500000Y-93040000D02*
X74040000Y-93040000D01*
X76000000Y-95000000D02*
X76000000Y-98040000D01*
X74040000Y-93040000D02*
X76000000Y-95000000D01*
X82000000Y-95580000D02*
X81980000Y-95600000D01*
X76600000Y-95600000D02*
X74040000Y-93040000D01*
%TO.N,Net-(D5-A)*%
X68500000Y-107500000D02*
X74000000Y-107500000D01*
X76540000Y-110040000D02*
X74000000Y-107500000D01*
X74000000Y-107500000D02*
X76080000Y-109580000D01*
X82000000Y-110040000D02*
X76540000Y-110040000D01*
X76080000Y-109580000D02*
X76080000Y-112500000D01*
D29*
%TO.N,Net-(Q8-C)*%
X141500000Y-70000000D02*
X140300000Y-71200000D01*
X140300000Y-71200000D02*
X140300000Y-72500000D01*
D30*
X139000000Y-73800000D02*
X140300000Y-72500000D01*
D29*
X156300000Y-71300000D02*
X155000000Y-70000000D01*
X156300000Y-72500000D02*
X156300000Y-71300000D01*
D30*
X132200000Y-86800000D02*
X139000000Y-80000000D01*
X130150000Y-86800000D02*
X132200000Y-86800000D01*
D29*
X155000000Y-70000000D02*
X141500000Y-70000000D01*
D30*
X139000000Y-80000000D02*
X139000000Y-73800000D01*
D29*
%TO.N,Net-(J9-Pin_1)*%
X178460000Y-95000000D02*
X155500000Y-95000000D01*
X180960000Y-97500000D02*
X178460000Y-95000000D01*
X155500000Y-95000000D02*
X153000000Y-97500000D01*
%TO.N,Net-(Q3-G)*%
X108467614Y-86800000D02*
X94000000Y-72332386D01*
X94000000Y-54390000D02*
X91150000Y-51540000D01*
X94000000Y-72332386D02*
X94000000Y-54390000D01*
X82500000Y-51500000D02*
X82540000Y-51540000D01*
X82460000Y-51540000D02*
X82500000Y-51500000D01*
X114910000Y-86800000D02*
X108467614Y-86800000D01*
X82000000Y-51540000D02*
X82460000Y-51540000D01*
X82540000Y-51540000D02*
X91150000Y-51540000D01*
%TO.N,Net-(Q1-G)*%
X149500000Y-48500000D02*
X164000000Y-48500000D01*
X166420000Y-46080000D02*
X166420000Y-44500000D01*
X142500000Y-52650000D02*
X145350000Y-52650000D01*
X164000000Y-48500000D02*
X166420000Y-46080000D01*
X145350000Y-52650000D02*
X149500000Y-48500000D01*
D30*
%TO.N,Net-(Q1-D)*%
X159500000Y-42000000D02*
X158500000Y-43000000D01*
X158500000Y-43000000D02*
X158500000Y-44500000D01*
X168960000Y-44500000D02*
X168960000Y-42960000D01*
X168960000Y-42960000D02*
X168000000Y-42000000D01*
X168000000Y-42000000D02*
X159500000Y-42000000D01*
D29*
%TO.N,Net-(Q8-B)*%
X169650000Y-62500000D02*
X171150000Y-64000000D01*
X162230000Y-63270000D02*
X163000000Y-62500000D01*
X162230000Y-64860000D02*
X162230000Y-63270000D01*
X163000000Y-62500000D02*
X169650000Y-62500000D01*
%TO.N,Net-(A1-PadA6)*%
X132334397Y-89340000D02*
X130150000Y-89340000D01*
X153800000Y-85500000D02*
X142650000Y-85500000D01*
X156300000Y-83000000D02*
X153800000Y-85500000D01*
X138674397Y-83000000D02*
X132334397Y-89340000D01*
X142650000Y-85500000D02*
X140150000Y-83000000D01*
X140150000Y-83000000D02*
X138674397Y-83000000D01*
%TO.N,Net-(A1-PadA0)*%
X153800000Y-114000000D02*
X142800000Y-114000000D01*
X134580000Y-104580000D02*
X130150000Y-104580000D01*
X156300000Y-111500000D02*
X153800000Y-114000000D01*
X140300000Y-111500000D02*
X140300000Y-110300000D01*
X142800000Y-114000000D02*
X140300000Y-111500000D01*
X140300000Y-110300000D02*
X134580000Y-104580000D01*
%TO.N,Net-(A1-PadA3)*%
X140300000Y-90500000D02*
X139000000Y-90500000D01*
X132540000Y-96960000D02*
X130150000Y-96960000D01*
X139000000Y-90500000D02*
X132540000Y-96960000D01*
X142800000Y-93000000D02*
X153800000Y-93000000D01*
X140300000Y-90500000D02*
X142800000Y-93000000D01*
X153800000Y-93000000D02*
X156300000Y-90500000D01*
%TO.N,Net-(A1-PadA2)*%
X136500000Y-97500000D02*
X134500000Y-99500000D01*
X140300000Y-97500000D02*
X136500000Y-97500000D01*
X134500000Y-99500000D02*
X130150000Y-99500000D01*
X153800000Y-100000000D02*
X142800000Y-100000000D01*
X142800000Y-100000000D02*
X140300000Y-97500000D01*
X156300000Y-97500000D02*
X153800000Y-100000000D01*
%TO.N,Net-(A1-PadA1)*%
X153800000Y-107000000D02*
X142800000Y-107000000D01*
X134569132Y-102040000D02*
X130150000Y-102040000D01*
X140300000Y-104500000D02*
X137029132Y-104500000D01*
X156300000Y-104500000D02*
X153800000Y-107000000D01*
X142800000Y-107000000D02*
X140300000Y-104500000D01*
X137029132Y-104500000D02*
X134569132Y-102040000D01*
%TD*%
M02*
